%FSLAX25Y25*%
%MOIN*%
G70*
G01*
G75*
%ADD10R,0.05000X0.05000*%
%ADD11R,0.07520X0.05903*%
%ADD12O,0.08000X0.02400*%
%ADD13R,0.05000X0.05000*%
%ADD14O,0.10039X0.01000*%
%ADD15O,0.01000X0.10039*%
%ADD16R,0.05000X0.06000*%
%ADD17R,0.08800X0.14200*%
%ADD18R,0.08800X0.04800*%
%ADD19R,0.05903X0.07520*%
%ADD20R,0.06000X0.05000*%
%ADD21R,0.02400X0.08600*%
%ADD22O,0.02400X0.08600*%
%ADD23C,0.05000*%
%ADD24C,0.01000*%
%ADD25C,0.01500*%
%ADD26C,0.02000*%
%ADD27C,0.03000*%
%ADD28C,0.07874*%
%ADD29R,0.23622X0.23622*%
%ADD30C,0.23622*%
%ADD31C,0.39370*%
%ADD32O,0.10000X0.07000*%
%ADD33R,0.10000X0.07000*%
%ADD34C,0.07000*%
%ADD35R,0.06500X0.06500*%
%ADD36C,0.06500*%
%ADD37C,0.07500*%
%ADD38R,0.07500X0.07500*%
%ADD39C,0.15748*%
%ADD40C,0.05906*%
%ADD41R,0.05906X0.05906*%
%ADD42C,0.07873*%
%ADD43R,0.07873X0.07873*%
%ADD44R,0.13780X0.13780*%
%ADD45O,0.06000X0.07000*%
%ADD46R,0.06000X0.07000*%
%ADD47C,0.09200*%
%ADD48R,0.09200X0.09200*%
%ADD49C,0.05000*%
%ADD50C,0.02362*%
%ADD51C,0.00984*%
%ADD52C,0.00800*%
%ADD53C,0.00600*%
%ADD54C,0.00787*%
%ADD55C,0.00500*%
%ADD56R,0.05700X0.04000*%
%ADD57R,0.02100X0.01300*%
%ADD58R,0.01000X0.01000*%
%ADD59R,0.03900X0.01800*%
%ADD60R,0.03600X0.01600*%
%ADD61R,0.02700X0.01200*%
%ADD62R,0.02100X0.01100*%
%ADD63R,0.06100X0.03400*%
%ADD64R,0.01100X0.01500*%
%ADD65R,0.01100X0.00800*%
%ADD66R,0.04900X0.02100*%
%ADD67R,0.03600X0.01700*%
%ADD68R,0.01900X0.01300*%
%ADD69R,0.01800X0.01900*%
%ADD70R,0.01600X0.01300*%
G36*
X5446283Y2346083D02*
X5446441Y2345700D01*
Y2340700D01*
X5446283Y2340317D01*
X5445900Y2340159D01*
X5435900D01*
X5435517Y2340317D01*
X5435359Y2340700D01*
Y2345700D01*
X5435517Y2346083D01*
X5435900Y2346241D01*
X5445900D01*
X5446283Y2346083D01*
D02*
G37*
D24*
X5145300Y2483600D02*
G03*
X5145300Y2483600I-50000J0D01*
G01*
X5557200Y2380800D02*
G03*
X5562200Y2380800I2500J0D01*
G01*
X5246000Y2315000D02*
G03*
X5246000Y2315000I-10000J0D01*
G01*
X5240500Y2310000D02*
G03*
X5240500Y2310000I-4500J0D01*
G01*
X5225000Y2360000D02*
G03*
X5225000Y2360000I-10000J0D01*
G01*
X5219500Y2355000D02*
G03*
X5219500Y2355000I-4500J0D01*
G01*
X5293500Y2357500D02*
G03*
X5293500Y2357500I-10000J0D01*
G01*
X5288000Y2362500D02*
G03*
X5288000Y2362500I-4500J0D01*
G01*
X5193900Y2414800D02*
G03*
X5188900Y2414800I-2500J0D01*
G01*
X5146300Y2597600D02*
G03*
X5146300Y2597600I-50000J0D01*
G01*
X5027300Y2599600D02*
G03*
X5027300Y2599600I-50000J0D01*
G01*
X5026300Y2481600D02*
G03*
X5026300Y2481600I-50000J0D01*
G01*
X5035714Y2372781D02*
G03*
X5040714Y2372781I2500J0D01*
G01*
X5557400Y2452200D02*
G03*
X5557400Y2447200I0J-2500D01*
G01*
X5302000Y2451000D02*
G03*
X5302000Y2446000I0J-2500D01*
G01*
X4919500Y2766500D02*
X5613700D01*
X4919500Y2284100D02*
Y2766500D01*
Y2284100D02*
X5613700D01*
Y2766500D01*
X5076300Y2467600D02*
Y2474600D01*
X5072800Y2471100D02*
X5079800D01*
X5429400Y2517600D02*
Y2597600D01*
X5596900D01*
Y2517600D02*
Y2597600D01*
X5429400Y2517600D02*
X5596900D01*
X5589100Y2420400D02*
X5609100D01*
X5589100Y2445400D02*
X5609100D01*
Y2420400D02*
Y2445400D01*
X5589100Y2420400D02*
Y2445400D01*
X5589200Y2393600D02*
X5609200D01*
X5589200Y2418600D02*
X5609200D01*
Y2393600D02*
Y2418600D01*
X5589200Y2393600D02*
Y2418600D01*
X5589500Y2352700D02*
Y2387700D01*
X5609500Y2352700D02*
Y2387700D01*
X5589500Y2352700D02*
X5609500D01*
X5589500Y2387700D02*
X5609500D01*
X5554700Y2360800D02*
Y2380800D01*
Y2360800D02*
X5564700D01*
Y2380800D01*
X5562200D02*
X5564700D01*
X5554700D02*
X5557200D01*
X5589500Y2349100D02*
X5609500D01*
X5589500Y2324100D02*
X5609500D01*
X5589500D02*
Y2349100D01*
X5609500Y2324100D02*
Y2349100D01*
X5440900Y2333200D02*
Y2338200D01*
X5435900Y2348200D02*
X5445900D01*
X5435900Y2338200D02*
X5445900D01*
X5440900Y2348200D02*
Y2353200D01*
X5245000Y2328500D02*
Y2336500D01*
X5224000Y2328500D02*
Y2336500D01*
X5249000Y2328500D02*
Y2336500D01*
X5224000D02*
X5249000D01*
X5224000Y2328500D02*
X5249000D01*
Y2332500D02*
X5251500D01*
X5221500D02*
X5224000D01*
X5245000Y2336500D02*
X5249000Y2332500D01*
X5245000Y2328500D02*
X5249000Y2332500D01*
X5226000Y2315000D02*
X5246000D01*
X5205000Y2360000D02*
X5225000D01*
X5321400Y2332800D02*
Y2367800D01*
X5301400Y2332800D02*
Y2367800D01*
X5321400D01*
X5301400Y2332800D02*
X5321400D01*
X5273500Y2357500D02*
X5293500D01*
X5241900Y2378300D02*
Y2386300D01*
X5220900Y2378300D02*
Y2386300D01*
X5245900Y2378300D02*
Y2386300D01*
X5220900D02*
X5245900D01*
X5220900Y2378300D02*
X5245900D01*
Y2382300D02*
X5248400D01*
X5218400D02*
X5220900D01*
X5241900Y2386300D02*
X5245900Y2382300D01*
X5241900Y2378300D02*
X5245900Y2382300D01*
X5186400Y2414800D02*
Y2434800D01*
X5196400D01*
Y2414800D02*
Y2434800D01*
X5193900Y2414800D02*
X5196400D01*
X5186400D02*
X5188900D01*
X5077300Y2581600D02*
Y2588600D01*
X5073800Y2585100D02*
X5080800D01*
X4996300Y2608600D02*
Y2615600D01*
X4992800Y2612100D02*
X4999800D01*
X4995300Y2490600D02*
Y2497600D01*
X4991800Y2494100D02*
X4998800D01*
X5001600Y2412200D02*
Y2420200D01*
X5022600Y2412200D02*
Y2420200D01*
X4997600Y2412200D02*
Y2420200D01*
Y2412200D02*
X5022600D01*
X4997600Y2420200D02*
X5022600D01*
X4995100Y2416200D02*
X4997600D01*
X5022600D02*
X5025100D01*
X4997600D02*
X5001600Y2412200D01*
X4997600Y2416200D02*
X5001600Y2420200D01*
X5089300Y2383400D02*
X5097300D01*
X5089300Y2362400D02*
X5097300D01*
X5089300Y2387400D02*
X5097300D01*
X5089300Y2362400D02*
Y2387400D01*
X5097300Y2362400D02*
Y2387400D01*
X5093300D02*
Y2389900D01*
Y2359900D02*
Y2362400D01*
X5089300Y2383400D02*
X5093300Y2387400D01*
X5097300Y2383400D01*
X5192800Y2295300D02*
Y2395300D01*
X5122800Y2295300D02*
X5192800D01*
X5122800D02*
Y2395300D01*
X5192800D01*
X5071300Y2322800D02*
Y2330800D01*
X5092300Y2322800D02*
Y2330800D01*
X5067300Y2322800D02*
Y2330800D01*
Y2322800D02*
X5092300D01*
X5067300Y2330800D02*
X5092300D01*
X5064800Y2326800D02*
X5067300D01*
X5092300D02*
X5094800D01*
X5067300D02*
X5071300Y2322800D01*
X5067300Y2326800D02*
X5071300Y2330800D01*
X5554500Y2356200D02*
X5574500D01*
X5554500Y2331200D02*
X5574500D01*
X5554500D02*
Y2356200D01*
X5574500Y2331200D02*
Y2356200D01*
X5156800Y2556100D02*
X5176800D01*
X5156800Y2456100D02*
Y2556100D01*
Y2456100D02*
X5176800D01*
Y2556100D01*
X5033214Y2352781D02*
Y2372781D01*
Y2352781D02*
X5043214D01*
Y2372781D01*
X5040714D02*
X5043214D01*
X5033214D02*
X5035714D01*
X5189762Y2516800D02*
Y2596800D01*
X5357262D01*
Y2516800D02*
Y2596800D01*
X5189762Y2516800D02*
X5357262D01*
X5487400Y2439700D02*
Y2459700D01*
X5557400Y2439700D02*
Y2447200D01*
Y2452200D02*
Y2459700D01*
X5487400D02*
X5557400D01*
X5487400Y2439700D02*
X5557400D01*
X5232000Y2438500D02*
Y2458500D01*
X5302000Y2438500D02*
Y2446000D01*
Y2451000D02*
Y2458500D01*
X5232000D02*
X5302000D01*
X5232000Y2438500D02*
X5302000D01*
X5271500Y2470500D02*
Y2478500D01*
X5250500Y2470500D02*
Y2478500D01*
X5275500Y2470500D02*
Y2478500D01*
X5250500D02*
X5275500D01*
X5250500Y2470500D02*
X5275500D01*
Y2474500D02*
X5278000D01*
X5248000D02*
X5250500D01*
X5271500Y2478500D02*
X5275500Y2474500D01*
X5271500Y2470500D02*
X5275500Y2474500D01*
X5517900Y2470700D02*
Y2478700D01*
X5496900Y2470700D02*
Y2478700D01*
X5521900Y2470700D02*
Y2478700D01*
X5496900D02*
X5521900D01*
X5496900Y2470700D02*
X5521900D01*
Y2474700D02*
X5524400D01*
X5494400D02*
X5496900D01*
X5517900Y2478700D02*
X5521900Y2474700D01*
X5517900Y2470700D02*
X5521900Y2474700D01*
D50*
X5382818Y2383831D02*
G03*
X5382818Y2383831I-1181J0D01*
G01*
D51*
X5376814Y2373300D02*
G03*
X5376814Y2373300I-492J0D01*
G01*
D52*
X5476200Y2342300D02*
G03*
X5501200Y2317300I25000J0D01*
G01*
D02*
G03*
X5526200Y2342300I0J25000D01*
G01*
D02*
G03*
X5501200Y2367300I-25000J0D01*
G01*
D02*
G03*
X5476200Y2342300I0J-25000D01*
G01*
X5430900Y2328200D02*
X5435900Y2323200D01*
X5430900Y2328200D02*
Y2358200D01*
X5435900Y2363200D01*
X5445900D01*
X5450900Y2358200D01*
Y2328200D02*
Y2358200D01*
X5445900Y2323200D02*
X5450900Y2328200D01*
X5435900Y2323200D02*
X5445900D01*
X5255800Y2340500D02*
Y2382500D01*
X5240400Y2340600D02*
X5255800Y2340500D01*
X5240400Y2340600D02*
Y2382500D01*
X5255800D01*
X5086300Y2333800D02*
Y2375800D01*
X5070900Y2333900D02*
X5086300Y2333800D01*
X5070900Y2333900D02*
Y2375800D01*
X5086300D01*
X5424200Y2479050D02*
Y2504050D01*
X5374200Y2479050D02*
X5424200D01*
X5374200D02*
Y2504050D01*
X5424200D01*
X5376700Y2479050D02*
Y2504050D01*
X5458550Y2638400D02*
Y2647400D01*
X5456050Y2626400D02*
X5458550Y2638400D01*
X5398550Y2626400D02*
X5456050D01*
X5396050Y2638400D02*
X5398550Y2626400D01*
X5396050Y2638400D02*
Y2647400D01*
X5458550D01*
X5261450Y2638600D02*
Y2647600D01*
X5258950Y2626600D02*
X5261450Y2638600D01*
X5201450Y2626600D02*
X5258950D01*
X5198950Y2638600D02*
X5201450Y2626600D01*
X5198950Y2638600D02*
Y2647600D01*
X5261450D01*
X5556950Y2638600D02*
Y2647600D01*
X5554450Y2626600D02*
X5556950Y2638600D01*
X5496950Y2626600D02*
X5554450D01*
X5494450Y2638600D02*
X5496950Y2626600D01*
X5494450Y2638600D02*
Y2647600D01*
X5556950D01*
X5359950Y2638600D02*
Y2647600D01*
X5357450Y2626600D02*
X5359950Y2638600D01*
X5299950Y2626600D02*
X5357450D01*
X5297450Y2638600D02*
X5299950Y2626600D01*
X5297450Y2638600D02*
Y2647600D01*
X5359950D01*
D53*
X5487300Y2506750D02*
X5503300D01*
Y2499250D02*
Y2506750D01*
X5487300Y2499250D02*
X5503300D01*
X5487300D02*
Y2506750D01*
X5551300Y2395500D02*
X5552050Y2396250D01*
Y2399433D01*
X5575550D01*
Y2391567D02*
Y2399433D01*
X5552050Y2391567D02*
X5575550D01*
X5552050D02*
Y2394750D01*
X5551300Y2395500D02*
X5552050Y2394750D01*
X5558300Y2382850D02*
X5574300D01*
X5558300D02*
Y2390350D01*
X5574300D01*
Y2382850D02*
Y2390350D01*
X5586050Y2353700D02*
Y2369700D01*
X5578550Y2353700D02*
X5586050D01*
X5578550D02*
Y2369700D01*
X5586050D01*
X5544050Y2335800D02*
Y2351800D01*
X5551550D01*
Y2335800D02*
Y2351800D01*
X5544050Y2335800D02*
X5551550D01*
X5436700Y2384950D02*
X5452700D01*
Y2377450D02*
Y2384950D01*
X5436700Y2377450D02*
X5452700D01*
X5436700D02*
Y2384950D01*
X5438100Y2413150D02*
X5454100D01*
Y2405650D02*
Y2413150D01*
X5438100Y2405650D02*
X5454100D01*
X5438100D02*
Y2413150D01*
X5392050Y2438600D02*
Y2454600D01*
X5384550Y2438600D02*
X5392050D01*
X5384550D02*
Y2454600D01*
X5392050D01*
X5355350Y2437500D02*
X5362850D01*
Y2453500D01*
X5355350D02*
X5362850D01*
X5355350Y2437500D02*
Y2453500D01*
X5371150Y2437500D02*
Y2453500D01*
X5363650Y2437500D02*
X5371150D01*
X5363650D02*
Y2453500D01*
X5371150D01*
X5339600Y2400750D02*
X5355600D01*
X5339600D02*
Y2408250D01*
X5355600D01*
Y2400750D02*
Y2408250D01*
X5438900Y2305350D02*
X5454900D01*
X5438900D02*
Y2312850D01*
X5454900D01*
Y2305350D02*
Y2312850D01*
X5398700Y2302950D02*
X5414700D01*
Y2295450D02*
Y2302950D01*
X5398700Y2295450D02*
X5414700D01*
X5398700D02*
Y2302950D01*
X5419450Y2309950D02*
X5420200Y2309200D01*
X5419450Y2309950D02*
Y2313133D01*
X5395950D02*
X5419450D01*
X5395950Y2305267D02*
Y2313133D01*
Y2305267D02*
X5419450D01*
Y2308450D01*
X5420200Y2309200D01*
X5345400Y2381650D02*
X5361400D01*
Y2374150D02*
Y2381650D01*
X5345400Y2374150D02*
X5361400D01*
X5345400D02*
Y2381650D01*
X5345200Y2365450D02*
X5361200D01*
X5345200D02*
Y2372950D01*
X5361200D01*
Y2365450D02*
Y2372950D01*
X5375200Y2355350D02*
X5391200D01*
Y2347850D02*
Y2355350D01*
X5375200Y2347850D02*
X5391200D01*
X5375200D02*
Y2355350D01*
X5346000Y2345650D02*
X5362000D01*
Y2338150D02*
Y2345650D01*
X5346000Y2338150D02*
X5362000D01*
X5346000D02*
Y2345650D01*
X5346300Y2329550D02*
X5362300D01*
X5346300D02*
Y2337050D01*
X5362300D01*
Y2329550D02*
Y2337050D01*
X5344250Y2297700D02*
Y2313700D01*
X5351750D01*
Y2297700D02*
Y2313700D01*
X5344250Y2297700D02*
X5351750D01*
X5318700Y2289900D02*
X5333300D01*
Y2294500D01*
Y2311700D02*
Y2316300D01*
X5318700D02*
X5333300D01*
X5303300Y2315600D02*
X5304050Y2314850D01*
X5307233D01*
Y2291350D02*
Y2314850D01*
X5299367Y2291350D02*
X5307233D01*
X5299367D02*
Y2314850D01*
X5302550D01*
X5303300Y2315600D01*
X5294300Y2315400D02*
X5295050Y2314650D01*
X5298233D01*
Y2291150D02*
Y2314650D01*
X5290367Y2291150D02*
X5298233D01*
X5290367D02*
Y2314650D01*
X5293550D01*
X5294300Y2315400D01*
X5288850Y2296300D02*
Y2312300D01*
X5281350D02*
X5288850D01*
X5281350Y2296300D02*
Y2312300D01*
Y2296300D02*
X5288850D01*
X5249250Y2306800D02*
Y2322800D01*
X5256750D01*
Y2306800D02*
Y2322800D01*
X5249250Y2306800D02*
X5256750D01*
X5230750Y2356700D02*
Y2372700D01*
X5238250D01*
Y2356700D02*
Y2372700D01*
X5230750Y2356700D02*
X5238250D01*
X5267350Y2347600D02*
Y2363600D01*
X5259850Y2347600D02*
X5267350D01*
X5259850D02*
Y2363600D01*
X5267350D01*
X5271200Y2508250D02*
X5287200D01*
Y2500750D02*
Y2508250D01*
X5271200Y2500750D02*
X5287200D01*
X5271200D02*
Y2508250D01*
X5245600Y2507750D02*
X5261600D01*
Y2500250D02*
Y2507750D01*
X5245600Y2500250D02*
X5261600D01*
X5245600D02*
Y2507750D01*
X5264250Y2493750D02*
X5265000Y2494500D01*
X5264250Y2490567D02*
Y2493750D01*
X5240750Y2490567D02*
X5264250D01*
X5240750D02*
Y2498433D01*
X5264250D01*
Y2495250D02*
Y2498433D01*
Y2495250D02*
X5265000Y2494500D01*
X5209100Y2415750D02*
X5225100D01*
Y2423250D01*
X5209100D02*
X5225100D01*
X5209100Y2415750D02*
Y2423250D01*
Y2431650D02*
X5225100D01*
X5209100Y2424150D02*
Y2431650D01*
Y2424150D02*
X5225100D01*
Y2431650D01*
X5209100Y2432450D02*
X5225100D01*
Y2439950D01*
X5209100D02*
X5225100D01*
X5209100Y2432450D02*
Y2439950D01*
X5172650Y2425900D02*
Y2441900D01*
X5165150D02*
X5172650D01*
X5165150Y2425900D02*
Y2441900D01*
Y2425900D02*
X5172650D01*
X5155750Y2426600D02*
Y2442600D01*
Y2426600D02*
X5163250D01*
Y2442600D01*
X5155750D02*
X5163250D01*
X5163450Y2408700D02*
Y2424700D01*
X5155950D02*
X5163450D01*
X5155950Y2408700D02*
Y2424700D01*
Y2408700D02*
X5163450D01*
X5172650Y2408600D02*
Y2424600D01*
X5165150D02*
X5172650D01*
X5165150Y2408600D02*
Y2424600D01*
Y2408600D02*
X5172650D01*
X5135500Y2417450D02*
X5151500D01*
Y2409950D02*
Y2417450D01*
X5135500Y2409950D02*
X5151500D01*
X5135500D02*
Y2417450D01*
X5115700Y2417350D02*
X5131700D01*
Y2409850D02*
Y2417350D01*
X5115700Y2409850D02*
X5131700D01*
X5115700D02*
Y2417350D01*
X5099700Y2393950D02*
Y2401450D01*
Y2393950D02*
X5115700D01*
Y2401450D01*
X5099700D02*
X5115700D01*
X5099800Y2392850D02*
X5115800D01*
Y2385350D02*
Y2392850D01*
X5099800Y2385350D02*
X5115800D01*
X5099800D02*
Y2392850D01*
Y2384450D02*
X5115800D01*
Y2376950D02*
Y2384450D01*
X5099800Y2376950D02*
X5115800D01*
X5099800D02*
Y2384450D01*
Y2375650D02*
X5115800D01*
Y2368150D02*
Y2375650D01*
X5099800Y2368150D02*
X5115800D01*
X5099800D02*
Y2375650D01*
X5099900Y2366850D02*
X5115900D01*
Y2359350D02*
Y2366850D01*
X5099900Y2359350D02*
X5115900D01*
X5099900D02*
Y2366850D01*
X5030700Y2403600D02*
X5031450Y2402850D01*
Y2399667D02*
Y2402850D01*
Y2399667D02*
X5054950D01*
Y2407533D01*
X5031450D02*
X5054950D01*
X5031450Y2404350D02*
Y2407533D01*
X5030700Y2403600D02*
X5031450Y2404350D01*
X5031900Y2391250D02*
Y2398750D01*
Y2391250D02*
X5047900D01*
Y2398750D01*
X5031900D02*
X5047900D01*
X5032100Y2390350D02*
X5048100D01*
Y2382850D02*
Y2390350D01*
X5032100Y2382850D02*
X5048100D01*
X5032100D02*
Y2390350D01*
Y2381950D02*
X5048100D01*
Y2374450D02*
Y2381950D01*
X5032100Y2374450D02*
X5048100D01*
X5032100D02*
Y2381950D01*
X5054500Y2364250D02*
X5070500D01*
Y2356750D02*
Y2364250D01*
X5054500Y2356750D02*
X5070500D01*
X5054500D02*
Y2364250D01*
X5062250Y2339500D02*
Y2355500D01*
X5069750D01*
Y2339500D02*
Y2355500D01*
X5062250Y2339500D02*
X5069750D01*
X5095250Y2300400D02*
Y2316400D01*
X5102750D01*
Y2300400D02*
Y2316400D01*
X5095250Y2300400D02*
X5102750D01*
X5086750Y2300300D02*
Y2316300D01*
X5094250D01*
Y2300300D02*
Y2316300D01*
X5086750Y2300300D02*
X5094250D01*
X5078250Y2300400D02*
Y2316400D01*
X5085750D01*
Y2300400D02*
Y2316400D01*
X5078250Y2300400D02*
X5085750D01*
X5069750Y2300300D02*
Y2316300D01*
X5077250D01*
Y2300300D02*
Y2316300D01*
X5069750Y2300300D02*
X5077250D01*
X5023400Y2343550D02*
X5039400D01*
X5023400D02*
Y2351050D01*
X5039400D01*
Y2343550D02*
Y2351050D01*
X5011450Y2338600D02*
Y2354600D01*
X5018950D01*
Y2338600D02*
Y2354600D01*
X5011450Y2338600D02*
X5018950D01*
X5003100Y2355750D02*
X5019100D01*
X5003100D02*
Y2363250D01*
X5019100D01*
Y2355750D02*
Y2363250D01*
X5011950Y2364000D02*
Y2380000D01*
X5019450D01*
Y2364000D02*
Y2380000D01*
X5011950Y2364000D02*
X5019450D01*
X5010950Y2364200D02*
Y2380200D01*
X5003450Y2364200D02*
X5010950D01*
X5003450D02*
Y2380200D01*
X5010950D01*
X5002050Y2355400D02*
Y2371400D01*
X4994550Y2355400D02*
X5002050D01*
X4994550D02*
Y2371400D01*
X5002050D01*
X5001850Y2372500D02*
Y2388500D01*
X4994350Y2372500D02*
X5001850D01*
X4994350D02*
Y2388500D01*
X5001850D01*
X5048050Y2409500D02*
Y2425500D01*
X5055550D01*
Y2409500D02*
Y2425500D01*
X5048050Y2409500D02*
X5055550D01*
X5039450Y2409400D02*
Y2425400D01*
X5046950D01*
Y2409400D02*
Y2425400D01*
X5039450Y2409400D02*
X5046950D01*
X5355950Y2320450D02*
X5356700Y2321200D01*
X5352767Y2320450D02*
X5355950D01*
X5352767Y2296950D02*
Y2320450D01*
Y2296950D02*
X5360633D01*
Y2320450D01*
X5357450D02*
X5360633D01*
X5356700Y2321200D02*
X5357450Y2320450D01*
X5023000Y2334750D02*
X5039000D01*
X5023000D02*
Y2342250D01*
X5039000D01*
Y2334750D02*
Y2342250D01*
X5345700Y2355750D02*
X5361700D01*
Y2348250D02*
Y2355750D01*
X5345700Y2348250D02*
X5361700D01*
X5345700D02*
Y2355750D01*
X5345300Y2357450D02*
X5361300D01*
X5345300D02*
Y2364950D01*
X5361300D01*
Y2357450D02*
Y2364950D01*
X5421900Y2305450D02*
X5437900D01*
X5421900D02*
Y2312950D01*
X5437900D01*
Y2305450D02*
Y2312950D01*
X5339500Y2410450D02*
X5355500D01*
X5339500D02*
Y2417950D01*
X5355500D01*
Y2410450D02*
Y2417950D01*
X5345600Y2385750D02*
X5361600D01*
X5345600D02*
Y2393250D01*
X5361600D01*
Y2385750D02*
Y2393250D01*
X5421850Y2342450D02*
X5422600Y2341700D01*
X5421850Y2342450D02*
Y2345633D01*
X5398350D02*
X5421850D01*
X5398350Y2337767D02*
Y2345633D01*
Y2337767D02*
X5421850D01*
Y2340950D01*
X5422600Y2341700D01*
X5395950Y2342350D02*
X5396700Y2341600D01*
X5395950Y2342350D02*
Y2345533D01*
X5372450D02*
X5395950D01*
X5372450Y2337667D02*
Y2345533D01*
Y2337667D02*
X5395950D01*
Y2340850D01*
X5396700Y2341600D01*
X5402700Y2355450D02*
X5418700D01*
Y2347950D02*
Y2355450D01*
X5402700Y2347950D02*
X5418700D01*
X5402700D02*
Y2355450D01*
X5586050Y2370700D02*
Y2386700D01*
X5578550Y2370700D02*
X5586050D01*
X5578550D02*
Y2386700D01*
X5586050D01*
X5410850Y2437300D02*
Y2453300D01*
X5418350D01*
Y2437300D02*
Y2453300D01*
X5410850Y2437300D02*
X5418350D01*
X5454200Y2357050D02*
X5470200D01*
Y2349550D02*
Y2357050D01*
X5454200Y2349550D02*
X5470200D01*
X5454200D02*
Y2357050D01*
X5454400Y2336850D02*
X5470400D01*
Y2329350D02*
Y2336850D01*
X5454400Y2329350D02*
X5470400D01*
X5454400D02*
Y2336850D01*
X5428650Y2437400D02*
Y2453400D01*
X5421150Y2437400D02*
X5428650D01*
X5421150D02*
Y2453400D01*
X5428650D01*
X5517450Y2403600D02*
Y2419600D01*
X5509950Y2403600D02*
X5517450D01*
X5509950D02*
Y2419600D01*
X5517450D01*
X5371050Y2498200D02*
Y2514200D01*
X5363550Y2498200D02*
X5371050D01*
X5363550D02*
Y2514200D01*
X5371050D01*
X5563800Y2489200D02*
X5564550Y2489950D01*
X5567733D01*
Y2513450D01*
X5559867D02*
X5567733D01*
X5559867Y2489950D02*
Y2513450D01*
Y2489950D02*
X5563050D01*
X5563800Y2489200D01*
X5474900Y2488500D02*
X5475650Y2489250D01*
X5478833D01*
Y2512750D01*
X5470967D02*
X5478833D01*
X5470967Y2489250D02*
Y2512750D01*
Y2489250D02*
X5474150D01*
X5474900Y2488500D01*
X5222300Y2488100D02*
X5223050Y2488850D01*
X5226233D01*
Y2512350D01*
X5218367D02*
X5226233D01*
X5218367Y2488850D02*
Y2512350D01*
Y2488850D02*
X5221550D01*
X5222300Y2488100D01*
X5310100Y2488900D02*
X5310850Y2489650D01*
X5314033D01*
Y2513150D01*
X5306167D02*
X5314033D01*
X5306167Y2489650D02*
Y2513150D01*
Y2489650D02*
X5309350D01*
X5310100Y2488900D01*
X5501650Y2403750D02*
X5502400Y2403000D01*
X5498467Y2403750D02*
X5501650D01*
X5498467D02*
Y2427250D01*
X5506333D01*
Y2403750D02*
Y2427250D01*
X5503150Y2403750D02*
X5506333D01*
X5502400Y2403000D02*
X5503150Y2403750D01*
X5496150Y2406900D02*
Y2422900D01*
X5488650Y2406900D02*
X5496150D01*
X5488650D02*
Y2422900D01*
X5496150D01*
X5241550Y2404300D02*
Y2420300D01*
X5234050Y2404300D02*
X5241550D01*
X5234050D02*
Y2420300D01*
X5241550D01*
X5247050Y2401150D02*
X5247800Y2400400D01*
X5243867Y2401150D02*
X5247050D01*
X5243867D02*
Y2424650D01*
X5251733D01*
Y2401150D02*
Y2424650D01*
X5248550Y2401150D02*
X5251733D01*
X5247800Y2400400D02*
X5248550Y2401150D01*
X5550050Y2484000D02*
Y2500000D01*
X5557550D01*
Y2484000D02*
Y2500000D01*
X5550050Y2484000D02*
X5557550D01*
X5461850Y2481800D02*
Y2497800D01*
X5469350D01*
Y2481800D02*
Y2497800D01*
X5461850Y2481800D02*
X5469350D01*
X5234650Y2470900D02*
Y2486900D01*
X5227150Y2470900D02*
X5234650D01*
X5227150D02*
Y2486900D01*
X5234650D01*
X5304650Y2472300D02*
Y2488300D01*
X5297150Y2472300D02*
X5304650D01*
X5297150D02*
Y2488300D01*
X5304650D01*
X5509950Y2482450D02*
X5510700Y2483200D01*
X5509950Y2479267D02*
Y2482450D01*
X5486450Y2479267D02*
X5509950D01*
X5486450D02*
Y2487133D01*
X5509950D01*
Y2483950D02*
Y2487133D01*
Y2483950D02*
X5510700Y2483200D01*
X5263950Y2483750D02*
X5264700Y2484500D01*
X5263950Y2480567D02*
Y2483750D01*
X5240450Y2480567D02*
X5263950D01*
X5240450D02*
Y2488433D01*
X5263950D01*
Y2485250D02*
Y2488433D01*
Y2485250D02*
X5264700Y2484500D01*
X5541950Y2482450D02*
X5542700Y2483200D01*
X5541950Y2479267D02*
Y2482450D01*
X5518450Y2479267D02*
X5541950D01*
X5518450D02*
Y2487133D01*
X5541950D01*
Y2483950D02*
Y2487133D01*
Y2483950D02*
X5542700Y2483200D01*
X5520200Y2505750D02*
X5536200D01*
Y2498250D02*
Y2505750D01*
X5520200Y2498250D02*
X5536200D01*
X5520200D02*
Y2505750D01*
X5542050Y2492250D02*
X5542800Y2493000D01*
X5542050Y2489067D02*
Y2492250D01*
X5518550Y2489067D02*
X5542050D01*
X5518550D02*
Y2496933D01*
X5542050D01*
Y2493750D02*
Y2496933D01*
Y2493750D02*
X5542800Y2493000D01*
X5293550Y2493750D02*
X5294300Y2494500D01*
X5293550Y2490567D02*
Y2493750D01*
X5270050Y2490567D02*
X5293550D01*
X5270050D02*
Y2498433D01*
X5293550D01*
Y2495250D02*
Y2498433D01*
Y2495250D02*
X5294300Y2494500D01*
X5293550Y2483750D02*
X5294300Y2484500D01*
X5293550Y2480567D02*
Y2483750D01*
X5270050Y2480567D02*
X5293550D01*
X5270050D02*
Y2488433D01*
X5293550D01*
Y2485250D02*
Y2488433D01*
Y2485250D02*
X5294300Y2484500D01*
X5510250Y2492050D02*
X5511000Y2492800D01*
X5510250Y2488867D02*
Y2492050D01*
X5486750Y2488867D02*
X5510250D01*
X5486750D02*
Y2496733D01*
X5510250D01*
Y2493550D02*
Y2496733D01*
Y2493550D02*
X5511000Y2492800D01*
X5218300Y2607150D02*
X5234300D01*
X5218300D02*
Y2614650D01*
X5234300D01*
Y2607150D02*
Y2614650D01*
X5314150Y2472000D02*
Y2488000D01*
X5306650Y2472000D02*
X5314150D01*
X5306650D02*
Y2488000D01*
X5314150D01*
X5226050Y2471200D02*
Y2487200D01*
X5218550Y2471200D02*
X5226050D01*
X5218550D02*
Y2487200D01*
X5226050D01*
X5471750Y2470700D02*
Y2486700D01*
X5479250D01*
Y2470700D02*
Y2486700D01*
X5471750Y2470700D02*
X5479250D01*
X5560050Y2471900D02*
Y2487900D01*
X5567550D01*
Y2471900D02*
Y2487900D01*
X5560050Y2471900D02*
X5567550D01*
D54*
X5417858Y2379894D02*
Y2420052D01*
X5377700Y2379894D02*
Y2420052D01*
X5417858D01*
X5377700Y2379894D02*
X5417858D01*
X5329832Y2356037D02*
X5339832D01*
X5329832Y2348124D02*
X5339832D01*
X5330053Y2345637D02*
X5340053D01*
X5330053Y2337724D02*
X5340053D01*
X5329253Y2381637D02*
X5339253D01*
X5329253Y2373724D02*
X5339253D01*
X5382937Y2321647D02*
Y2331647D01*
X5375024Y2321647D02*
Y2331647D01*
X5408837Y2321747D02*
Y2331747D01*
X5400924Y2321747D02*
Y2331747D01*
X5418837Y2321747D02*
Y2331747D01*
X5410924Y2321747D02*
Y2331747D01*
X5392937Y2321647D02*
Y2331647D01*
X5385023Y2321647D02*
Y2331647D01*
X5461300Y2294500D02*
X5541300D01*
Y2304500D01*
X5461300D02*
X5541300D01*
X5461300Y2294500D02*
Y2304500D01*
D55*
X5435900Y2325700D02*
X5445900D01*
X5433400Y2328200D02*
X5435900Y2325700D01*
X5433400Y2328200D02*
Y2358200D01*
X5435900Y2360700D01*
X5445900D01*
X5448400Y2358200D01*
Y2328200D02*
Y2358200D01*
X5445900Y2325700D02*
X5448400Y2328200D01*
X5023599Y2395899D02*
X5023100Y2396399D01*
X5022100D01*
X5021600Y2395899D01*
Y2393900D01*
X5022100Y2393400D01*
X5023100D01*
X5023599Y2393900D01*
X5024599Y2395899D02*
X5025099Y2396399D01*
X5026099D01*
X5026598Y2395899D01*
Y2393900D01*
X5026099Y2393400D01*
X5025099D01*
X5024599Y2393900D01*
Y2395899D01*
X5027598D02*
X5028098Y2396399D01*
X5029098D01*
X5029597Y2395899D01*
Y2395399D01*
X5029098Y2394900D01*
X5028598D01*
X5029098D01*
X5029597Y2394400D01*
Y2393900D01*
X5029098Y2393400D01*
X5028098D01*
X5027598Y2393900D01*
X5105899Y2406299D02*
X5105399Y2406799D01*
X5104400D01*
X5103900Y2406299D01*
Y2404300D01*
X5104400Y2403800D01*
X5105399D01*
X5105899Y2404300D01*
X5106899Y2406299D02*
X5107399Y2406799D01*
X5108398D01*
X5108899Y2406299D01*
Y2404300D01*
X5108398Y2403800D01*
X5107399D01*
X5106899Y2404300D01*
Y2406299D01*
X5111897Y2403800D02*
X5109898D01*
X5111897Y2405799D01*
Y2406299D01*
X5111398Y2406799D01*
X5110398D01*
X5109898Y2406299D01*
X5350401Y2444899D02*
X5349901Y2444399D01*
Y2443400D01*
X5350401Y2442900D01*
X5352400D01*
X5352900Y2443400D01*
Y2444399D01*
X5352400Y2444899D01*
X5350401Y2445899D02*
X5349901Y2446399D01*
Y2447399D01*
X5350401Y2447898D01*
X5352400D01*
X5352900Y2447399D01*
Y2446399D01*
X5352400Y2445899D01*
X5350401D01*
X5352900Y2448898D02*
Y2449898D01*
Y2449398D01*
X5349901D01*
X5350401Y2448898D01*
X4981399Y2497299D02*
X4980899Y2497799D01*
X4979900D01*
X4979400Y2497299D01*
Y2495300D01*
X4979900Y2494800D01*
X4980899D01*
X4981399Y2495300D01*
X4982399Y2494800D02*
X4983399D01*
X4982899D01*
Y2497799D01*
X4982399Y2497299D01*
X5095799Y2630299D02*
X5095300Y2630799D01*
X5094300D01*
X5093800Y2630299D01*
Y2628300D01*
X5094300Y2627800D01*
X5095300D01*
X5095799Y2628300D01*
X5098798Y2627800D02*
X5096799D01*
X5098798Y2629799D01*
Y2630299D01*
X5098299Y2630799D01*
X5097299D01*
X5096799Y2630299D01*
X5228499Y2418101D02*
X5227999Y2417601D01*
X5227000D01*
X5226500Y2418101D01*
Y2420100D01*
X5227000Y2420600D01*
X5227999D01*
X5228499Y2420100D01*
X5229499Y2418101D02*
X5229999Y2417601D01*
X5230999D01*
X5231498Y2418101D01*
Y2418601D01*
X5230999Y2419101D01*
X5230499D01*
X5230999D01*
X5231498Y2419600D01*
Y2420100D01*
X5230999Y2420600D01*
X5229999D01*
X5229499Y2420100D01*
X5515199Y2502899D02*
X5514700Y2503399D01*
X5513700D01*
X5513200Y2502899D01*
Y2500900D01*
X5513700Y2500400D01*
X5514700D01*
X5515199Y2500900D01*
X5517699Y2500400D02*
Y2503399D01*
X5516199Y2501900D01*
X5518198D01*
X5545001Y2492299D02*
X5544501Y2491800D01*
Y2490800D01*
X5545001Y2490300D01*
X5547000D01*
X5547500Y2490800D01*
Y2491800D01*
X5547000Y2492299D01*
X5544501Y2495298D02*
Y2493299D01*
X5546001D01*
X5545501Y2494299D01*
Y2494798D01*
X5546001Y2495298D01*
X5547000D01*
X5547500Y2494798D01*
Y2493799D01*
X5547000Y2493299D01*
X5545001Y2482599D02*
X5544501Y2482100D01*
Y2481100D01*
X5545001Y2480600D01*
X5547000D01*
X5547500Y2481100D01*
Y2482100D01*
X5547000Y2482599D01*
X5544501Y2485598D02*
X5545001Y2484599D01*
X5546001Y2483599D01*
X5547000D01*
X5547500Y2484099D01*
Y2485098D01*
X5547000Y2485598D01*
X5546500D01*
X5546001Y2485098D01*
Y2483599D01*
X4980299Y2620899D02*
X4979800Y2621399D01*
X4978800D01*
X4978300Y2620899D01*
Y2618900D01*
X4978800Y2618400D01*
X4979800D01*
X4980299Y2618900D01*
X4981299Y2621399D02*
X4983298D01*
Y2620899D01*
X4981299Y2618900D01*
Y2618400D01*
X5094299Y2496699D02*
X5093800Y2497199D01*
X5092800D01*
X5092300Y2496699D01*
Y2494700D01*
X5092800Y2494200D01*
X5093800D01*
X5094299Y2494700D01*
X5095299Y2496699D02*
X5095799Y2497199D01*
X5096799D01*
X5097298Y2496699D01*
Y2496199D01*
X5096799Y2495700D01*
X5097298Y2495200D01*
Y2494700D01*
X5096799Y2494200D01*
X5095799D01*
X5095299Y2494700D01*
Y2495200D01*
X5095799Y2495700D01*
X5095299Y2496199D01*
Y2496699D01*
X5095799Y2495700D02*
X5096799D01*
X5277099Y2512999D02*
X5276600Y2513499D01*
X5275600D01*
X5275100Y2512999D01*
Y2511000D01*
X5275600Y2510500D01*
X5276600D01*
X5277099Y2511000D01*
X5278099D02*
X5278599Y2510500D01*
X5279599D01*
X5280098Y2511000D01*
Y2512999D01*
X5279599Y2513499D01*
X5278599D01*
X5278099Y2512999D01*
Y2512499D01*
X5278599Y2512000D01*
X5280098D01*
X5266601Y2492899D02*
X5266101Y2492399D01*
Y2491400D01*
X5266601Y2490900D01*
X5268600D01*
X5269100Y2491400D01*
Y2492399D01*
X5268600Y2492899D01*
X5269100Y2493899D02*
Y2494899D01*
Y2494399D01*
X5266101D01*
X5266601Y2493899D01*
Y2496398D02*
X5266101Y2496898D01*
Y2497898D01*
X5266601Y2498398D01*
X5268600D01*
X5269100Y2497898D01*
Y2496898D01*
X5268600Y2496398D01*
X5266601D01*
Y2483199D02*
X5266101Y2482700D01*
Y2481700D01*
X5266601Y2481200D01*
X5268600D01*
X5269100Y2481700D01*
Y2482700D01*
X5268600Y2483199D01*
X5269100Y2484199D02*
Y2485199D01*
Y2484699D01*
X5266101D01*
X5266601Y2484199D01*
X5269100Y2486698D02*
Y2487698D01*
Y2487198D01*
X5266101D01*
X5266601Y2486698D01*
X5492699Y2511399D02*
X5492199Y2511899D01*
X5491200D01*
X5490700Y2511399D01*
Y2509400D01*
X5491200Y2508900D01*
X5492199D01*
X5492699Y2509400D01*
X5493699Y2508900D02*
X5494699D01*
X5494199D01*
Y2511899D01*
X5493699Y2511399D01*
X5498198Y2508900D02*
X5496198D01*
X5498198Y2510899D01*
Y2511399D01*
X5497698Y2511899D01*
X5496698D01*
X5496198Y2511399D01*
X5252499Y2512499D02*
X5252000Y2512999D01*
X5251000D01*
X5250500Y2512499D01*
Y2510500D01*
X5251000Y2510000D01*
X5252000D01*
X5252499Y2510500D01*
X5253499Y2510000D02*
X5254499D01*
X5253999D01*
Y2512999D01*
X5253499Y2512499D01*
X5255998D02*
X5256498Y2512999D01*
X5257498D01*
X5257998Y2512499D01*
Y2511999D01*
X5257498Y2511499D01*
X5256998D01*
X5257498D01*
X5257998Y2511000D01*
Y2510500D01*
X5257498Y2510000D01*
X5256498D01*
X5255998Y2510500D01*
X5176499Y2444599D02*
X5175999Y2445099D01*
X5175000D01*
X5174500Y2444599D01*
Y2442600D01*
X5175000Y2442100D01*
X5175999D01*
X5176499Y2442600D01*
X5177499Y2442100D02*
X5178499D01*
X5177999D01*
Y2445099D01*
X5177499Y2444599D01*
X5181498Y2442100D02*
Y2445099D01*
X5179998Y2443600D01*
X5181998D01*
X5236299Y2424199D02*
X5235799Y2424699D01*
X5234800D01*
X5234300Y2424199D01*
Y2422200D01*
X5234800Y2421700D01*
X5235799D01*
X5236299Y2422200D01*
X5237299Y2421700D02*
X5238299D01*
X5237799D01*
Y2424699D01*
X5237299Y2424199D01*
X5241798Y2424699D02*
X5239798D01*
Y2423199D01*
X5240798Y2423699D01*
X5241298D01*
X5241798Y2423199D01*
Y2422200D01*
X5241298Y2421700D01*
X5240298D01*
X5239798Y2422200D01*
X5491399Y2398201D02*
X5491899Y2398701D01*
Y2399700D01*
X5491399Y2400200D01*
X5489400D01*
X5488900Y2399700D01*
Y2398701D01*
X5489400Y2398201D01*
X5488900Y2397201D02*
Y2396201D01*
Y2396701D01*
X5491899D01*
X5491399Y2397201D01*
X5491899Y2392702D02*
X5491399Y2393702D01*
X5490400Y2394702D01*
X5489400D01*
X5488900Y2394202D01*
Y2393202D01*
X5489400Y2392702D01*
X5489900D01*
X5490400Y2393202D01*
Y2394702D01*
X5257199Y2415501D02*
X5257699Y2416001D01*
Y2417000D01*
X5257199Y2417500D01*
X5255200D01*
X5254700Y2417000D01*
Y2416001D01*
X5255200Y2415501D01*
X5254700Y2414501D02*
Y2413501D01*
Y2414001D01*
X5257699D01*
X5257199Y2414501D01*
X5257699Y2412002D02*
Y2410002D01*
X5257199D01*
X5255200Y2412002D01*
X5254700D01*
X5502279Y2396971D02*
X5502779Y2397470D01*
Y2398470D01*
X5502279Y2398970D01*
X5500280D01*
X5499780Y2398470D01*
Y2397470D01*
X5500280Y2396971D01*
X5499780Y2395971D02*
Y2394971D01*
Y2395471D01*
X5502779D01*
X5502279Y2395971D01*
Y2393472D02*
X5502779Y2392972D01*
Y2391972D01*
X5502279Y2391472D01*
X5501779D01*
X5501279Y2391972D01*
X5500780Y2391472D01*
X5500280D01*
X5499780Y2391972D01*
Y2392972D01*
X5500280Y2393472D01*
X5500780D01*
X5501279Y2392972D01*
X5501779Y2393472D01*
X5502279D01*
X5501279Y2392972D02*
Y2391972D01*
X5191799Y2602299D02*
X5191299Y2602799D01*
X5190300D01*
X5189800Y2602299D01*
Y2600300D01*
X5190300Y2599800D01*
X5191299D01*
X5191799Y2600300D01*
X5192799Y2599800D02*
X5193799D01*
X5193299D01*
Y2602799D01*
X5192799Y2602299D01*
X5195298Y2600300D02*
X5195798Y2599800D01*
X5196798D01*
X5197298Y2600300D01*
Y2602299D01*
X5196798Y2602799D01*
X5195798D01*
X5195298Y2602299D01*
Y2601799D01*
X5195798Y2601299D01*
X5197298D01*
X5422401Y2567799D02*
X5421901Y2567299D01*
Y2566300D01*
X5422401Y2565800D01*
X5424400D01*
X5424900Y2566300D01*
Y2567299D01*
X5424400Y2567799D01*
X5424900Y2570798D02*
Y2568799D01*
X5422901Y2570798D01*
X5422401D01*
X5421901Y2570299D01*
Y2569299D01*
X5422401Y2568799D01*
Y2571798D02*
X5421901Y2572298D01*
Y2573298D01*
X5422401Y2573797D01*
X5424400D01*
X5424900Y2573298D01*
Y2572298D01*
X5424400Y2571798D01*
X5422401D01*
X5365799Y2519499D02*
X5365300Y2519999D01*
X5364300D01*
X5363800Y2519499D01*
Y2517500D01*
X5364300Y2517000D01*
X5365300D01*
X5365799Y2517500D01*
X5368798Y2517000D02*
X5366799D01*
X5368798Y2518999D01*
Y2519499D01*
X5368299Y2519999D01*
X5367299D01*
X5366799Y2519499D01*
X5369798Y2517000D02*
X5370798D01*
X5370298D01*
Y2519999D01*
X5369798Y2519499D01*
X5118201Y2389599D02*
X5117701Y2389100D01*
Y2388100D01*
X5118201Y2387600D01*
X5120200D01*
X5120700Y2388100D01*
Y2389100D01*
X5120200Y2389599D01*
X5120700Y2392598D02*
Y2390599D01*
X5118701Y2392598D01*
X5118201D01*
X5117701Y2392098D01*
Y2391099D01*
X5118201Y2390599D01*
X5120700Y2395597D02*
Y2393598D01*
X5118701Y2395597D01*
X5118201D01*
X5117701Y2395098D01*
Y2394098D01*
X5118201Y2393598D01*
X5022099Y2404599D02*
X5021600Y2405099D01*
X5020600D01*
X5020100Y2404599D01*
Y2402600D01*
X5020600Y2402100D01*
X5021600D01*
X5022099Y2402600D01*
X5025098Y2402100D02*
X5023099D01*
X5025098Y2404099D01*
Y2404599D01*
X5024599Y2405099D01*
X5023599D01*
X5023099Y2404599D01*
X5026098D02*
X5026598Y2405099D01*
X5027597D01*
X5028098Y2404599D01*
Y2404099D01*
X5027597Y2403600D01*
X5027098D01*
X5027597D01*
X5028098Y2403100D01*
Y2402600D01*
X5027597Y2402100D01*
X5026598D01*
X5026098Y2402600D01*
X5053099Y2378499D02*
X5052599Y2378999D01*
X5051600D01*
X5051100Y2378499D01*
Y2376500D01*
X5051600Y2376000D01*
X5052599D01*
X5053099Y2376500D01*
X5056099Y2376000D02*
X5054099D01*
X5056099Y2377999D01*
Y2378499D01*
X5055598Y2378999D01*
X5054599D01*
X5054099Y2378499D01*
X5058598Y2376000D02*
Y2378999D01*
X5057098Y2377500D01*
X5059097D01*
X5053299Y2386599D02*
X5052800Y2387099D01*
X5051800D01*
X5051300Y2386599D01*
Y2384600D01*
X5051800Y2384100D01*
X5052800D01*
X5053299Y2384600D01*
X5056298Y2384100D02*
X5054299D01*
X5056298Y2386099D01*
Y2386599D01*
X5055799Y2387099D01*
X5054799D01*
X5054299Y2386599D01*
X5059298Y2387099D02*
X5057298D01*
Y2385600D01*
X5058298Y2386099D01*
X5058797D01*
X5059298Y2385600D01*
Y2384600D01*
X5058797Y2384100D01*
X5057798D01*
X5057298Y2384600D01*
X5042299Y2339199D02*
X5041800Y2339699D01*
X5040800D01*
X5040300Y2339199D01*
Y2337200D01*
X5040800Y2336700D01*
X5041800D01*
X5042299Y2337200D01*
X5045298Y2336700D02*
X5043299D01*
X5045298Y2338699D01*
Y2339199D01*
X5044799Y2339699D01*
X5043799D01*
X5043299Y2339199D01*
X5048298Y2339699D02*
X5047298Y2339199D01*
X5046298Y2338199D01*
Y2337200D01*
X5046798Y2336700D01*
X5047798D01*
X5048298Y2337200D01*
Y2337700D01*
X5047798Y2338199D01*
X5046298D01*
X5365399Y2362099D02*
X5364899Y2362599D01*
X5363900D01*
X5363400Y2362099D01*
Y2360100D01*
X5363900Y2359600D01*
X5364899D01*
X5365399Y2360100D01*
X5368398Y2359600D02*
X5366399D01*
X5368398Y2361599D01*
Y2362099D01*
X5367899Y2362599D01*
X5366899D01*
X5366399Y2362099D01*
X5369398Y2362599D02*
X5371397D01*
Y2362099D01*
X5369398Y2360100D01*
Y2359600D01*
X5456599Y2342099D02*
X5456099Y2342599D01*
X5455100D01*
X5454600Y2342099D01*
Y2340100D01*
X5455100Y2339600D01*
X5456099D01*
X5456599Y2340100D01*
X5459599Y2339600D02*
X5457599D01*
X5459599Y2341599D01*
Y2342099D01*
X5459098Y2342599D01*
X5458099D01*
X5457599Y2342099D01*
X5460598D02*
X5461098Y2342599D01*
X5462098D01*
X5462597Y2342099D01*
Y2341599D01*
X5462098Y2341100D01*
X5462597Y2340600D01*
Y2340100D01*
X5462098Y2339600D01*
X5461098D01*
X5460598Y2340100D01*
Y2340600D01*
X5461098Y2341100D01*
X5460598Y2341599D01*
Y2342099D01*
X5461098Y2341100D02*
X5462098D01*
X5456399Y2362299D02*
X5455899Y2362799D01*
X5454900D01*
X5454400Y2362299D01*
Y2360300D01*
X5454900Y2359800D01*
X5455899D01*
X5456399Y2360300D01*
X5459398Y2359800D02*
X5457399D01*
X5459398Y2361799D01*
Y2362299D01*
X5458899Y2362799D01*
X5457899D01*
X5457399Y2362299D01*
X5460398Y2360300D02*
X5460898Y2359800D01*
X5461898D01*
X5462397Y2360300D01*
Y2362299D01*
X5461898Y2362799D01*
X5460898D01*
X5460398Y2362299D01*
Y2361799D01*
X5460898Y2361300D01*
X5462397D01*
X5003599Y2354599D02*
X5003099Y2355099D01*
X5002100D01*
X5001600Y2354599D01*
Y2352600D01*
X5002100Y2352100D01*
X5003099D01*
X5003599Y2352600D01*
X5004599Y2354599D02*
X5005099Y2355099D01*
X5006099D01*
X5006598Y2354599D01*
Y2354099D01*
X5006099Y2353600D01*
X5005599D01*
X5006099D01*
X5006598Y2353100D01*
Y2352600D01*
X5006099Y2352100D01*
X5005099D01*
X5004599Y2352600D01*
X5007598Y2354599D02*
X5008098Y2355099D01*
X5009098D01*
X5009597Y2354599D01*
Y2352600D01*
X5009098Y2352100D01*
X5008098D01*
X5007598Y2352600D01*
Y2354599D01*
X5015699Y2383999D02*
X5015200Y2384499D01*
X5014200D01*
X5013700Y2383999D01*
Y2382000D01*
X5014200Y2381500D01*
X5015200D01*
X5015699Y2382000D01*
X5016699Y2383999D02*
X5017199Y2384499D01*
X5018199D01*
X5018699Y2383999D01*
Y2383499D01*
X5018199Y2382999D01*
X5017699D01*
X5018199D01*
X5018699Y2382500D01*
Y2382000D01*
X5018199Y2381500D01*
X5017199D01*
X5016699Y2382000D01*
X5019698Y2381500D02*
X5020698D01*
X5020198D01*
Y2384499D01*
X5019698Y2383999D01*
X5332199Y2370299D02*
X5331699Y2370799D01*
X5330700D01*
X5330200Y2370299D01*
Y2368300D01*
X5330700Y2367800D01*
X5331699D01*
X5332199Y2368300D01*
X5333199Y2370299D02*
X5333699Y2370799D01*
X5334698D01*
X5335198Y2370299D01*
Y2369799D01*
X5334698Y2369300D01*
X5334199D01*
X5334698D01*
X5335198Y2368800D01*
Y2368300D01*
X5334698Y2367800D01*
X5333699D01*
X5333199Y2368300D01*
X5338197Y2367800D02*
X5336198D01*
X5338197Y2369799D01*
Y2370299D01*
X5337698Y2370799D01*
X5336698D01*
X5336198Y2370299D01*
X5456799Y2382699D02*
X5456300Y2383199D01*
X5455300D01*
X5454800Y2382699D01*
Y2380700D01*
X5455300Y2380200D01*
X5456300D01*
X5456799Y2380700D01*
X5457799Y2382699D02*
X5458299Y2383199D01*
X5459299D01*
X5459798Y2382699D01*
Y2382199D01*
X5459299Y2381700D01*
X5458799D01*
X5459299D01*
X5459798Y2381200D01*
Y2380700D01*
X5459299Y2380200D01*
X5458299D01*
X5457799Y2380700D01*
X5460798Y2382699D02*
X5461298Y2383199D01*
X5462297D01*
X5462798Y2382699D01*
Y2382199D01*
X5462297Y2381700D01*
X5461798D01*
X5462297D01*
X5462798Y2381200D01*
Y2380700D01*
X5462297Y2380200D01*
X5461298D01*
X5460798Y2380700D01*
X5412999Y2458599D02*
X5412500Y2459099D01*
X5411500D01*
X5411000Y2458599D01*
Y2456600D01*
X5411500Y2456100D01*
X5412500D01*
X5412999Y2456600D01*
X5413999Y2458599D02*
X5414499Y2459099D01*
X5415499D01*
X5415998Y2458599D01*
Y2458099D01*
X5415499Y2457599D01*
X5414999D01*
X5415499D01*
X5415998Y2457100D01*
Y2456600D01*
X5415499Y2456100D01*
X5414499D01*
X5413999Y2456600D01*
X5418497Y2456100D02*
Y2459099D01*
X5416998Y2457599D01*
X5418998D01*
X5394901Y2450399D02*
X5394401Y2449899D01*
Y2448900D01*
X5394901Y2448400D01*
X5396900D01*
X5397400Y2448900D01*
Y2449899D01*
X5396900Y2450399D01*
X5394901Y2451399D02*
X5394401Y2451899D01*
Y2452898D01*
X5394901Y2453398D01*
X5395401D01*
X5395900Y2452898D01*
Y2452399D01*
Y2452898D01*
X5396400Y2453398D01*
X5396900D01*
X5397400Y2452898D01*
Y2451899D01*
X5396900Y2451399D01*
X5394401Y2456397D02*
Y2454398D01*
X5395900D01*
X5395401Y2455398D01*
Y2455898D01*
X5395900Y2456397D01*
X5396900D01*
X5397400Y2455898D01*
Y2454898D01*
X5396900Y2454398D01*
X5351299Y2397405D02*
X5350800Y2397905D01*
X5349800D01*
X5349300Y2397405D01*
Y2395406D01*
X5349800Y2394906D01*
X5350800D01*
X5351299Y2395406D01*
X5352299Y2397405D02*
X5352799Y2397905D01*
X5353799D01*
X5354298Y2397405D01*
Y2396905D01*
X5353799Y2396405D01*
X5353299D01*
X5353799D01*
X5354298Y2395906D01*
Y2395406D01*
X5353799Y2394906D01*
X5352799D01*
X5352299Y2395406D01*
X5357298Y2397905D02*
X5356298Y2397405D01*
X5355298Y2396405D01*
Y2395406D01*
X5355798Y2394906D01*
X5356798D01*
X5357298Y2395406D01*
Y2395906D01*
X5356798Y2396405D01*
X5355298D01*
X5366899Y2333699D02*
X5366399Y2334199D01*
X5365400D01*
X5364900Y2333699D01*
Y2331700D01*
X5365400Y2331200D01*
X5366399D01*
X5366899Y2331700D01*
X5367899Y2333699D02*
X5368399Y2334199D01*
X5369398D01*
X5369898Y2333699D01*
Y2333199D01*
X5369398Y2332700D01*
X5368899D01*
X5369398D01*
X5369898Y2332200D01*
Y2331700D01*
X5369398Y2331200D01*
X5368399D01*
X5367899Y2331700D01*
X5370898Y2334199D02*
X5372897D01*
Y2333699D01*
X5370898Y2331700D01*
Y2331200D01*
X5259401Y2312899D02*
X5258901Y2312399D01*
Y2311400D01*
X5259401Y2310900D01*
X5261400D01*
X5261900Y2311400D01*
Y2312399D01*
X5261400Y2312899D01*
X5259401Y2313899D02*
X5258901Y2314399D01*
Y2315398D01*
X5259401Y2315898D01*
X5259901D01*
X5260400Y2315398D01*
Y2314899D01*
Y2315398D01*
X5260900Y2315898D01*
X5261400D01*
X5261900Y2315398D01*
Y2314399D01*
X5261400Y2313899D01*
X5259401Y2316898D02*
X5258901Y2317398D01*
Y2318398D01*
X5259401Y2318897D01*
X5259901D01*
X5260400Y2318398D01*
X5260900Y2318897D01*
X5261400D01*
X5261900Y2318398D01*
Y2317398D01*
X5261400Y2316898D01*
X5260900D01*
X5260400Y2317398D01*
X5259901Y2316898D01*
X5259401D01*
X5260400Y2317398D02*
Y2318398D01*
X5220201Y2316499D02*
X5219701Y2315999D01*
Y2315000D01*
X5220201Y2314500D01*
X5222200D01*
X5222700Y2315000D01*
Y2315999D01*
X5222200Y2316499D01*
X5220201Y2317499D02*
X5219701Y2317999D01*
Y2318999D01*
X5220201Y2319498D01*
X5220701D01*
X5221201Y2318999D01*
Y2318499D01*
Y2318999D01*
X5221700Y2319498D01*
X5222200D01*
X5222700Y2318999D01*
Y2317999D01*
X5222200Y2317499D01*
Y2320498D02*
X5222700Y2320998D01*
Y2321998D01*
X5222200Y2322497D01*
X5220201D01*
X5219701Y2321998D01*
Y2320998D01*
X5220201Y2320498D01*
X5220701D01*
X5221201Y2320998D01*
Y2322497D01*
X5561999Y2404699D02*
X5561499Y2405199D01*
X5560500D01*
X5560000Y2404699D01*
Y2402700D01*
X5560500Y2402200D01*
X5561499D01*
X5561999Y2402700D01*
X5564499Y2402200D02*
Y2405199D01*
X5562999Y2403699D01*
X5564998D01*
X5565998Y2404699D02*
X5566498Y2405199D01*
X5567498D01*
X5567997Y2404699D01*
Y2402700D01*
X5567498Y2402200D01*
X5566498D01*
X5565998Y2402700D01*
Y2404699D01*
X5551899Y2388399D02*
X5551400Y2388899D01*
X5550400D01*
X5549900Y2388399D01*
Y2386400D01*
X5550400Y2385900D01*
X5551400D01*
X5551899Y2386400D01*
X5554399Y2385900D02*
Y2388899D01*
X5552899Y2387399D01*
X5554898D01*
X5555898Y2385900D02*
X5556898D01*
X5556398D01*
Y2388899D01*
X5555898Y2388399D01*
X5458199Y2410399D02*
X5457700Y2410899D01*
X5456700D01*
X5456200Y2410399D01*
Y2408400D01*
X5456700Y2407900D01*
X5457700D01*
X5458199Y2408400D01*
X5460699Y2407900D02*
Y2410899D01*
X5459199Y2409399D01*
X5461198D01*
X5464198Y2407900D02*
X5462198D01*
X5464198Y2409899D01*
Y2410399D01*
X5463697Y2410899D01*
X5462698D01*
X5462198Y2410399D01*
X5330799Y2404999D02*
X5330299Y2405499D01*
X5329300D01*
X5328800Y2404999D01*
Y2403000D01*
X5329300Y2402500D01*
X5330299D01*
X5330799Y2403000D01*
X5333298Y2402500D02*
Y2405499D01*
X5331799Y2404000D01*
X5333798D01*
X5334798Y2404999D02*
X5335298Y2405499D01*
X5336298D01*
X5336797Y2404999D01*
Y2404499D01*
X5336298Y2404000D01*
X5335798D01*
X5336298D01*
X5336797Y2403500D01*
Y2403000D01*
X5336298Y2402500D01*
X5335298D01*
X5334798Y2403000D01*
X5582601Y2346799D02*
X5582101Y2346300D01*
Y2345300D01*
X5582601Y2344800D01*
X5584600D01*
X5585100Y2345300D01*
Y2346300D01*
X5584600Y2346799D01*
X5585100Y2349298D02*
X5582101D01*
X5583601Y2347799D01*
Y2349798D01*
X5585100Y2352298D02*
X5582101D01*
X5583601Y2350798D01*
Y2352797D01*
X5261999Y2368299D02*
X5261499Y2368799D01*
X5260500D01*
X5260000Y2368299D01*
Y2366300D01*
X5260500Y2365800D01*
X5261499D01*
X5261999Y2366300D01*
X5264499Y2365800D02*
Y2368799D01*
X5262999Y2367299D01*
X5264998D01*
X5267997Y2368799D02*
X5265998D01*
Y2367299D01*
X5266998Y2367799D01*
X5267498D01*
X5267997Y2367299D01*
Y2366300D01*
X5267498Y2365800D01*
X5266498D01*
X5265998Y2366300D01*
X5281199Y2372699D02*
X5280700Y2373199D01*
X5279700D01*
X5279200Y2372699D01*
Y2370700D01*
X5279700Y2370200D01*
X5280700D01*
X5281199Y2370700D01*
X5283699Y2370200D02*
Y2373199D01*
X5282199Y2371700D01*
X5284198D01*
X5287197Y2373199D02*
X5286198Y2372699D01*
X5285198Y2371700D01*
Y2370700D01*
X5285698Y2370200D01*
X5286698D01*
X5287197Y2370700D01*
Y2371200D01*
X5286698Y2371700D01*
X5285198D01*
X5200201Y2358199D02*
X5199701Y2357700D01*
Y2356700D01*
X5200201Y2356200D01*
X5202200D01*
X5202700Y2356700D01*
Y2357700D01*
X5202200Y2358199D01*
X5202700Y2360699D02*
X5199701D01*
X5201200Y2359199D01*
Y2361198D01*
X5199701Y2362198D02*
Y2364197D01*
X5200201D01*
X5202200Y2362198D01*
X5202700D01*
X5229999Y2376699D02*
X5229499Y2377199D01*
X5228500D01*
X5228000Y2376699D01*
Y2374700D01*
X5228500Y2374200D01*
X5229499D01*
X5229999Y2374700D01*
X5232499Y2374200D02*
Y2377199D01*
X5230999Y2375699D01*
X5232998D01*
X5233998Y2376699D02*
X5234498Y2377199D01*
X5235498D01*
X5235997Y2376699D01*
Y2376199D01*
X5235498Y2375699D01*
X5235997Y2375200D01*
Y2374700D01*
X5235498Y2374200D01*
X5234498D01*
X5233998Y2374700D01*
Y2375200D01*
X5234498Y2375699D01*
X5233998Y2376199D01*
Y2376699D01*
X5234498Y2375699D02*
X5235498D01*
X5369172Y2339768D02*
X5368673Y2339268D01*
Y2338268D01*
X5369172Y2337769D01*
X5371172D01*
X5371672Y2338268D01*
Y2339268D01*
X5371172Y2339768D01*
X5371672Y2342267D02*
X5368673D01*
X5370172Y2340767D01*
Y2342767D01*
X5371172Y2343767D02*
X5371672Y2344266D01*
Y2345266D01*
X5371172Y2345766D01*
X5369172D01*
X5368673Y2345266D01*
Y2344266D01*
X5369172Y2343767D01*
X5369672D01*
X5370172Y2344266D01*
Y2345766D01*
X5379699Y2360499D02*
X5379200Y2360999D01*
X5378200D01*
X5377700Y2360499D01*
Y2358500D01*
X5378200Y2358000D01*
X5379200D01*
X5379699Y2358500D01*
X5382698Y2360999D02*
X5380699D01*
Y2359500D01*
X5381699Y2359999D01*
X5382199D01*
X5382698Y2359500D01*
Y2358500D01*
X5382199Y2358000D01*
X5381199D01*
X5380699Y2358500D01*
X5383698Y2360499D02*
X5384198Y2360999D01*
X5385197D01*
X5385698Y2360499D01*
Y2358500D01*
X5385197Y2358000D01*
X5384198D01*
X5383698Y2358500D01*
Y2360499D01*
X5425101Y2340599D02*
X5424601Y2340100D01*
Y2339100D01*
X5425101Y2338600D01*
X5427100D01*
X5427600Y2339100D01*
Y2340100D01*
X5427100Y2340599D01*
X5424601Y2343598D02*
Y2341599D01*
X5426101D01*
X5425601Y2342599D01*
Y2343098D01*
X5426101Y2343598D01*
X5427100D01*
X5427600Y2343098D01*
Y2342099D01*
X5427100Y2341599D01*
X5427600Y2344598D02*
Y2345598D01*
Y2345098D01*
X5424601D01*
X5425101Y2344598D01*
X5410099Y2359799D02*
X5409600Y2360299D01*
X5408600D01*
X5408100Y2359799D01*
Y2357800D01*
X5408600Y2357300D01*
X5409600D01*
X5410099Y2357800D01*
X5413099Y2360299D02*
X5411099D01*
Y2358800D01*
X5412099Y2359299D01*
X5412598D01*
X5413099Y2358800D01*
Y2357800D01*
X5412598Y2357300D01*
X5411599D01*
X5411099Y2357800D01*
X5416097Y2357300D02*
X5414098D01*
X5416097Y2359299D01*
Y2359799D01*
X5415598Y2360299D01*
X5414598D01*
X5414098Y2359799D01*
X5387799Y2307799D02*
X5387299Y2308299D01*
X5386300D01*
X5385800Y2307799D01*
Y2305800D01*
X5386300Y2305300D01*
X5387299D01*
X5387799Y2305800D01*
X5390799Y2308299D02*
X5388799D01*
Y2306800D01*
X5389799Y2307299D01*
X5390298D01*
X5390799Y2306800D01*
Y2305800D01*
X5390298Y2305300D01*
X5389299D01*
X5388799Y2305800D01*
X5391798Y2307799D02*
X5392298Y2308299D01*
X5393298D01*
X5393797Y2307799D01*
Y2307299D01*
X5393298Y2306800D01*
X5392798D01*
X5393298D01*
X5393797Y2306300D01*
Y2305800D01*
X5393298Y2305300D01*
X5392298D01*
X5391798Y2305800D01*
X5389899Y2299999D02*
X5389399Y2300499D01*
X5388400D01*
X5387900Y2299999D01*
Y2298000D01*
X5388400Y2297500D01*
X5389399D01*
X5389899Y2298000D01*
X5392899Y2300499D02*
X5390899D01*
Y2298999D01*
X5391899Y2299499D01*
X5392398D01*
X5392899Y2298999D01*
Y2298000D01*
X5392398Y2297500D01*
X5391399D01*
X5390899Y2298000D01*
X5395398Y2297500D02*
Y2300499D01*
X5393898Y2298999D01*
X5395897D01*
X5582799Y2394101D02*
X5583299Y2394600D01*
Y2395600D01*
X5582799Y2396100D01*
X5580800D01*
X5580300Y2395600D01*
Y2394600D01*
X5580800Y2394101D01*
X5583299Y2391102D02*
Y2393101D01*
X5581799D01*
X5582299Y2392101D01*
Y2391602D01*
X5581799Y2391102D01*
X5580800D01*
X5580300Y2391602D01*
Y2392601D01*
X5580800Y2393101D01*
X5583299Y2388103D02*
Y2390102D01*
X5581799D01*
X5582299Y2389102D01*
Y2388602D01*
X5581799Y2388103D01*
X5580800D01*
X5580300Y2388602D01*
Y2389602D01*
X5580800Y2390102D01*
X5428099Y2303199D02*
X5427599Y2303699D01*
X5426600D01*
X5426100Y2303199D01*
Y2301200D01*
X5426600Y2300700D01*
X5427599D01*
X5428099Y2301200D01*
X5431099Y2303699D02*
X5429099D01*
Y2302200D01*
X5430099Y2302699D01*
X5430598D01*
X5431099Y2302200D01*
Y2301200D01*
X5430598Y2300700D01*
X5429599D01*
X5429099Y2301200D01*
X5434097Y2303699D02*
X5433098Y2303199D01*
X5432098Y2302200D01*
Y2301200D01*
X5432598Y2300700D01*
X5433598D01*
X5434097Y2301200D01*
Y2301700D01*
X5433598Y2302200D01*
X5432098D01*
X5277501Y2301499D02*
X5277001Y2300999D01*
Y2300000D01*
X5277501Y2299500D01*
X5279500D01*
X5280000Y2300000D01*
Y2300999D01*
X5279500Y2301499D01*
X5277001Y2304498D02*
Y2302499D01*
X5278500D01*
X5278001Y2303499D01*
Y2303999D01*
X5278500Y2304498D01*
X5279500D01*
X5280000Y2303999D01*
Y2302999D01*
X5279500Y2302499D01*
X5277001Y2305498D02*
Y2307497D01*
X5277501D01*
X5279500Y2305498D01*
X5280000D01*
X5300801Y2319999D02*
X5300301Y2319500D01*
Y2318500D01*
X5300801Y2318000D01*
X5302800D01*
X5303300Y2318500D01*
Y2319500D01*
X5302800Y2319999D01*
X5300301Y2322998D02*
Y2320999D01*
X5301801D01*
X5301301Y2321999D01*
Y2322499D01*
X5301801Y2322998D01*
X5302800D01*
X5303300Y2322499D01*
Y2321499D01*
X5302800Y2320999D01*
X5300801Y2323998D02*
X5300301Y2324498D01*
Y2325498D01*
X5300801Y2325997D01*
X5301301D01*
X5301801Y2325498D01*
X5302300Y2325997D01*
X5302800D01*
X5303300Y2325498D01*
Y2324498D01*
X5302800Y2323998D01*
X5302300D01*
X5301801Y2324498D01*
X5301301Y2323998D01*
X5300801D01*
X5301801Y2324498D02*
Y2325498D01*
X5291701Y2319899D02*
X5291201Y2319399D01*
Y2318400D01*
X5291701Y2317900D01*
X5293700D01*
X5294200Y2318400D01*
Y2319399D01*
X5293700Y2319899D01*
X5291201Y2322898D02*
Y2320899D01*
X5292701D01*
X5292201Y2321899D01*
Y2322399D01*
X5292701Y2322898D01*
X5293700D01*
X5294200Y2322399D01*
Y2321399D01*
X5293700Y2320899D01*
Y2323898D02*
X5294200Y2324398D01*
Y2325398D01*
X5293700Y2325897D01*
X5291701D01*
X5291201Y2325398D01*
Y2324398D01*
X5291701Y2323898D01*
X5292201D01*
X5292701Y2324398D01*
Y2325897D01*
X5354999Y2326499D02*
X5354499Y2326999D01*
X5353500D01*
X5353000Y2326499D01*
Y2324500D01*
X5353500Y2324000D01*
X5354499D01*
X5354999Y2324500D01*
X5357998Y2326999D02*
X5356999Y2326499D01*
X5355999Y2325500D01*
Y2324500D01*
X5356499Y2324000D01*
X5357499D01*
X5357998Y2324500D01*
Y2325000D01*
X5357499Y2325500D01*
X5355999D01*
X5358998Y2326499D02*
X5359498Y2326999D01*
X5360498D01*
X5360997Y2326499D01*
Y2324500D01*
X5360498Y2324000D01*
X5359498D01*
X5358998Y2324500D01*
Y2326499D01*
X5346201Y2317799D02*
X5345701Y2317299D01*
Y2316300D01*
X5346201Y2315800D01*
X5348200D01*
X5348700Y2316300D01*
Y2317299D01*
X5348200Y2317799D01*
X5345701Y2320798D02*
X5346201Y2319799D01*
X5347200Y2318799D01*
X5348200D01*
X5348700Y2319299D01*
Y2320299D01*
X5348200Y2320798D01*
X5347700D01*
X5347200Y2320299D01*
Y2318799D01*
X5348700Y2321798D02*
Y2322798D01*
Y2322298D01*
X5345701D01*
X5346201Y2321798D01*
X5236301Y2485099D02*
X5235801Y2484599D01*
Y2483600D01*
X5236301Y2483100D01*
X5238300D01*
X5238800Y2483600D01*
Y2484599D01*
X5238300Y2485099D01*
X5239300Y2486099D02*
Y2488098D01*
X5235801Y2489098D02*
X5238800D01*
Y2490598D01*
X5238300Y2491097D01*
X5237800D01*
X5237300Y2490598D01*
Y2489098D01*
Y2490598D01*
X5236801Y2491097D01*
X5236301D01*
X5235801Y2490598D01*
Y2489098D01*
Y2493597D02*
Y2492597D01*
X5236301Y2492097D01*
X5238300D01*
X5238800Y2492597D01*
Y2493597D01*
X5238300Y2494096D01*
X5236301D01*
X5235801Y2493597D01*
Y2496596D02*
Y2495596D01*
X5236301Y2495096D01*
X5238300D01*
X5238800Y2495596D01*
Y2496596D01*
X5238300Y2497095D01*
X5236301D01*
X5235801Y2496596D01*
Y2498095D02*
Y2500094D01*
Y2499095D01*
X5238800D01*
Y2503094D02*
Y2501094D01*
X5236801Y2503094D01*
X5236301D01*
X5235801Y2502594D01*
Y2501594D01*
X5236301Y2501094D01*
X5011200Y2425699D02*
Y2422700D01*
X5012700D01*
X5013199Y2423200D01*
Y2425199D01*
X5012700Y2425699D01*
X5011200D01*
X5014199Y2422700D02*
X5015199D01*
X5014699D01*
Y2425699D01*
X5014199Y2425199D01*
X5089500Y2402699D02*
Y2399700D01*
X5091000D01*
X5091499Y2400200D01*
Y2402199D01*
X5091000Y2402699D01*
X5089500D01*
X5094498Y2399700D02*
X5092499D01*
X5094498Y2401699D01*
Y2402199D01*
X5093999Y2402699D01*
X5092999D01*
X5092499Y2402199D01*
X5229500Y2392299D02*
Y2389300D01*
X5230999D01*
X5231499Y2389800D01*
Y2391799D01*
X5230999Y2392299D01*
X5229500D01*
X5232499Y2391799D02*
X5232999Y2392299D01*
X5233998D01*
X5234498Y2391799D01*
Y2391299D01*
X5233998Y2390800D01*
X5233499D01*
X5233998D01*
X5234498Y2390300D01*
Y2389800D01*
X5233998Y2389300D01*
X5232999D01*
X5232499Y2389800D01*
X5232300Y2334199D02*
Y2331200D01*
X5233799D01*
X5234299Y2331700D01*
Y2333699D01*
X5233799Y2334199D01*
X5232300D01*
X5236798Y2331200D02*
Y2334199D01*
X5235299Y2332700D01*
X5237299D01*
X5047800Y2329399D02*
Y2326400D01*
X5049300D01*
X5049799Y2326900D01*
Y2328899D01*
X5049300Y2329399D01*
X5047800D01*
X5052798D02*
X5050799D01*
Y2327900D01*
X5051799Y2328399D01*
X5052299D01*
X5052798Y2327900D01*
Y2326900D01*
X5052299Y2326400D01*
X5051299D01*
X5050799Y2326900D01*
X5498200Y2476299D02*
Y2473300D01*
X5499699D01*
X5500199Y2473800D01*
Y2475799D01*
X5499699Y2476299D01*
X5498200D01*
X5501199Y2472800D02*
X5503198D01*
X5504198Y2476299D02*
Y2473300D01*
X5505698D01*
X5506197Y2473800D01*
Y2474300D01*
X5505698Y2474800D01*
X5504198D01*
X5505698D01*
X5506197Y2475299D01*
Y2475799D01*
X5505698Y2476299D01*
X5504198D01*
X5508697D02*
X5507697D01*
X5507197Y2475799D01*
Y2473800D01*
X5507697Y2473300D01*
X5508697D01*
X5509196Y2473800D01*
Y2475799D01*
X5508697Y2476299D01*
X5511695D02*
X5510696D01*
X5510196Y2475799D01*
Y2473800D01*
X5510696Y2473300D01*
X5511695D01*
X5512196Y2473800D01*
Y2475799D01*
X5511695Y2476299D01*
X5513195D02*
X5515194D01*
X5514195D01*
Y2473300D01*
X5516194D02*
X5517194D01*
X5516694D01*
Y2476299D01*
X5516194Y2475799D01*
X5252100Y2475799D02*
Y2472800D01*
X5253600D01*
X5254099Y2473300D01*
Y2475299D01*
X5253600Y2475799D01*
X5252100D01*
X5255099Y2472300D02*
X5257098D01*
X5258098Y2475799D02*
Y2472800D01*
X5259598D01*
X5260098Y2473300D01*
Y2473800D01*
X5259598Y2474299D01*
X5258098D01*
X5259598D01*
X5260098Y2474799D01*
Y2475299D01*
X5259598Y2475799D01*
X5258098D01*
X5262597D02*
X5261597D01*
X5261097Y2475299D01*
Y2473300D01*
X5261597Y2472800D01*
X5262597D01*
X5263096Y2473300D01*
Y2475299D01*
X5262597Y2475799D01*
X5265596D02*
X5264596D01*
X5264096Y2475299D01*
Y2473300D01*
X5264596Y2472800D01*
X5265596D01*
X5266095Y2473300D01*
Y2475299D01*
X5265596Y2475799D01*
X5267095D02*
X5269094D01*
X5268095D01*
Y2472800D01*
X5272094D02*
X5270094D01*
X5272094Y2474799D01*
Y2475299D01*
X5271594Y2475799D01*
X5270594D01*
X5270094Y2475299D01*
X5213668Y2498233D02*
X5216667D01*
Y2499733D01*
X5216167Y2500233D01*
X5214167D01*
X5213668Y2499733D01*
Y2498233D01*
X5214167Y2503232D02*
X5213668Y2502732D01*
Y2501732D01*
X5214167Y2501232D01*
X5216167D01*
X5216667Y2501732D01*
Y2502732D01*
X5216167Y2503232D01*
X5215167D01*
Y2502232D01*
X5216667Y2504231D02*
Y2505231D01*
Y2504731D01*
X5213668D01*
X5214167Y2504231D01*
X5483399Y2512400D02*
X5480400D01*
Y2510900D01*
X5480900Y2510401D01*
X5482899D01*
X5483399Y2510900D01*
Y2512400D01*
X5482899Y2507402D02*
X5483399Y2507902D01*
Y2508901D01*
X5482899Y2509401D01*
X5480900D01*
X5480400Y2508901D01*
Y2507902D01*
X5480900Y2507402D01*
X5481900D01*
Y2508401D01*
X5480400Y2504403D02*
Y2506402D01*
X5482399Y2504403D01*
X5482899D01*
X5483399Y2504902D01*
Y2505902D01*
X5482899Y2506402D01*
X5301301Y2496800D02*
X5304300D01*
Y2498299D01*
X5303800Y2498799D01*
X5301801D01*
X5301301Y2498299D01*
Y2496800D01*
X5301801Y2501798D02*
X5301301Y2501299D01*
Y2500299D01*
X5301801Y2499799D01*
X5303800D01*
X5304300Y2500299D01*
Y2501299D01*
X5303800Y2501798D01*
X5302800D01*
Y2500799D01*
X5301801Y2502798D02*
X5301301Y2503298D01*
Y2504298D01*
X5301801Y2504797D01*
X5302301D01*
X5302800Y2504298D01*
Y2503798D01*
Y2504298D01*
X5303300Y2504797D01*
X5303800D01*
X5304300Y2504298D01*
Y2503298D01*
X5303800Y2502798D01*
X5569567Y2498533D02*
X5572567D01*
Y2500033D01*
X5572067Y2500533D01*
X5570068D01*
X5569567Y2500033D01*
Y2498533D01*
X5570068Y2503532D02*
X5569567Y2503032D01*
Y2502032D01*
X5570068Y2501532D01*
X5572067D01*
X5572567Y2502032D01*
Y2503032D01*
X5572067Y2503532D01*
X5571067D01*
Y2502532D01*
X5572567Y2506031D02*
X5569567D01*
X5571067Y2504531D01*
Y2506531D01*
X5011899Y2543599D02*
X5010900D01*
X5011399D01*
Y2541100D01*
X5010900Y2540600D01*
X5010400D01*
X5009900Y2541100D01*
X5012899Y2540600D02*
X5013899D01*
X5013399D01*
Y2543599D01*
X5012899Y2543099D01*
X5440099Y2607699D02*
X5439100D01*
X5439600D01*
Y2605200D01*
X5439100Y2604700D01*
X5438600D01*
X5438100Y2605200D01*
X5443098Y2604700D02*
X5441099D01*
X5443098Y2606699D01*
Y2607199D01*
X5442599Y2607699D01*
X5441599D01*
X5441099Y2607199D01*
X5304799Y2606399D02*
X5303800D01*
X5304300D01*
Y2603900D01*
X5303800Y2603400D01*
X5303300D01*
X5302800Y2603900D01*
X5305799Y2605899D02*
X5306299Y2606399D01*
X5307299D01*
X5307798Y2605899D01*
Y2605399D01*
X5307299Y2604899D01*
X5306799D01*
X5307299D01*
X5307798Y2604400D01*
Y2603900D01*
X5307299Y2603400D01*
X5306299D01*
X5305799Y2603900D01*
X4929499Y2433499D02*
X4928500D01*
X4928999D01*
Y2431000D01*
X4928500Y2430500D01*
X4928000D01*
X4927500Y2431000D01*
X4931998Y2430500D02*
Y2433499D01*
X4930499Y2432000D01*
X4932499D01*
X5325500Y2361699D02*
Y2358700D01*
X5327499D01*
X5328499D02*
X5329499D01*
X5328999D01*
Y2361699D01*
X5328499Y2361199D01*
X5319201Y2375300D02*
X5322200D01*
Y2377299D01*
Y2380298D02*
Y2378299D01*
X5320201Y2380298D01*
X5319701D01*
X5319201Y2379799D01*
Y2378799D01*
X5319701Y2378299D01*
X5331800Y2335999D02*
Y2333000D01*
X5333799D01*
X5334799Y2335499D02*
X5335299Y2335999D01*
X5336299D01*
X5336798Y2335499D01*
Y2334999D01*
X5336299Y2334500D01*
X5335799D01*
X5336299D01*
X5336798Y2334000D01*
Y2333500D01*
X5336299Y2333000D01*
X5335299D01*
X5334799Y2333500D01*
X5372499Y2329100D02*
X5369500D01*
Y2327101D01*
Y2324602D02*
X5372499D01*
X5371000Y2326101D01*
Y2324102D01*
X5395801Y2330300D02*
X5398800D01*
Y2332299D01*
X5395801Y2335298D02*
Y2333299D01*
X5397300D01*
X5396801Y2334299D01*
Y2334798D01*
X5397300Y2335298D01*
X5398300D01*
X5398800Y2334798D01*
Y2333799D01*
X5398300Y2333299D01*
X5424682Y2328563D02*
X5421683D01*
Y2326563D01*
X5424682Y2323564D02*
X5424182Y2324564D01*
X5423183Y2325563D01*
X5422183D01*
X5421683Y2325064D01*
Y2324064D01*
X5422183Y2323564D01*
X5422683D01*
X5423183Y2324064D01*
Y2325563D01*
X5386500Y2315199D02*
Y2312200D01*
X5388499D01*
X5389499Y2315199D02*
X5391499D01*
Y2314699D01*
X5389499Y2312700D01*
Y2312200D01*
X5235501Y2345400D02*
X5238500D01*
Y2347399D01*
Y2348399D02*
X5235501D01*
X5236501Y2349399D01*
X5235501Y2350398D01*
X5238500D01*
Y2351398D02*
Y2352398D01*
Y2351898D01*
X5235501D01*
X5236001Y2351398D01*
X5476300Y2373199D02*
Y2370200D01*
X5478299D01*
X5481298Y2372699D02*
X5480799Y2373199D01*
X5479799D01*
X5479299Y2372699D01*
Y2372199D01*
X5479799Y2371700D01*
X5480799D01*
X5481298Y2371200D01*
Y2370700D01*
X5480799Y2370200D01*
X5479799D01*
X5479299Y2370700D01*
X5482298Y2370200D02*
X5483298D01*
X5482798D01*
Y2373199D01*
X5482298Y2372699D01*
X5424100Y2617700D02*
Y2620699D01*
X5425100Y2619699D01*
X5426099Y2620699D01*
Y2617700D01*
X5427099D02*
X5428099D01*
X5427599D01*
Y2620699D01*
X5427099Y2620199D01*
X5229200Y2620500D02*
Y2623499D01*
X5230200Y2622499D01*
X5231199Y2623499D01*
Y2620500D01*
X5234198D02*
X5232199D01*
X5234198Y2622499D01*
Y2622999D01*
X5233699Y2623499D01*
X5232699D01*
X5232199Y2622999D01*
X5525000Y2619500D02*
Y2622499D01*
X5526000Y2621499D01*
X5526999Y2622499D01*
Y2619500D01*
X5527999Y2621999D02*
X5528499Y2622499D01*
X5529499D01*
X5529998Y2621999D01*
Y2621499D01*
X5529499Y2621000D01*
X5528999D01*
X5529499D01*
X5529998Y2620500D01*
Y2620000D01*
X5529499Y2619500D01*
X5528499D01*
X5527999Y2620000D01*
X5337300Y2621400D02*
Y2624399D01*
X5338300Y2623399D01*
X5339299Y2624399D01*
Y2621400D01*
X5341799D02*
Y2624399D01*
X5340299Y2622899D01*
X5342299D01*
X5074800Y2377900D02*
Y2380899D01*
X5075800Y2379899D01*
X5076799Y2380899D01*
Y2377900D01*
X5079799Y2380899D02*
X5077799D01*
Y2379399D01*
X5078799Y2379899D01*
X5079299D01*
X5079799Y2379399D01*
Y2378400D01*
X5079299Y2377900D01*
X5078299D01*
X5077799Y2378400D01*
X5595100Y2448400D02*
Y2451399D01*
X5596600D01*
X5597099Y2450899D01*
Y2449899D01*
X5596600Y2449400D01*
X5595100D01*
X5600098Y2448400D02*
X5598099D01*
X5600098Y2450399D01*
Y2450899D01*
X5599599Y2451399D01*
X5598599D01*
X5598099Y2450899D01*
X5585700Y2406200D02*
X5582701D01*
Y2407700D01*
X5583201Y2408199D01*
X5584201D01*
X5584700Y2407700D01*
Y2406200D01*
X5583201Y2409199D02*
X5582701Y2409699D01*
Y2410699D01*
X5583201Y2411198D01*
X5583701D01*
X5584201Y2410699D01*
Y2410199D01*
Y2410699D01*
X5584700Y2411198D01*
X5585200D01*
X5585700Y2410699D01*
Y2409699D01*
X5585200Y2409199D01*
X5587200Y2326600D02*
X5584201D01*
Y2328099D01*
X5584701Y2328599D01*
X5585701D01*
X5586200Y2328099D01*
Y2326600D01*
X5587200Y2331099D02*
X5584201D01*
X5585701Y2329599D01*
Y2331598D01*
X5307300Y2370000D02*
Y2372999D01*
X5308799D01*
X5309299Y2372499D01*
Y2371499D01*
X5308799Y2371000D01*
X5307300D01*
X5312299Y2372999D02*
X5310299D01*
Y2371499D01*
X5311299Y2371999D01*
X5311798D01*
X5312299Y2371499D01*
Y2370500D01*
X5311798Y2370000D01*
X5310799D01*
X5310299Y2370500D01*
X5596200Y2389000D02*
Y2391999D01*
X5597699D01*
X5598199Y2391499D01*
Y2390499D01*
X5597699Y2390000D01*
X5596200D01*
X5601199Y2391999D02*
X5600199Y2391499D01*
X5599199Y2390499D01*
Y2389500D01*
X5599699Y2389000D01*
X5600698D01*
X5601199Y2389500D01*
Y2390000D01*
X5600698Y2390499D01*
X5599199D01*
X5461400Y2307400D02*
Y2310399D01*
X5462899D01*
X5463399Y2309899D01*
Y2308899D01*
X5462899Y2308400D01*
X5461400D01*
X5464399Y2310399D02*
X5466398D01*
Y2309899D01*
X5464399Y2307900D01*
Y2307400D01*
X5563000Y2329200D02*
X5565999D01*
Y2327700D01*
X5565499Y2327201D01*
X5564500D01*
X5564000Y2327700D01*
Y2329200D01*
X5565499Y2324202D02*
X5565999Y2324701D01*
Y2325701D01*
X5565499Y2326201D01*
X5563500D01*
X5563000Y2325701D01*
Y2324701D01*
X5563500Y2324202D01*
X5563000Y2323202D02*
Y2322202D01*
Y2322702D01*
X5565999D01*
X5565499Y2323202D01*
X5157700Y2444200D02*
Y2447199D01*
X5159200D01*
X5159699Y2446699D01*
Y2445700D01*
X5159200Y2445200D01*
X5157700D01*
X5158700D02*
X5159699Y2444200D01*
X5160699D02*
X5161699D01*
X5161199D01*
Y2447199D01*
X5160699Y2446699D01*
X5156800Y2559100D02*
Y2562099D01*
X5158300D01*
X5158799Y2561599D01*
Y2560600D01*
X5158300Y2560100D01*
X5156800D01*
X5157800D02*
X5158799Y2559100D01*
X5161798D02*
X5159799D01*
X5161798Y2561099D01*
Y2561599D01*
X5161299Y2562099D01*
X5160299D01*
X5159799Y2561599D01*
X5464500Y2504600D02*
X5467499D01*
Y2503101D01*
X5466999Y2502601D01*
X5466000D01*
X5465500Y2503101D01*
Y2504600D01*
Y2503600D02*
X5464500Y2502601D01*
X5466999Y2501601D02*
X5467499Y2501101D01*
Y2500101D01*
X5466999Y2499602D01*
X5466499D01*
X5466000Y2500101D01*
Y2500601D01*
Y2500101D01*
X5465500Y2499602D01*
X5465000D01*
X5464500Y2500101D01*
Y2501101D01*
X5465000Y2501601D01*
X5232400Y2464800D02*
X5229401D01*
Y2466299D01*
X5229901Y2466799D01*
X5230901D01*
X5231400Y2466299D01*
Y2464800D01*
Y2465800D02*
X5232400Y2466799D01*
Y2469299D02*
X5229401D01*
X5230901Y2467799D01*
Y2469798D01*
X5218500Y2617400D02*
Y2620399D01*
X5219999D01*
X5220499Y2619899D01*
Y2618900D01*
X5219999Y2618400D01*
X5218500D01*
X5219500D02*
X5220499Y2617400D01*
X5223499Y2620399D02*
X5222499Y2619899D01*
X5221499Y2618900D01*
Y2617900D01*
X5221999Y2617400D01*
X5222998D01*
X5223499Y2617900D01*
Y2618400D01*
X5222998Y2618900D01*
X5221499D01*
X5171300Y2402100D02*
X5168301D01*
Y2403600D01*
X5168801Y2404099D01*
X5169801D01*
X5170300Y2403600D01*
Y2402100D01*
Y2403100D02*
X5171300Y2404099D01*
X5168301Y2405099D02*
Y2407098D01*
X5168801D01*
X5170800Y2405099D01*
X5171300D01*
X5160900Y2403000D02*
X5157901D01*
Y2404499D01*
X5158401Y2404999D01*
X5159401D01*
X5159900Y2404499D01*
Y2403000D01*
Y2404000D02*
X5160900Y2404999D01*
X5158401Y2405999D02*
X5157901Y2406499D01*
Y2407499D01*
X5158401Y2407998D01*
X5158901D01*
X5159401Y2407499D01*
X5159900Y2407998D01*
X5160400D01*
X5160900Y2407499D01*
Y2406499D01*
X5160400Y2405999D01*
X5159900D01*
X5159401Y2406499D01*
X5158901Y2405999D01*
X5158401D01*
X5159401Y2406499D02*
Y2407499D01*
X5555500Y2503300D02*
X5552501D01*
Y2504799D01*
X5553001Y2505299D01*
X5554000D01*
X5554500Y2504799D01*
Y2503300D01*
Y2504300D02*
X5555500Y2505299D01*
X5555000Y2506299D02*
X5555500Y2506799D01*
Y2507799D01*
X5555000Y2508298D01*
X5553001D01*
X5552501Y2507799D01*
Y2506799D01*
X5553001Y2506299D01*
X5553501D01*
X5554000Y2506799D01*
Y2508298D01*
X5296600Y2490700D02*
Y2493699D01*
X5298100D01*
X5298599Y2493199D01*
Y2492200D01*
X5298100Y2491700D01*
X5296600D01*
X5297600D02*
X5298599Y2490700D01*
X5299599D02*
X5300599D01*
X5300099D01*
Y2493699D01*
X5299599Y2493199D01*
X5302098D02*
X5302598Y2493699D01*
X5303598D01*
X5304098Y2493199D01*
Y2491200D01*
X5303598Y2490700D01*
X5302598D01*
X5302098Y2491200D01*
Y2493199D01*
X5211600Y2442000D02*
Y2444999D01*
X5213100D01*
X5213599Y2444499D01*
Y2443500D01*
X5213100Y2443000D01*
X5211600D01*
X5212600D02*
X5213599Y2442000D01*
X5214599D02*
X5215599D01*
X5215099D01*
Y2444999D01*
X5214599Y2444499D01*
X5217098D02*
X5217598Y2444999D01*
X5218598D01*
X5219098Y2444499D01*
Y2443999D01*
X5218598Y2443500D01*
X5218098D01*
X5218598D01*
X5219098Y2443000D01*
Y2442500D01*
X5218598Y2442000D01*
X5217598D01*
X5217098Y2442500D01*
X5227100Y2425600D02*
Y2428599D01*
X5228600D01*
X5229099Y2428099D01*
Y2427099D01*
X5228600Y2426600D01*
X5227100D01*
X5228100D02*
X5229099Y2425600D01*
X5230099D02*
X5231099D01*
X5230599D01*
Y2428599D01*
X5230099Y2428099D01*
X5234098Y2425600D02*
Y2428599D01*
X5232598Y2427099D01*
X5234598D01*
X5510200Y2422400D02*
Y2425399D01*
X5511700D01*
X5512199Y2424899D01*
Y2423899D01*
X5511700Y2423400D01*
X5510200D01*
X5511200D02*
X5512199Y2422400D01*
X5513199D02*
X5514199D01*
X5513699D01*
Y2425399D01*
X5513199Y2424899D01*
X5517698Y2425399D02*
X5515698D01*
Y2423899D01*
X5516698Y2424399D01*
X5517198D01*
X5517698Y2423899D01*
Y2422900D01*
X5517198Y2422400D01*
X5516198D01*
X5515698Y2422900D01*
X5038200Y2412800D02*
X5035201D01*
Y2414300D01*
X5035701Y2414799D01*
X5036700D01*
X5037200Y2414300D01*
Y2412800D01*
Y2413800D02*
X5038200Y2414799D01*
Y2415799D02*
Y2416799D01*
Y2416299D01*
X5035201D01*
X5035701Y2415799D01*
X5035201Y2420298D02*
X5035701Y2419298D01*
X5036700Y2418298D01*
X5037700D01*
X5038200Y2418798D01*
Y2419798D01*
X5037700Y2420298D01*
X5037200D01*
X5036700Y2419798D01*
Y2418298D01*
X5060500Y2413900D02*
X5057501D01*
Y2415400D01*
X5058001Y2415899D01*
X5059000D01*
X5059500Y2415400D01*
Y2413900D01*
Y2414900D02*
X5060500Y2415899D01*
Y2416899D02*
Y2417899D01*
Y2417399D01*
X5057501D01*
X5058001Y2416899D01*
X5057501Y2419398D02*
Y2421398D01*
X5058001D01*
X5060000Y2419398D01*
X5060500D01*
X5120400Y2367300D02*
X5117401D01*
Y2368800D01*
X5117901Y2369299D01*
X5118901D01*
X5119400Y2368800D01*
Y2367300D01*
Y2368300D02*
X5120400Y2369299D01*
Y2372298D02*
Y2370299D01*
X5118401Y2372298D01*
X5117901D01*
X5117401Y2371799D01*
Y2370799D01*
X5117901Y2370299D01*
Y2373298D02*
X5117401Y2373798D01*
Y2374798D01*
X5117901Y2375297D01*
X5119900D01*
X5120400Y2374798D01*
Y2373798D01*
X5119900Y2373298D01*
X5117901D01*
X5104400Y2353300D02*
Y2356299D01*
X5105899D01*
X5106399Y2355799D01*
Y2354799D01*
X5105899Y2354300D01*
X5104400D01*
X5105400D02*
X5106399Y2353300D01*
X5109398D02*
X5107399D01*
X5109398Y2355299D01*
Y2355799D01*
X5108899Y2356299D01*
X5107899D01*
X5107399Y2355799D01*
X5110398Y2353300D02*
X5111398D01*
X5110898D01*
Y2356299D01*
X5110398Y2355799D01*
X5120500Y2377200D02*
X5117501D01*
Y2378699D01*
X5118001Y2379199D01*
X5119001D01*
X5119500Y2378699D01*
Y2377200D01*
Y2378200D02*
X5120500Y2379199D01*
Y2382198D02*
Y2380199D01*
X5118501Y2382198D01*
X5118001D01*
X5117501Y2381698D01*
Y2380699D01*
X5118001Y2380199D01*
X5120500Y2385197D02*
Y2383198D01*
X5118501Y2385197D01*
X5118001D01*
X5117501Y2384698D01*
Y2383698D01*
X5118001Y2383198D01*
X5421400Y2456200D02*
Y2459199D01*
X5422900D01*
X5423399Y2458699D01*
Y2457700D01*
X5422900Y2457200D01*
X5421400D01*
X5422400D02*
X5423399Y2456200D01*
X5426398D02*
X5424399D01*
X5426398Y2458199D01*
Y2458699D01*
X5425899Y2459199D01*
X5424899D01*
X5424399Y2458699D01*
X5427398D02*
X5427898Y2459199D01*
X5428897D01*
X5429398Y2458699D01*
Y2458199D01*
X5428897Y2457700D01*
X5428398D01*
X5428897D01*
X5429398Y2457200D01*
Y2456700D01*
X5428897Y2456200D01*
X5427898D01*
X5427398Y2456700D01*
X5375500Y2441407D02*
X5372501D01*
Y2442907D01*
X5373001Y2443406D01*
X5374001D01*
X5374500Y2442907D01*
Y2441407D01*
Y2442407D02*
X5375500Y2443406D01*
Y2446405D02*
Y2444406D01*
X5373501Y2446405D01*
X5373001D01*
X5372501Y2445906D01*
Y2444906D01*
X5373001Y2444406D01*
X5372501Y2449405D02*
Y2447405D01*
X5374001D01*
X5373501Y2448405D01*
Y2448905D01*
X5374001Y2449405D01*
X5375000D01*
X5375500Y2448905D01*
Y2447905D01*
X5375000Y2447405D01*
X5057800Y2366000D02*
Y2368999D01*
X5059299D01*
X5059799Y2368499D01*
Y2367500D01*
X5059299Y2367000D01*
X5057800D01*
X5058800D02*
X5059799Y2366000D01*
X5062798D02*
X5060799D01*
X5062798Y2367999D01*
Y2368499D01*
X5062299Y2368999D01*
X5061299D01*
X5060799Y2368499D01*
X5065797Y2368999D02*
X5064798Y2368499D01*
X5063798Y2367500D01*
Y2366500D01*
X5064298Y2366000D01*
X5065298D01*
X5065797Y2366500D01*
Y2367000D01*
X5065298Y2367500D01*
X5063798D01*
X5346100Y2419800D02*
Y2422799D01*
X5347599D01*
X5348099Y2422299D01*
Y2421300D01*
X5347599Y2420800D01*
X5346100D01*
X5347100D02*
X5348099Y2419800D01*
X5351098D02*
X5349099D01*
X5351098Y2421799D01*
Y2422299D01*
X5350599Y2422799D01*
X5349599D01*
X5349099Y2422299D01*
X5352098Y2422799D02*
X5354097D01*
Y2422299D01*
X5352098Y2420300D01*
Y2419800D01*
X5045200Y2342900D02*
X5042201D01*
Y2344399D01*
X5042701Y2344899D01*
X5043700D01*
X5044200Y2344399D01*
Y2342900D01*
Y2343900D02*
X5045200Y2344899D01*
Y2347898D02*
Y2345899D01*
X5043201Y2347898D01*
X5042701D01*
X5042201Y2347399D01*
Y2346399D01*
X5042701Y2345899D01*
Y2348898D02*
X5042201Y2349398D01*
Y2350398D01*
X5042701Y2350897D01*
X5043201D01*
X5043700Y2350398D01*
X5044200Y2350897D01*
X5044700D01*
X5045200Y2350398D01*
Y2349398D01*
X5044700Y2348898D01*
X5044200D01*
X5043700Y2349398D01*
X5043201Y2348898D01*
X5042701D01*
X5043700Y2349398D02*
Y2350398D01*
X5060300Y2342900D02*
X5057301D01*
Y2344399D01*
X5057801Y2344899D01*
X5058801D01*
X5059300Y2344399D01*
Y2342900D01*
Y2343900D02*
X5060300Y2344899D01*
Y2347898D02*
Y2345899D01*
X5058301Y2347898D01*
X5057801D01*
X5057301Y2347399D01*
Y2346399D01*
X5057801Y2345899D01*
X5059800Y2348898D02*
X5060300Y2349398D01*
Y2350398D01*
X5059800Y2350897D01*
X5057801D01*
X5057301Y2350398D01*
Y2349398D01*
X5057801Y2348898D01*
X5058301D01*
X5058801Y2349398D01*
Y2350897D01*
X5365900Y2348200D02*
X5362901D01*
Y2349700D01*
X5363401Y2350199D01*
X5364400D01*
X5364900Y2349700D01*
Y2348200D01*
Y2349200D02*
X5365900Y2350199D01*
X5363401Y2351199D02*
X5362901Y2351699D01*
Y2352699D01*
X5363401Y2353198D01*
X5363901D01*
X5364400Y2352699D01*
Y2352199D01*
Y2352699D01*
X5364900Y2353198D01*
X5365400D01*
X5365900Y2352699D01*
Y2351699D01*
X5365400Y2351199D01*
X5363401Y2354198D02*
X5362901Y2354698D01*
Y2355698D01*
X5363401Y2356197D01*
X5365400D01*
X5365900Y2355698D01*
Y2354698D01*
X5365400Y2354198D01*
X5363401D01*
X5004200Y2382000D02*
Y2384999D01*
X5005700D01*
X5006199Y2384499D01*
Y2383500D01*
X5005700Y2383000D01*
X5004200D01*
X5005200D02*
X5006199Y2382000D01*
X5007199Y2384499D02*
X5007699Y2384999D01*
X5008699D01*
X5009198Y2384499D01*
Y2383999D01*
X5008699Y2383500D01*
X5008199D01*
X5008699D01*
X5009198Y2383000D01*
Y2382500D01*
X5008699Y2382000D01*
X5007699D01*
X5007199Y2382500D01*
X5010198Y2382000D02*
X5011198D01*
X5010698D01*
Y2384999D01*
X5010198Y2384499D01*
X5118500Y2420400D02*
Y2423399D01*
X5119999D01*
X5120499Y2422899D01*
Y2421899D01*
X5119999Y2421400D01*
X5118500D01*
X5119500D02*
X5120499Y2420400D01*
X5121499Y2422899D02*
X5121999Y2423399D01*
X5122998D01*
X5123499Y2422899D01*
Y2422399D01*
X5122998Y2421899D01*
X5122499D01*
X5122998D01*
X5123499Y2421400D01*
Y2420900D01*
X5122998Y2420400D01*
X5121999D01*
X5121499Y2420900D01*
X5126497Y2420400D02*
X5124498D01*
X5126497Y2422399D01*
Y2422899D01*
X5125998Y2423399D01*
X5124998D01*
X5124498Y2422899D01*
X5001500Y2340800D02*
Y2343799D01*
X5002999D01*
X5003499Y2343299D01*
Y2342299D01*
X5002999Y2341800D01*
X5001500D01*
X5002500D02*
X5003499Y2340800D01*
X5004499Y2343299D02*
X5004999Y2343799D01*
X5005999D01*
X5006498Y2343299D01*
Y2342799D01*
X5005999Y2342299D01*
X5005499D01*
X5005999D01*
X5006498Y2341800D01*
Y2341300D01*
X5005999Y2340800D01*
X5004999D01*
X5004499Y2341300D01*
X5007498Y2343299D02*
X5007998Y2343799D01*
X5008998D01*
X5009497Y2343299D01*
Y2342799D01*
X5008998Y2342299D01*
X5008498D01*
X5008998D01*
X5009497Y2341800D01*
Y2341300D01*
X5008998Y2340800D01*
X5007998D01*
X5007498Y2341300D01*
X4989100Y2383700D02*
X4992099D01*
Y2382200D01*
X4991599Y2381701D01*
X4990599D01*
X4990100Y2382200D01*
Y2383700D01*
Y2382700D02*
X4989100Y2381701D01*
X4991599Y2380701D02*
X4992099Y2380201D01*
Y2379202D01*
X4991599Y2378702D01*
X4991099D01*
X4990599Y2379202D01*
Y2379701D01*
Y2379202D01*
X4990100Y2378702D01*
X4989600D01*
X4989100Y2379202D01*
Y2380201D01*
X4989600Y2380701D01*
X4989100Y2376202D02*
X4992099D01*
X4990599Y2377702D01*
Y2375703D01*
X5366400Y2370800D02*
X5363401D01*
Y2372300D01*
X5363901Y2372799D01*
X5364901D01*
X5365400Y2372300D01*
Y2370800D01*
Y2371800D02*
X5366400Y2372799D01*
X5363901Y2373799D02*
X5363401Y2374299D01*
Y2375299D01*
X5363901Y2375798D01*
X5364401D01*
X5364901Y2375299D01*
Y2374799D01*
Y2375299D01*
X5365400Y2375798D01*
X5365900D01*
X5366400Y2375299D01*
Y2374299D01*
X5365900Y2373799D01*
X5363401Y2378797D02*
Y2376798D01*
X5364901D01*
X5364401Y2377798D01*
Y2378298D01*
X5364901Y2378797D01*
X5365900D01*
X5366400Y2378298D01*
Y2377298D01*
X5365900Y2376798D01*
X5101100Y2290800D02*
X5098101D01*
Y2292299D01*
X5098601Y2292799D01*
X5099601D01*
X5100100Y2292299D01*
Y2290800D01*
Y2291800D02*
X5101100Y2292799D01*
X5098601Y2293799D02*
X5098101Y2294299D01*
Y2295299D01*
X5098601Y2295798D01*
X5099101D01*
X5099601Y2295299D01*
Y2294799D01*
Y2295299D01*
X5100100Y2295798D01*
X5100600D01*
X5101100Y2295299D01*
Y2294299D01*
X5100600Y2293799D01*
X5098101Y2298797D02*
X5098601Y2297798D01*
X5099601Y2296798D01*
X5100600D01*
X5101100Y2297298D01*
Y2298298D01*
X5100600Y2298797D01*
X5100100D01*
X5099601Y2298298D01*
Y2296798D01*
X5092500Y2291200D02*
X5089501D01*
Y2292699D01*
X5090001Y2293199D01*
X5091000D01*
X5091500Y2292699D01*
Y2291200D01*
Y2292200D02*
X5092500Y2293199D01*
X5090001Y2294199D02*
X5089501Y2294699D01*
Y2295699D01*
X5090001Y2296198D01*
X5090501D01*
X5091000Y2295699D01*
Y2295199D01*
Y2295699D01*
X5091500Y2296198D01*
X5092000D01*
X5092500Y2295699D01*
Y2294699D01*
X5092000Y2294199D01*
X5089501Y2297198D02*
Y2299197D01*
X5090001D01*
X5092000Y2297198D01*
X5092500D01*
X5083600Y2291100D02*
X5080601D01*
Y2292599D01*
X5081101Y2293099D01*
X5082101D01*
X5082600Y2292599D01*
Y2291100D01*
Y2292100D02*
X5083600Y2293099D01*
X5081101Y2294099D02*
X5080601Y2294599D01*
Y2295598D01*
X5081101Y2296098D01*
X5081601D01*
X5082101Y2295598D01*
Y2295099D01*
Y2295598D01*
X5082600Y2296098D01*
X5083100D01*
X5083600Y2295598D01*
Y2294599D01*
X5083100Y2294099D01*
X5081101Y2297098D02*
X5080601Y2297598D01*
Y2298598D01*
X5081101Y2299097D01*
X5081601D01*
X5082101Y2298598D01*
X5082600Y2299097D01*
X5083100D01*
X5083600Y2298598D01*
Y2297598D01*
X5083100Y2297098D01*
X5082600D01*
X5082101Y2297598D01*
X5081601Y2297098D01*
X5081101D01*
X5082101Y2297598D02*
Y2298598D01*
X5066600Y2301400D02*
X5063601D01*
Y2302900D01*
X5064101Y2303399D01*
X5065100D01*
X5065600Y2302900D01*
Y2301400D01*
Y2302400D02*
X5066600Y2303399D01*
X5064101Y2304399D02*
X5063601Y2304899D01*
Y2305898D01*
X5064101Y2306398D01*
X5064601D01*
X5065100Y2305898D01*
Y2305399D01*
Y2305898D01*
X5065600Y2306398D01*
X5066100D01*
X5066600Y2305898D01*
Y2304899D01*
X5066100Y2304399D01*
Y2307398D02*
X5066600Y2307898D01*
Y2308898D01*
X5066100Y2309397D01*
X5064101D01*
X5063601Y2308898D01*
Y2307898D01*
X5064101Y2307398D01*
X5064601D01*
X5065100Y2307898D01*
Y2309397D01*
X4989100Y2367400D02*
X4992099D01*
Y2365900D01*
X4991599Y2365401D01*
X4990599D01*
X4990100Y2365900D01*
Y2367400D01*
Y2366400D02*
X4989100Y2365401D01*
Y2362901D02*
X4992099D01*
X4990599Y2364401D01*
Y2362402D01*
X4991599Y2361402D02*
X4992099Y2360902D01*
Y2359902D01*
X4991599Y2359403D01*
X4989600D01*
X4989100Y2359902D01*
Y2360902D01*
X4989600Y2361402D01*
X4991599D01*
X5138700Y2419600D02*
Y2422599D01*
X5140200D01*
X5140699Y2422099D01*
Y2421099D01*
X5140200Y2420600D01*
X5138700D01*
X5139700D02*
X5140699Y2419600D01*
X5143199D02*
Y2422599D01*
X5141699Y2421099D01*
X5143699D01*
X5144698Y2419600D02*
X5145698D01*
X5145198D01*
Y2422599D01*
X5144698Y2422099D01*
X5367000Y2337700D02*
X5364001D01*
Y2339199D01*
X5364501Y2339699D01*
X5365501D01*
X5366000Y2339199D01*
Y2337700D01*
Y2338700D02*
X5367000Y2339699D01*
Y2342199D02*
X5364001D01*
X5365501Y2340699D01*
Y2342698D01*
X5367000Y2345697D02*
Y2343698D01*
X5365001Y2345697D01*
X5364501D01*
X5364001Y2345198D01*
Y2344198D01*
X5364501Y2343698D01*
X5541300Y2340600D02*
X5538301D01*
Y2342100D01*
X5538801Y2342599D01*
X5539801D01*
X5540300Y2342100D01*
Y2340600D01*
Y2341600D02*
X5541300Y2342599D01*
Y2345098D02*
X5538301D01*
X5539801Y2343599D01*
Y2345598D01*
X5538801Y2346598D02*
X5538301Y2347098D01*
Y2348098D01*
X5538801Y2348597D01*
X5539301D01*
X5539801Y2348098D01*
Y2347598D01*
Y2348098D01*
X5540300Y2348597D01*
X5540800D01*
X5541300Y2348098D01*
Y2347098D01*
X5540800Y2346598D01*
X5446800Y2300900D02*
Y2303899D01*
X5448299D01*
X5448799Y2303399D01*
Y2302399D01*
X5448299Y2301900D01*
X5446800D01*
X5447800D02*
X5448799Y2300900D01*
X5451299D02*
Y2303899D01*
X5449799Y2302399D01*
X5451798D01*
X5454298Y2300900D02*
Y2303899D01*
X5452798Y2302399D01*
X5454797D01*
X5133200Y2399999D02*
X5135199D01*
X5134200D01*
Y2397000D01*
X5136199D02*
X5137199D01*
X5136699D01*
Y2399999D01*
X5136199Y2399499D01*
X5224700Y2457099D02*
Y2454600D01*
X5225200Y2454100D01*
X5226199D01*
X5226699Y2454600D01*
Y2457099D01*
X5227699Y2454100D02*
X5228699D01*
X5228199D01*
Y2457099D01*
X5227699Y2456599D01*
X5198400Y2439799D02*
Y2437300D01*
X5198900Y2436800D01*
X5199900D01*
X5200399Y2437300D01*
Y2439799D01*
X5203399Y2436800D02*
X5201399D01*
X5203399Y2438799D01*
Y2439299D01*
X5202899Y2439799D01*
X5201899D01*
X5201399Y2439299D01*
X5481001Y2445700D02*
X5483500D01*
X5484000Y2446200D01*
Y2447199D01*
X5483500Y2447699D01*
X5481001D01*
X5481501Y2448699D02*
X5481001Y2449199D01*
Y2450199D01*
X5481501Y2450698D01*
X5482001D01*
X5482500Y2450199D01*
Y2449699D01*
Y2450199D01*
X5483000Y2450698D01*
X5483500D01*
X5484000Y2450199D01*
Y2449199D01*
X5483500Y2448699D01*
X5374300Y2520499D02*
Y2518000D01*
X5374800Y2517500D01*
X5375800D01*
X5376299Y2518000D01*
Y2520499D01*
X5378799Y2517500D02*
Y2520499D01*
X5377299Y2518999D01*
X5379298D01*
X5023300Y2378799D02*
Y2376300D01*
X5023800Y2375800D01*
X5024799D01*
X5025299Y2376300D01*
Y2378799D01*
X5028299D02*
X5026299D01*
Y2377299D01*
X5027299Y2377799D01*
X5027798D01*
X5028299Y2377299D01*
Y2376300D01*
X5027798Y2375800D01*
X5026799D01*
X5026299Y2376300D01*
X5537700Y2373599D02*
Y2371100D01*
X5538200Y2370600D01*
X5539199D01*
X5539699Y2371100D01*
Y2373599D01*
X5542698D02*
X5541699Y2373099D01*
X5540699Y2372099D01*
Y2371100D01*
X5541199Y2370600D01*
X5542199D01*
X5542698Y2371100D01*
Y2371600D01*
X5542199Y2372099D01*
X5540699D01*
X5325100Y2322099D02*
Y2319600D01*
X5325600Y2319100D01*
X5326600D01*
X5327099Y2319600D01*
Y2322099D01*
X5328099D02*
X5330098D01*
Y2321599D01*
X5328099Y2319600D01*
Y2319100D01*
X5436000Y2368499D02*
X5437999Y2365500D01*
Y2368499D02*
X5436000Y2365500D01*
X5438999D02*
X5439999D01*
X5439499D01*
Y2368499D01*
X5438999Y2367999D01*
X5367200Y2425899D02*
Y2422900D01*
Y2424400D01*
X5369199D01*
Y2425899D01*
Y2422900D01*
X5370199Y2425899D02*
X5372198D01*
X5371199D01*
Y2422900D01*
X5373198D02*
X5374198D01*
X5373698D01*
Y2425899D01*
X5373198Y2425399D01*
X5481501Y2480899D02*
X5481001Y2480400D01*
Y2479400D01*
X5481501Y2478900D01*
X5483500D01*
X5484000Y2479400D01*
Y2480400D01*
X5483500Y2480899D01*
X5484500Y2481899D02*
Y2483898D01*
X5481001Y2484898D02*
X5484000D01*
Y2486398D01*
X5483500Y2486897D01*
X5483000D01*
X5482500Y2486398D01*
Y2484898D01*
Y2486398D01*
X5482001Y2486897D01*
X5481501D01*
X5481001Y2486398D01*
Y2484898D01*
Y2489397D02*
Y2488397D01*
X5481501Y2487897D01*
X5483500D01*
X5484000Y2488397D01*
Y2489397D01*
X5483500Y2489896D01*
X5481501D01*
X5481001Y2489397D01*
Y2492396D02*
Y2491396D01*
X5481501Y2490896D01*
X5483500D01*
X5484000Y2491396D01*
Y2492396D01*
X5483500Y2492896D01*
X5481501D01*
X5481001Y2492396D01*
Y2493895D02*
Y2495894D01*
Y2494895D01*
X5484000D01*
X5481501Y2496894D02*
X5481001Y2497394D01*
Y2498394D01*
X5481501Y2498894D01*
X5483500D01*
X5484000Y2498394D01*
Y2497394D01*
X5483500Y2496894D01*
X5481501D01*
X5484000Y2499893D02*
Y2500893D01*
Y2500393D01*
X5481001D01*
X5481501Y2499893D01*
X5473000Y2465900D02*
Y2468899D01*
X5474500D01*
X5474999Y2468399D01*
Y2467399D01*
X5474500Y2466900D01*
X5473000D01*
X5474000D02*
X5474999Y2465900D01*
X5475999Y2468399D02*
X5476499Y2468899D01*
X5477499D01*
X5477998Y2468399D01*
Y2466400D01*
X5477499Y2465900D01*
X5476499D01*
X5475999Y2466400D01*
Y2468399D01*
X5480498Y2465900D02*
Y2468899D01*
X5478998Y2467399D01*
X5480997D01*
X5319600Y2476100D02*
X5316601D01*
Y2477600D01*
X5317101Y2478099D01*
X5318100D01*
X5318600Y2477600D01*
Y2476100D01*
Y2477100D02*
X5319600Y2478099D01*
X5317101Y2479099D02*
X5316601Y2479599D01*
Y2480598D01*
X5317101Y2481098D01*
X5319100D01*
X5319600Y2480598D01*
Y2479599D01*
X5319100Y2479099D01*
X5317101D01*
X5316601Y2484097D02*
Y2482098D01*
X5318100D01*
X5317601Y2483098D01*
Y2483598D01*
X5318100Y2484097D01*
X5319100D01*
X5319600Y2483598D01*
Y2482598D01*
X5319100Y2482098D01*
X5216300Y2475100D02*
X5213301D01*
Y2476600D01*
X5213801Y2477099D01*
X5214801D01*
X5215300Y2476600D01*
Y2475100D01*
Y2476100D02*
X5216300Y2477099D01*
X5213801Y2478099D02*
X5213301Y2478599D01*
Y2479598D01*
X5213801Y2480098D01*
X5215800D01*
X5216300Y2479598D01*
Y2478599D01*
X5215800Y2478099D01*
X5213801D01*
X5213301Y2483097D02*
X5213801Y2482098D01*
X5214801Y2481098D01*
X5215800D01*
X5216300Y2481598D01*
Y2482598D01*
X5215800Y2483097D01*
X5215300D01*
X5214801Y2482598D01*
Y2481098D01*
X5576200Y2471600D02*
X5573201D01*
Y2473100D01*
X5573701Y2473599D01*
X5574701D01*
X5575200Y2473100D01*
Y2471600D01*
Y2472600D02*
X5576200Y2473599D01*
X5573701Y2474599D02*
X5573201Y2475099D01*
Y2476098D01*
X5573701Y2476598D01*
X5575700D01*
X5576200Y2476098D01*
Y2475099D01*
X5575700Y2474599D01*
X5573701D01*
X5575700Y2477598D02*
X5576200Y2478098D01*
Y2479098D01*
X5575700Y2479597D01*
X5573701D01*
X5573201Y2479098D01*
Y2478098D01*
X5573701Y2477598D01*
X5574201D01*
X5574701Y2478098D01*
Y2479597D01*
D56*
X5229250Y2313000D02*
D03*
X5208250Y2358000D02*
D03*
X5290250Y2359500D02*
D03*
D57*
X5232850Y2314250D02*
D03*
X5211850Y2359250D02*
D03*
X5286650Y2358250D02*
D03*
D58*
X5232300Y2313500D02*
D03*
X5211300Y2358500D02*
D03*
X5287200Y2359000D02*
D03*
D59*
X5229250Y2310200D02*
D03*
X5208250Y2355200D02*
D03*
X5290250Y2362300D02*
D03*
D60*
X5230100Y2308700D02*
D03*
X5209100Y2353700D02*
D03*
X5289400Y2363800D02*
D03*
D61*
X5230950Y2307400D02*
D03*
X5209950Y2352400D02*
D03*
X5288550Y2365100D02*
D03*
D62*
X5232150Y2306350D02*
D03*
X5211150Y2351350D02*
D03*
X5287350Y2366150D02*
D03*
D63*
X5242750Y2313200D02*
D03*
X5221750Y2358200D02*
D03*
X5276750Y2359300D02*
D03*
D64*
X5239350Y2313950D02*
D03*
X5218350Y2358950D02*
D03*
X5280150Y2358550D02*
D03*
D65*
X5238450Y2314300D02*
D03*
X5217450Y2359300D02*
D03*
X5281050Y2358200D02*
D03*
D66*
X5242450Y2310650D02*
D03*
X5221450Y2355650D02*
D03*
X5277050Y2361850D02*
D03*
D67*
X5242000Y2309050D02*
D03*
X5221000Y2354050D02*
D03*
X5277500Y2363450D02*
D03*
D68*
X5239750Y2306350D02*
D03*
X5218750Y2351350D02*
D03*
X5279750Y2366150D02*
D03*
D69*
X5240800Y2307450D02*
D03*
X5219800Y2352450D02*
D03*
X5278700Y2365050D02*
D03*
D70*
X5241900Y2307950D02*
D03*
X5220900Y2352950D02*
D03*
X5277600Y2364550D02*
D03*
M02*
