%FSLAX25Y25*%
%MOIN*%
G70*
G01*
G75*
G04 Layer_Color=16711935*
%ADD10R,0.05000X0.05000*%
%ADD11R,0.07520X0.05903*%
%ADD12O,0.08000X0.02400*%
%ADD13R,0.05000X0.05000*%
%ADD14O,0.10039X0.01000*%
%ADD15O,0.01000X0.10039*%
%ADD16R,0.05000X0.06000*%
%ADD17R,0.08800X0.14200*%
%ADD18R,0.08800X0.04800*%
%ADD19R,0.05903X0.07520*%
%ADD20R,0.06000X0.05000*%
%ADD21R,0.02400X0.08600*%
%ADD22O,0.02400X0.08600*%
%ADD23C,0.05000*%
%ADD24C,0.01000*%
%ADD25C,0.01500*%
%ADD26C,0.02000*%
%ADD27C,0.03000*%
%ADD28C,0.07874*%
%ADD29R,0.23622X0.23622*%
%ADD30C,0.23622*%
%ADD31C,0.39370*%
%ADD32O,0.10000X0.07000*%
%ADD33R,0.10000X0.07000*%
%ADD34C,0.07000*%
%ADD35R,0.06500X0.06500*%
%ADD36C,0.06500*%
%ADD37C,0.07500*%
%ADD38R,0.07500X0.07500*%
%ADD39C,0.15748*%
%ADD40C,0.05906*%
%ADD41R,0.05906X0.05906*%
%ADD42C,0.07873*%
%ADD43R,0.07873X0.07873*%
%ADD44R,0.13780X0.13780*%
%ADD45O,0.06000X0.07000*%
%ADD46R,0.06000X0.07000*%
%ADD47C,0.09200*%
%ADD48R,0.09200X0.09200*%
%ADD49C,0.05000*%
%ADD50C,0.02362*%
%ADD51C,0.00984*%
%ADD52C,0.00800*%
%ADD53C,0.00600*%
%ADD54C,0.00787*%
%ADD55C,0.00500*%
%ADD56R,0.05700X0.04000*%
%ADD57R,0.02100X0.01300*%
%ADD58R,0.01000X0.01000*%
%ADD59R,0.03900X0.01800*%
%ADD60R,0.03600X0.01600*%
%ADD61R,0.02700X0.01200*%
%ADD62R,0.02100X0.01100*%
%ADD63R,0.06100X0.03400*%
%ADD64R,0.01100X0.01500*%
%ADD65R,0.01100X0.00800*%
%ADD66R,0.04900X0.02100*%
%ADD67R,0.03600X0.01700*%
%ADD68R,0.01900X0.01300*%
%ADD69R,0.01800X0.01900*%
%ADD70R,0.01600X0.01300*%
%ADD71R,0.05800X0.05800*%
%ADD72R,0.08320X0.06703*%
%ADD73O,0.08800X0.03200*%
%ADD74R,0.05800X0.05800*%
%ADD75O,0.10839X0.01800*%
%ADD76O,0.01800X0.10839*%
%ADD77R,0.05800X0.06800*%
%ADD78R,0.09600X0.15000*%
%ADD79R,0.09600X0.05600*%
%ADD80R,0.06703X0.08320*%
%ADD81R,0.06800X0.05800*%
%ADD82R,0.03200X0.09400*%
%ADD83O,0.03200X0.09400*%
%ADD84C,0.08674*%
%ADD85R,0.24422X0.24422*%
%ADD86C,0.24422*%
%ADD87C,0.40170*%
%ADD88O,0.10800X0.07800*%
%ADD89R,0.10800X0.07800*%
%ADD90C,0.08600*%
%ADD91C,0.07800*%
%ADD92R,0.07300X0.07300*%
%ADD93C,0.07300*%
%ADD94C,0.08300*%
%ADD95R,0.08300X0.08300*%
%ADD96C,0.16548*%
%ADD97C,0.06706*%
%ADD98R,0.06706X0.06706*%
%ADD99C,0.08673*%
%ADD100R,0.08673X0.08673*%
%ADD101R,0.14579X0.14579*%
%ADD102O,0.06800X0.07800*%
%ADD103R,0.06800X0.07800*%
%ADD104C,0.10000*%
%ADD105R,0.10000X0.10000*%
%ADD106C,0.05800*%
%ADD107R,0.25500X0.16000*%
%ADD108R,0.31200X0.33000*%
G36*
X5114300Y2613300D02*
X5116800Y2610800D01*
X5117000Y2610600D01*
X5128100D01*
Y2580900D01*
X5128300Y2580700D01*
X5129500Y2579500D01*
X5173300D01*
X5173400Y2579400D01*
X5174500Y2578300D01*
Y2516600D01*
X5148600D01*
X5145300Y2513300D01*
X5141300Y2509300D01*
Y2489900D01*
Y2475300D01*
X5129800Y2463800D01*
X5124950Y2458950D01*
X5128300Y2455600D01*
X5129100Y2454800D01*
Y2442100D01*
X5125600D01*
X5123600Y2440100D01*
X5122900Y2439400D01*
X4981400D01*
X4974400Y2432400D01*
X4972900Y2430900D01*
Y2383600D01*
Y2381900D01*
X4964900Y2373900D01*
X4923300Y2374200D01*
Y2456700D01*
Y2632400D01*
X4961500Y2670600D01*
X4962000Y2671100D01*
X5114300D01*
Y2613300D01*
D02*
G37*
G36*
X5607400Y2638900D02*
Y2569300D01*
Y2528200D01*
X5603400Y2524200D01*
X5573900D01*
X5571200Y2521500D01*
X5557800Y2508100D01*
X5519900D01*
X5518600Y2509400D01*
X5513200Y2514800D01*
X5407300D01*
X5396100Y2526000D01*
X5387800Y2534300D01*
X5348800D01*
X5323500Y2509000D01*
X5305800Y2491300D01*
X5239900D01*
X5226700Y2478100D01*
X5218000Y2469400D01*
X5192200D01*
X5184800Y2462000D01*
X5183200Y2460400D01*
X5157200D01*
Y2499800D01*
X5185000Y2500100D01*
X5191500Y2506600D01*
Y2508900D01*
X5219700D01*
X5223700Y2512900D01*
X5239200Y2528400D01*
Y2535400D01*
X5261800Y2558000D01*
X5282700Y2578900D01*
X5380900D01*
X5416200Y2543600D01*
X5425800Y2534000D01*
X5473000D01*
X5473600Y2534600D01*
X5524700Y2585700D01*
Y2589400D01*
Y2606500D01*
X5528700Y2610500D01*
X5542400Y2624200D01*
Y2626300D01*
Y2646000D01*
X5542300Y2646100D01*
X5544500Y2648300D01*
X5598000D01*
X5607400Y2638900D01*
D02*
G37*
G36*
X5433600Y2730800D02*
Y2625800D01*
X5433600Y2625800D01*
X5433600Y2625800D01*
X5433517Y2625600D01*
X5419900D01*
X5419200Y2626300D01*
Y2650500D01*
X5405800D01*
X5399300Y2657000D01*
X5356200D01*
X5348800Y2664400D01*
Y2699800D01*
X5343200Y2705400D01*
X5241100D01*
X5240900Y2705600D01*
X5237800Y2702500D01*
Y2603300D01*
X5237700Y2600200D01*
X5216700Y2600400D01*
X5216385Y2593078D01*
X5215963Y2592811D01*
X5213082Y2594026D01*
X5208400Y2598282D01*
Y2607800D01*
X5195070Y2621130D01*
X5195263Y2621592D01*
X5221900Y2621400D01*
X5222000Y2649400D01*
X5193900Y2649200D01*
X5194000Y2622200D01*
X5194119Y2622081D01*
X5194076Y2621583D01*
X5187700Y2617100D01*
X5208400Y2598282D01*
Y2596000D01*
X5213082Y2594026D01*
X5216300Y2591100D01*
Y2591100D01*
X5216700Y2591083D01*
Y2540100D01*
X5211800Y2535200D01*
X5185800D01*
X5185500Y2535500D01*
X5185300Y2590500D01*
X5183000Y2592800D01*
X5166200D01*
X5158000Y2601000D01*
Y2736900D01*
X5178400Y2757300D01*
X5407100D01*
X5433600Y2730800D01*
D02*
G37*
G36*
X5533841Y2631547D02*
X5529355Y2627354D01*
X5519656Y2627302D01*
X5519303Y2627656D01*
X5519500Y2649700D01*
X5491400Y2649800D01*
X5491200Y2624600D01*
X5496800Y2624500D01*
X5496600Y2592600D01*
X5444386Y2592650D01*
X5444040Y2696177D01*
X5444386Y2696672D01*
X5533754D01*
X5533841Y2631547D01*
D02*
G37*
G36*
X5336340Y2629847D02*
X5331855Y2625654D01*
X5322156Y2625602D01*
X5321803Y2625956D01*
X5322000Y2648000D01*
X5293900Y2648100D01*
X5293700Y2622900D01*
X5299300Y2622800D01*
X5299100Y2590900D01*
X5246886Y2590950D01*
X5246540Y2694477D01*
X5246886Y2694972D01*
X5336254D01*
X5336340Y2629847D01*
D02*
G37*
%LPC*%
G36*
X5076000Y2637200D02*
X4988100D01*
X4973900Y2623000D01*
X4970700Y2619800D01*
Y2461300D01*
Y2460300D01*
X4971700Y2459300D01*
X5104900D01*
X5106100Y2458100D01*
X5124100D01*
X5124950Y2458950D01*
X5124600Y2459300D01*
X5104900D01*
X5098700Y2465500D01*
Y2615500D01*
X5097700D01*
X5090200Y2623000D01*
X5076000Y2637200D01*
D02*
G37*
%LPD*%
G36*
X5077100Y2504906D02*
X5076246Y2504050D01*
X5075746Y2504050D01*
X5075394Y2504403D01*
X4998101D01*
X4997703Y2572632D01*
X4998101Y2572798D01*
Y2572798D01*
X4998101Y2572798D01*
X5077100D01*
Y2504906D01*
D02*
G37*
D74*
X5508500Y2622400D02*
D03*
Y2614000D02*
D03*
X5405700Y2621000D02*
D03*
Y2612600D02*
D03*
X5310500Y2621300D02*
D03*
Y2612900D02*
D03*
D84*
X5166000Y2564200D02*
D03*
X5153000Y2570200D02*
D03*
X5116000Y2577200D02*
D03*
X5136500Y2568200D02*
D03*
X5150500Y2551200D02*
D03*
X5168000Y2531700D02*
D03*
X5150500Y2526700D02*
D03*
X5137500Y2538700D02*
D03*
X5125500Y2550700D02*
D03*
X5114500Y2563200D02*
D03*
X5113500Y2543700D02*
D03*
X5131000Y2523200D02*
D03*
X5113500D02*
D03*
X5132000Y2494200D02*
D03*
X5129000Y2507200D02*
D03*
X5112500Y2506200D02*
D03*
X5128500Y2464200D02*
D03*
X5114500Y2461100D02*
D03*
X5360300Y2545800D02*
D03*
X5368500Y2555000D02*
D03*
X5372200Y2571000D02*
D03*
X5355700Y2573300D02*
D03*
X5338300D02*
D03*
X5343800Y2586500D02*
D03*
X5355300Y2590700D02*
D03*
X5371300Y2586500D02*
D03*
X5367200Y2604800D02*
D03*
X5353000Y2610800D02*
D03*
X5361200Y2619500D02*
D03*
X5374900D02*
D03*
X5376300Y2637300D02*
D03*
X5363900Y2636400D02*
D03*
X5011900Y2528900D02*
D03*
X5010900Y2546100D02*
D03*
X5014400Y2563700D02*
D03*
X5034400Y2565600D02*
D03*
X5054500Y2566100D02*
D03*
X5065200Y2552400D02*
D03*
Y2538200D02*
D03*
Y2523100D02*
D03*
X5058900Y2512800D02*
D03*
X5039800Y2511800D02*
D03*
X5022200D02*
D03*
X5007500Y2512300D02*
D03*
X5190300Y2483200D02*
D03*
X5180800Y2464100D02*
D03*
X5187000Y2472600D02*
D03*
X5199300Y2479300D02*
D03*
X5195400Y2491100D02*
D03*
X5182500Y2490000D02*
D03*
X5174000Y2481600D02*
D03*
X5160000D02*
D03*
X4971500Y2370700D02*
D03*
X4967600Y2394400D02*
D03*
X4924300Y2386500D02*
D03*
X4930500Y2430900D02*
D03*
X4954100D02*
D03*
X4971000Y2419700D02*
D03*
X4962000Y2382600D02*
D03*
X4938900Y2377500D02*
D03*
X4929900Y2365100D02*
D03*
X4947900Y2361200D02*
D03*
X4963700Y2358900D02*
D03*
X4963100Y2344300D02*
D03*
X4949000Y2346000D02*
D03*
X4929900Y2345400D02*
D03*
X5292100Y2598000D02*
D03*
X5255600Y2597400D02*
D03*
X5281500Y2646400D02*
D03*
X5259500Y2650900D02*
D03*
X5271300Y2659300D02*
D03*
X5297200Y2662100D02*
D03*
X5322000Y2663200D02*
D03*
X5308500Y2679500D02*
D03*
X5286500D02*
D03*
X5262300D02*
D03*
X5525600Y2671700D02*
D03*
X5492900Y2659300D02*
D03*
X5516600Y2657600D02*
D03*
X5501400Y2669400D02*
D03*
X5513200Y2684000D02*
D03*
X5482800Y2680700D02*
D03*
X5484500Y2643500D02*
D03*
X5493500Y2599100D02*
D03*
X5454100Y2601400D02*
D03*
X5471600Y2666000D02*
D03*
X5455300Y2684000D02*
D03*
X5454700Y2660400D02*
D03*
X5462000Y2646400D02*
D03*
X5575800Y2629200D02*
D03*
X5587500Y2619000D02*
D03*
X5573700Y2603100D02*
D03*
X5563000Y2620000D02*
D03*
X5554300Y2598500D02*
D03*
X5565600Y2583200D02*
D03*
X5580400Y2578600D02*
D03*
X5603400Y2542300D02*
D03*
X5603900Y2563800D02*
D03*
X5602400Y2583700D02*
D03*
X5599300Y2604700D02*
D03*
Y2623100D02*
D03*
Y2643500D02*
D03*
X5584500D02*
D03*
X5562000Y2643000D02*
D03*
X5411200Y2697400D02*
D03*
X5398300Y2707100D02*
D03*
X5397900Y2725800D02*
D03*
X5365800Y2726600D02*
D03*
X5287800Y2727100D02*
D03*
X5322400Y2724500D02*
D03*
X5346900Y2723100D02*
D03*
X5367700Y2710700D02*
D03*
X5387500Y2695900D02*
D03*
X5402000Y2686900D02*
D03*
X5411600Y2676100D02*
D03*
X5426300Y2653500D02*
D03*
X5426700Y2673000D02*
D03*
X5425400Y2694300D02*
D03*
X5422100Y2709600D02*
D03*
X5411000Y2718100D02*
D03*
X5382400Y2721900D02*
D03*
X5379200Y2743100D02*
D03*
X5362400Y2743500D02*
D03*
X5343700Y2743100D02*
D03*
X5322000Y2744000D02*
D03*
X5300200Y2743700D02*
D03*
X5280900Y2743300D02*
D03*
X5266700Y2727700D02*
D03*
X5265900Y2744100D02*
D03*
X5251700Y2732800D02*
D03*
X5249900Y2745200D02*
D03*
X5237200Y2727700D02*
D03*
X5234600Y2747300D02*
D03*
X5217800Y2719300D02*
D03*
X5217100Y2735000D02*
D03*
X5218200Y2747700D02*
D03*
X5197100Y2748400D02*
D03*
X5205100Y2696000D02*
D03*
X5197100Y2711300D02*
D03*
X5196000Y2733500D02*
D03*
X5177400Y2739300D02*
D03*
X5173800Y2720000D02*
D03*
X5174500Y2701400D02*
D03*
X5170100Y2684000D02*
D03*
X5184700Y2680300D02*
D03*
X5200400Y2680000D02*
D03*
X5215700D02*
D03*
X5228800Y2676000D02*
D03*
Y2653400D02*
D03*
X5225500Y2664700D02*
D03*
X5211300D02*
D03*
X5192000Y2664300D02*
D03*
X5174100Y2662100D02*
D03*
X5157000Y2658100D02*
D03*
X5154100Y2674100D02*
D03*
X5155200Y2691600D02*
D03*
Y2710600D02*
D03*
X5156700Y2730200D02*
D03*
X5160700Y2745500D02*
D03*
X5143900Y2744400D02*
D03*
X5136300Y2731300D02*
D03*
Y2709800D02*
D03*
X5135500Y2689800D02*
D03*
X5134800Y2671900D02*
D03*
X5135500Y2654500D02*
D03*
X5135200Y2639900D02*
D03*
X5151200Y2638800D02*
D03*
X5168700Y2639500D02*
D03*
X5181100Y2638100D02*
D03*
X5171200Y2624600D02*
D03*
X5184300Y2622800D02*
D03*
X5192900Y2613700D02*
D03*
X5198700Y2601700D02*
D03*
X5188900Y2604600D02*
D03*
X5193300Y2589700D02*
D03*
X5204000Y2591100D02*
D03*
X5204400Y2578300D02*
D03*
X5193300D02*
D03*
X5182800Y2375300D02*
D03*
Y2355300D02*
D03*
Y2335300D02*
D03*
Y2315300D02*
D03*
X5132800D02*
D03*
Y2335300D02*
D03*
Y2355300D02*
D03*
Y2375300D02*
D03*
D85*
X5075300Y2483600D02*
D03*
X5076300Y2597600D02*
D03*
X4997300Y2599600D02*
D03*
X4996300Y2481600D02*
D03*
D86*
X5115300Y2483600D02*
D03*
X5438400Y2557600D02*
D03*
X5586038D02*
D03*
X5116300Y2597600D02*
D03*
X4957300Y2599600D02*
D03*
X4956300Y2481600D02*
D03*
X5198762Y2556800D02*
D03*
X5346400D02*
D03*
D87*
X5475900Y2617600D02*
D03*
X5275400Y2619700D02*
D03*
X5038000Y2539300D02*
D03*
X4947100Y2407900D02*
D03*
D88*
X5599100Y2427900D02*
D03*
X5599200Y2401100D02*
D03*
X5599500Y2370200D02*
D03*
Y2360200D02*
D03*
Y2341600D02*
D03*
X5311400Y2350300D02*
D03*
Y2360300D02*
D03*
X5564500Y2348700D02*
D03*
D89*
X5599100Y2437900D02*
D03*
X5599200Y2411100D02*
D03*
X5599500Y2380200D02*
D03*
Y2331600D02*
D03*
X5311400Y2340300D02*
D03*
X5564500Y2338700D02*
D03*
D90*
X5440900Y2353200D02*
D03*
Y2333200D02*
D03*
D91*
X5216500Y2332500D02*
D03*
X5256500D02*
D03*
X5213400Y2382300D02*
D03*
X5253400D02*
D03*
X5030100Y2416200D02*
D03*
X4990100D02*
D03*
X5093300Y2354900D02*
D03*
Y2394900D02*
D03*
X5099800Y2326800D02*
D03*
X5059800D02*
D03*
X5243000Y2474500D02*
D03*
X5283000D02*
D03*
X5489400Y2474700D02*
D03*
X5529400D02*
D03*
D92*
X5236000Y2320000D02*
D03*
X5215000Y2365000D02*
D03*
X5283500Y2352500D02*
D03*
D93*
X5236000Y2310000D02*
D03*
X5215000Y2355000D02*
D03*
X5283500Y2362500D02*
D03*
D94*
X5250400Y2351600D02*
D03*
Y2361600D02*
D03*
X5080900Y2344900D02*
D03*
Y2354900D02*
D03*
D95*
X5250400Y2371600D02*
D03*
X5080900Y2364900D02*
D03*
D96*
X4934800Y2752500D02*
D03*
X5598900Y2750600D02*
D03*
X5600500Y2297600D02*
D03*
X4933900Y2299200D02*
D03*
X5598600Y2481800D02*
D03*
D97*
X5466300Y2299500D02*
D03*
X5476300D02*
D03*
X5486300D02*
D03*
X5496300D02*
D03*
X5506300D02*
D03*
X5516300D02*
D03*
X5526300D02*
D03*
D98*
X5536300D02*
D03*
D99*
X5516200Y2342300D02*
D03*
D100*
X5486200D02*
D03*
D101*
X5166800Y2546100D02*
D03*
Y2516100D02*
D03*
Y2496100D02*
D03*
Y2466100D02*
D03*
D102*
X5552400Y2434700D02*
D03*
X5542400D02*
D03*
X5532400D02*
D03*
X5522400D02*
D03*
X5512400D02*
D03*
X5502400D02*
D03*
X5492400D02*
D03*
Y2464700D02*
D03*
X5502400D02*
D03*
X5512400D02*
D03*
X5522400D02*
D03*
X5532400D02*
D03*
X5542400D02*
D03*
X5297000Y2433500D02*
D03*
X5287000D02*
D03*
X5277000D02*
D03*
X5267000D02*
D03*
X5257000D02*
D03*
X5247000D02*
D03*
X5237000D02*
D03*
Y2463500D02*
D03*
X5247000D02*
D03*
X5257000D02*
D03*
X5267000D02*
D03*
X5277000D02*
D03*
X5287000D02*
D03*
D103*
X5552400Y2464700D02*
D03*
X5297000Y2463500D02*
D03*
D104*
X5449200Y2635900D02*
D03*
X5427300D02*
D03*
X5252100Y2636100D02*
D03*
X5230200D02*
D03*
X5547600D02*
D03*
X5525700D02*
D03*
X5350600D02*
D03*
X5328700D02*
D03*
D105*
X5405400Y2635900D02*
D03*
X5208300Y2636100D02*
D03*
X5503800D02*
D03*
X5306800D02*
D03*
D106*
X5398900Y2414100D02*
D03*
X5539300Y2363900D02*
D03*
X5540200Y2378200D02*
D03*
X5532600Y2373400D02*
D03*
X5406800Y2387600D02*
D03*
X5401900Y2393500D02*
D03*
X5404900Y2404800D02*
D03*
X5480000Y2331300D02*
D03*
X5493000Y2320600D02*
D03*
X5442200Y2300900D02*
D03*
X5480235Y2441300D02*
D03*
X5367300Y2431600D02*
D03*
X5484300Y2421500D02*
D03*
X5479900Y2431600D02*
D03*
X5375500Y2436900D02*
D03*
X5378300Y2447000D02*
D03*
X5365300Y2471100D02*
D03*
X5355400Y2430000D02*
D03*
X5335500Y2428800D02*
D03*
X5057400Y2395700D02*
D03*
X5015700Y2332200D02*
D03*
X5066400Y2313700D02*
D03*
X5253100Y2301100D02*
D03*
X5284800Y2317600D02*
D03*
X5193400Y2422600D02*
D03*
X5188000Y2441000D02*
D03*
X5211500Y2411500D02*
D03*
X5261400Y2406100D02*
D03*
X5351500Y2506300D02*
D03*
X5346800Y2490300D02*
D03*
X5326900Y2490400D02*
D03*
X5321300Y2461600D02*
D03*
X5198600Y2452500D02*
D03*
X5296500Y2507400D02*
D03*
X5147700Y2425400D02*
D03*
X5170900Y2446100D02*
D03*
X5532400Y2517500D02*
D03*
X5430300Y2473500D02*
D03*
X5407100Y2452900D02*
D03*
X5366200Y2461000D02*
D03*
X5358600Y2466800D02*
D03*
X5334400Y2414100D02*
D03*
X5357100Y2457000D02*
D03*
X5340900Y2332500D02*
D03*
X5341800Y2361700D02*
D03*
X5342000Y2369500D02*
D03*
X5341600Y2388800D02*
D03*
X5396400Y2325700D02*
D03*
X5447200Y2417100D02*
D03*
X5455000Y2396200D02*
D03*
X5461300Y2439200D02*
D03*
X5505500Y2393900D02*
D03*
X5516800Y2359600D02*
D03*
X5479500Y2369100D02*
D03*
X5471800Y2375500D02*
D03*
X5445200Y2371400D02*
D03*
X5514000Y2395300D02*
D03*
X5527100Y2407600D02*
D03*
X5545500Y2395500D02*
D03*
X5407700Y2399000D02*
D03*
X5384800Y2408200D02*
D03*
X5395600Y2443300D02*
D03*
X5361000Y2513800D02*
D03*
X5314000Y2322000D02*
D03*
X5049214Y2346100D02*
D03*
X5006400Y2348900D02*
D03*
X5027000Y2382300D02*
D03*
X5412900Y2499700D02*
D03*
D107*
X5112550Y2459100D02*
D03*
D108*
X5201400Y2605100D02*
D03*
M02*
