%FSLAX25Y25*%
%MOIN*%
G70*
G01*
G75*
G04 Layer_Physical_Order=1*
G04 Layer_Color=255*
%ADD10R,0.05000X0.05000*%
%ADD11R,0.07520X0.05903*%
%ADD12O,0.08000X0.02400*%
%ADD13R,0.05000X0.05000*%
%ADD14O,0.10039X0.01000*%
%ADD15O,0.01000X0.10039*%
%ADD16R,0.05000X0.06000*%
%ADD17R,0.08800X0.14200*%
%ADD18R,0.08800X0.04800*%
%ADD19R,0.05903X0.07520*%
%ADD20R,0.06000X0.05000*%
%ADD21R,0.02400X0.08600*%
%ADD22O,0.02400X0.08600*%
%ADD23C,0.05000*%
%ADD24C,0.01000*%
%ADD25C,0.01500*%
%ADD26C,0.02000*%
%ADD27C,0.03000*%
%ADD28C,0.07874*%
%ADD29R,0.23622X0.23622*%
%ADD30C,0.23622*%
%ADD31C,0.39370*%
%ADD32O,0.10000X0.07000*%
%ADD33R,0.10000X0.07000*%
%ADD34C,0.07000*%
%ADD35R,0.06500X0.06500*%
%ADD36C,0.06500*%
%ADD37C,0.07500*%
%ADD38R,0.07500X0.07500*%
%ADD39C,0.15748*%
%ADD40C,0.05906*%
%ADD41R,0.05906X0.05906*%
%ADD42C,0.07873*%
%ADD43R,0.07873X0.07873*%
%ADD44R,0.13780X0.13780*%
%ADD45O,0.06000X0.07000*%
%ADD46R,0.06000X0.07000*%
%ADD47C,0.09200*%
%ADD48R,0.09200X0.09200*%
%ADD49C,0.05000*%
G36*
X5411483Y2385948D02*
Y2383500D01*
X5411483Y2383500D01*
X5411483D01*
X5411675Y2382537D01*
X5412220Y2381720D01*
X5412957Y2380984D01*
X5413156Y2380685D01*
X5412878Y2380270D01*
X5412543Y2380337D01*
X5411580Y2380145D01*
X5411558Y2380131D01*
X5411537Y2380145D01*
X5410574Y2380337D01*
X5409611Y2380145D01*
X5409590Y2380131D01*
X5409569Y2380145D01*
X5408606Y2380337D01*
X5407642Y2380145D01*
X5407621Y2380131D01*
X5407600Y2380145D01*
X5406637Y2380337D01*
X5405674Y2380145D01*
X5405653Y2380131D01*
X5405632Y2380145D01*
X5404668Y2380337D01*
X5403705Y2380145D01*
X5403684Y2380131D01*
X5403663Y2380145D01*
X5402700Y2380337D01*
X5401737Y2380145D01*
X5401716Y2380131D01*
X5401695Y2380145D01*
X5400732Y2380337D01*
X5399768Y2380145D01*
X5399747Y2380131D01*
X5399726Y2380145D01*
X5398763Y2380337D01*
X5397800Y2380145D01*
X5397779Y2380131D01*
X5397758Y2380145D01*
X5396795Y2380337D01*
X5395831Y2380145D01*
X5395810Y2380131D01*
X5395789Y2380145D01*
X5394826Y2380337D01*
X5393863Y2380145D01*
X5393842Y2380131D01*
X5393821Y2380145D01*
X5392858Y2380337D01*
X5391895Y2380145D01*
X5391873Y2380131D01*
X5391852Y2380145D01*
X5390889Y2380337D01*
X5390857Y2380397D01*
X5395543Y2385083D01*
X5403099D01*
X5403613Y2384413D01*
X5404546Y2383697D01*
X5405634Y2383246D01*
X5406800Y2383093D01*
X5407967Y2383246D01*
X5409053Y2383697D01*
X5409987Y2384413D01*
X5410703Y2385346D01*
X5410993Y2386045D01*
X5411483Y2385948D01*
D02*
G37*
G36*
X5364271Y2403905D02*
X5364260Y2403889D01*
X5364069Y2402926D01*
X5364260Y2401963D01*
X5364275Y2401942D01*
X5364260Y2401921D01*
X5364069Y2400957D01*
X5364260Y2399994D01*
X5364275Y2399973D01*
X5364260Y2399952D01*
X5364069Y2398989D01*
X5364260Y2398026D01*
X5364275Y2398005D01*
X5364260Y2397984D01*
X5364069Y2397020D01*
X5364260Y2396057D01*
X5364275Y2396036D01*
X5364260Y2396015D01*
X5364069Y2395052D01*
X5364260Y2394089D01*
X5364275Y2394068D01*
X5364260Y2394047D01*
X5364069Y2393083D01*
X5364260Y2392120D01*
X5364275Y2392099D01*
X5364260Y2392078D01*
X5364069Y2391115D01*
X5364260Y2390152D01*
X5364271Y2390136D01*
X5364036Y2389695D01*
X5362268D01*
Y2393969D01*
X5360587D01*
X5360579Y2394010D01*
X5360033Y2394827D01*
X5355290Y2399570D01*
X5355481Y2400031D01*
X5356268D01*
Y2401683D01*
X5359800D01*
X5360763Y2401875D01*
X5361580Y2402420D01*
X5363506Y2404346D01*
X5364036D01*
X5364271Y2403905D01*
D02*
G37*
G36*
X5353310Y2394430D02*
X5353119Y2393969D01*
X5350150D01*
Y2389499D01*
Y2385032D01*
X5358891D01*
X5359159Y2384853D01*
X5360122Y2384661D01*
X5360749D01*
X5360940Y2384199D01*
X5359109Y2382368D01*
X5345768D01*
Y2382668D01*
X5337342D01*
Y2386231D01*
X5337815Y2386392D01*
X5338413Y2385613D01*
X5339346Y2384897D01*
X5340434Y2384447D01*
X5340850Y2384392D01*
Y2388799D01*
Y2393208D01*
X5340434Y2393154D01*
X5339346Y2392703D01*
X5338413Y2391987D01*
X5337815Y2391208D01*
X5337342Y2391369D01*
Y2394164D01*
X5338336Y2395158D01*
X5348162D01*
X5348525Y2395008D01*
X5349300Y2394906D01*
X5350075Y2395008D01*
X5350797Y2395307D01*
X5351417Y2395783D01*
X5351688Y2396053D01*
X5353310Y2394430D01*
D02*
G37*
G36*
X5537946Y2374297D02*
X5539034Y2373846D01*
X5540200Y2373693D01*
X5541367Y2373846D01*
X5542395Y2374273D01*
X5542582Y2374130D01*
X5542780Y2373872D01*
X5542704Y2373300D01*
X5542813Y2372473D01*
X5543132Y2371702D01*
X5543467Y2371265D01*
X5543246Y2370817D01*
X5543000D01*
X5542037Y2370625D01*
X5541220Y2370080D01*
X5539519Y2368378D01*
X5539300Y2368407D01*
X5538134Y2368254D01*
X5537046Y2367803D01*
X5536113Y2367087D01*
X5535590Y2366406D01*
X5535117Y2366566D01*
Y2369699D01*
X5535787Y2370213D01*
X5536503Y2371147D01*
X5536953Y2372234D01*
X5537107Y2373400D01*
X5536967Y2374466D01*
X5537400Y2374716D01*
X5537946Y2374297D01*
D02*
G37*
G36*
X5436031Y2376731D02*
X5437506D01*
Y2376100D01*
X5437608Y2375325D01*
X5437695Y2375114D01*
X5437907Y2374603D01*
X5438383Y2373983D01*
X5440725Y2371641D01*
X5440693Y2371400D01*
X5440763Y2370866D01*
X5440315Y2370645D01*
X5435880Y2375080D01*
X5435063Y2375625D01*
X5434100Y2375817D01*
X5418996D01*
Y2377820D01*
X5418887Y2378369D01*
X5419204Y2378756D01*
X5436031D01*
Y2376731D01*
D02*
G37*
G36*
X5331858Y2394483D02*
Y2382668D01*
X5323079D01*
X5323071Y2382675D01*
X5322410Y2382948D01*
X5321700Y2383042D01*
X5279136D01*
X5267356Y2394821D01*
X5267548Y2395283D01*
X5331057D01*
X5331858Y2394483D01*
D02*
G37*
G36*
X5432083Y2449758D02*
Y2413543D01*
X5431936Y2413395D01*
X5431441Y2413468D01*
X5431286Y2413758D01*
X5431297Y2413774D01*
X5431488Y2414737D01*
X5431297Y2415700D01*
X5431283Y2415721D01*
X5431297Y2415742D01*
X5431488Y2416705D01*
X5431297Y2417669D01*
X5431283Y2417690D01*
X5431297Y2417711D01*
X5431488Y2418674D01*
X5431297Y2419637D01*
X5430751Y2420454D01*
X5429935Y2420999D01*
X5428972Y2421191D01*
X5419932D01*
X5419205Y2421046D01*
X5418852Y2421400D01*
X5418996Y2422127D01*
Y2424129D01*
X5420746D01*
X5421709Y2424321D01*
X5422526Y2424867D01*
X5426680Y2429020D01*
X5427225Y2429837D01*
X5427417Y2430800D01*
Y2436732D01*
X5429369D01*
Y2445131D01*
Y2451819D01*
X5429831Y2452010D01*
X5432083Y2449758D01*
D02*
G37*
G36*
X5447277Y2421763D02*
X5447200Y2421607D01*
X5447469Y2421572D01*
X5447950Y2421090D01*
Y2417099D01*
X5447201D01*
Y2416350D01*
X5442792D01*
X5442847Y2415933D01*
X5443297Y2414846D01*
X5443703Y2414317D01*
X5443482Y2413869D01*
X5439217D01*
Y2429170D01*
X5439679Y2429362D01*
X5447277Y2421763D01*
D02*
G37*
G36*
X5197126Y2419418D02*
X5197168Y2419335D01*
X5196832Y2418898D01*
X5196513Y2418127D01*
X5196404Y2417300D01*
X5196513Y2416473D01*
X5196832Y2415702D01*
X5197340Y2415040D01*
X5198002Y2414532D01*
X5198773Y2414213D01*
X5199600Y2414104D01*
X5205200D01*
X5206027Y2414213D01*
X5206798Y2414532D01*
X5207125Y2414783D01*
X5207822D01*
X5208043Y2414335D01*
X5207597Y2413754D01*
X5207146Y2412667D01*
X5206993Y2411500D01*
X5207146Y2410333D01*
X5207597Y2409246D01*
X5208313Y2408313D01*
X5209246Y2407597D01*
X5210334Y2407146D01*
X5211500Y2406993D01*
X5211631Y2407010D01*
X5213181Y2405460D01*
X5212903Y2405044D01*
X5212410Y2405248D01*
X5211700Y2405342D01*
X5174236D01*
X5172108Y2407470D01*
X5172300Y2407932D01*
X5173368D01*
Y2409658D01*
X5178800D01*
X5179510Y2409752D01*
X5180171Y2410025D01*
X5180739Y2410461D01*
X5182339Y2412061D01*
X5182775Y2412629D01*
X5183049Y2413290D01*
X5183142Y2414000D01*
Y2414104D01*
X5183200D01*
X5184027Y2414213D01*
X5184798Y2414532D01*
X5184831Y2414558D01*
X5186300D01*
X5187010Y2414651D01*
X5187671Y2414925D01*
X5188239Y2415361D01*
X5190239Y2417361D01*
X5190675Y2417929D01*
X5190880Y2418424D01*
X5191342Y2418616D01*
X5192234Y2418246D01*
X5193400Y2418093D01*
X5194566Y2418246D01*
X5195654Y2418697D01*
X5196587Y2419413D01*
X5196629Y2419467D01*
X5197126Y2419418D01*
D02*
G37*
G36*
X5397562Y2404121D02*
X5378820Y2385380D01*
X5378640Y2385110D01*
X5378142Y2385209D01*
X5377993Y2384459D01*
X5377780D01*
X5377405Y2385021D01*
X5377123Y2385209D01*
X5377405Y2385398D01*
X5377780Y2385959D01*
X5377993D01*
X5377951Y2386173D01*
X5377937Y2386194D01*
X5377951Y2386215D01*
X5378142Y2387178D01*
X5377951Y2388141D01*
X5377937Y2388162D01*
X5377951Y2388183D01*
X5378142Y2389146D01*
X5377951Y2390110D01*
X5377937Y2390131D01*
X5377951Y2390152D01*
X5378142Y2391115D01*
X5377951Y2392078D01*
X5377937Y2392099D01*
X5377951Y2392120D01*
X5378142Y2393083D01*
X5377951Y2394047D01*
X5377937Y2394068D01*
X5377951Y2394089D01*
X5378142Y2395052D01*
X5377951Y2396015D01*
X5377937Y2396036D01*
X5377951Y2396057D01*
X5378142Y2397020D01*
X5377951Y2397984D01*
X5377937Y2398005D01*
X5377951Y2398026D01*
X5378142Y2398989D01*
X5377951Y2399952D01*
X5377937Y2399973D01*
X5377951Y2399994D01*
X5378142Y2400957D01*
X5377951Y2401921D01*
X5377937Y2401942D01*
X5377951Y2401963D01*
X5378142Y2402926D01*
X5378030Y2403492D01*
X5378383Y2403845D01*
X5378648Y2403793D01*
X5381220Y2401220D01*
X5382037Y2400675D01*
X5383000Y2400483D01*
X5389000D01*
X5389963Y2400675D01*
X5390780Y2401220D01*
X5392080Y2402520D01*
X5392625Y2403337D01*
X5392817Y2404300D01*
Y2404583D01*
X5397371D01*
X5397562Y2404121D01*
D02*
G37*
G36*
X5155032Y2425932D02*
X5163969D01*
Y2425932D01*
X5164078D01*
X5164431Y2425578D01*
Y2425368D01*
X5164169D01*
Y2425368D01*
X5155231D01*
Y2416431D01*
Y2413250D01*
X5159701D01*
Y2412501D01*
X5160450D01*
Y2408031D01*
X5164169D01*
Y2408031D01*
X5164331D01*
X5164431Y2407932D01*
Y2407932D01*
X5166158D01*
Y2406800D01*
X5166251Y2406090D01*
X5166525Y2405429D01*
X5166961Y2404861D01*
X5169818Y2402004D01*
X5169627Y2401542D01*
X5148700D01*
Y2409232D01*
X5152169D01*
Y2412950D01*
X5147699D01*
Y2414450D01*
X5152169D01*
Y2418168D01*
X5148700D01*
Y2421025D01*
X5148867Y2421046D01*
X5149953Y2421497D01*
X5150887Y2422213D01*
X5151603Y2423146D01*
X5152053Y2424233D01*
X5152108Y2424650D01*
X5147699D01*
Y2426150D01*
X5152108D01*
X5152053Y2426567D01*
X5151797Y2427184D01*
X5152076Y2427600D01*
X5155032D01*
Y2425932D01*
D02*
G37*
G36*
X5378603Y2419383D02*
X5378721Y2418790D01*
X5379267Y2417974D01*
X5382283Y2414957D01*
Y2411901D01*
X5381613Y2411387D01*
X5380897Y2410453D01*
X5380447Y2409366D01*
X5380444Y2409344D01*
X5380100Y2409188D01*
X5379137Y2409380D01*
X5378175D01*
X5377940Y2409821D01*
X5377951Y2409837D01*
X5378142Y2410800D01*
X5377951Y2411763D01*
X5377937Y2411784D01*
X5377951Y2411805D01*
X5378142Y2412768D01*
X5377951Y2413732D01*
X5377937Y2413753D01*
X5377951Y2413774D01*
X5378142Y2414737D01*
X5377951Y2415700D01*
X5377937Y2415721D01*
X5377951Y2415742D01*
X5378142Y2416705D01*
X5377951Y2417669D01*
X5377937Y2417690D01*
X5377951Y2417711D01*
X5378142Y2418674D01*
X5377998Y2419401D01*
X5378125Y2419528D01*
X5378603Y2419383D01*
D02*
G37*
G36*
X5367968Y2358428D02*
X5365420Y2355880D01*
X5364875Y2355063D01*
X5364683Y2354100D01*
Y2345443D01*
X5363657Y2344417D01*
X5362669D01*
Y2346368D01*
X5346569D01*
Y2346668D01*
X5346348D01*
Y2347132D01*
X5346348D01*
X5346348Y2347532D01*
X5362368D01*
Y2356469D01*
X5361969D01*
Y2356731D01*
X5361969D01*
Y2358683D01*
X5366800D01*
X5367733Y2358869D01*
X5367968Y2358428D01*
D02*
G37*
G36*
X5421683Y2357458D02*
Y2346620D01*
X5419160D01*
X5418839Y2347039D01*
X5418919Y2347231D01*
X5419368D01*
Y2356169D01*
X5417383D01*
X5417357Y2356300D01*
X5417225Y2356963D01*
X5417036Y2357247D01*
X5417162Y2357483D01*
X5421658D01*
X5421683Y2357458D01*
D02*
G37*
G36*
X5318258Y2357664D02*
Y2353600D01*
X5318351Y2352890D01*
X5318625Y2352229D01*
X5319061Y2351661D01*
X5320561Y2350161D01*
X5321129Y2349725D01*
X5321790Y2349451D01*
X5322500Y2349358D01*
X5323632D01*
Y2347132D01*
X5323852D01*
Y2346668D01*
X5323852D01*
Y2344442D01*
X5323200D01*
X5322490Y2344349D01*
X5321829Y2344075D01*
X5321261Y2343639D01*
X5320664Y2343042D01*
X5318369D01*
Y2345769D01*
X5316755D01*
X5316594Y2346242D01*
X5316800Y2346400D01*
X5317677Y2347542D01*
X5318228Y2348872D01*
X5318317Y2349550D01*
X5304483D01*
X5304572Y2348872D01*
X5305123Y2347542D01*
X5306000Y2346400D01*
X5306205Y2346242D01*
X5306045Y2345769D01*
X5304432D01*
Y2334831D01*
X5318369D01*
Y2337558D01*
X5321800D01*
X5322510Y2337651D01*
X5323171Y2337925D01*
X5323404Y2338104D01*
X5323852Y2337883D01*
Y2336732D01*
X5331858D01*
Y2312169D01*
X5331831D01*
Y2307607D01*
X5320169D01*
Y2307731D01*
X5320169D01*
Y2311350D01*
X5313799D01*
Y2312099D01*
X5313050D01*
Y2316468D01*
X5307431D01*
Y2315628D01*
X5304050D01*
Y2309899D01*
Y2304172D01*
X5307431D01*
Y2302028D01*
X5298380D01*
Y2301829D01*
X5289568D01*
Y2303971D01*
X5293550D01*
Y2309699D01*
Y2315429D01*
X5289380D01*
Y2312968D01*
X5286577D01*
X5286479Y2313459D01*
X5287054Y2313697D01*
X5287987Y2314413D01*
X5288703Y2315347D01*
X5289154Y2316434D01*
X5289208Y2316850D01*
X5280392D01*
X5280447Y2316434D01*
X5280897Y2315347D01*
X5281613Y2314413D01*
X5282547Y2313697D01*
X5283121Y2313459D01*
X5283023Y2312968D01*
X5280632D01*
Y2309250D01*
X5285101D01*
Y2307750D01*
X5280632D01*
Y2304032D01*
Y2304007D01*
X5275467D01*
X5273507Y2305967D01*
Y2315100D01*
X5273354Y2316266D01*
X5273090Y2316903D01*
X5272903Y2317353D01*
X5272187Y2318287D01*
X5268287Y2322187D01*
X5267353Y2322903D01*
X5266267Y2323354D01*
X5265100Y2323507D01*
X5260796D01*
X5260518Y2323923D01*
X5260854Y2324734D01*
X5261007Y2325900D01*
Y2327706D01*
X5287900D01*
X5288675Y2327808D01*
X5288886Y2327896D01*
X5289397Y2328107D01*
X5290017Y2328583D01*
X5298117Y2336683D01*
X5298593Y2337303D01*
X5298804Y2337814D01*
X5298892Y2338025D01*
X5298994Y2338800D01*
Y2354360D01*
X5301940Y2357306D01*
X5305305D01*
X5306000Y2356400D01*
X5307107Y2355550D01*
Y2355050D01*
X5306000Y2354200D01*
X5305123Y2353058D01*
X5304572Y2351728D01*
X5304483Y2351050D01*
X5318317D01*
X5318228Y2351728D01*
X5317677Y2353058D01*
X5316800Y2354200D01*
X5315658Y2355077D01*
Y2355523D01*
X5316800Y2356400D01*
X5317677Y2357542D01*
X5317768Y2357762D01*
X5318258Y2357664D01*
D02*
G37*
G36*
X4978700Y2437500D02*
X4978100Y2436900D01*
Y2379300D01*
Y2335000D01*
X4977900Y2334800D01*
X4977700Y2334600D01*
X4919600D01*
Y2438200D01*
X4978000D01*
X4978700Y2437500D01*
D02*
G37*
G36*
X5376995Y2357742D02*
X5376675Y2357263D01*
X5376483Y2356300D01*
Y2356068D01*
X5374532D01*
Y2347132D01*
X5376483D01*
Y2346520D01*
X5371672D01*
Y2336680D01*
X5374031D01*
Y2328911D01*
X5383968D01*
Y2328911D01*
X5383968D01*
X5383968Y2328911D01*
X5384032D01*
Y2328911D01*
X5392666D01*
X5392887Y2328463D01*
X5392497Y2327954D01*
X5392046Y2326867D01*
X5391992Y2326450D01*
X5395650D01*
Y2330108D01*
X5395234Y2330054D01*
X5394384Y2329702D01*
X5393969Y2329980D01*
Y2336680D01*
X5396729D01*
Y2346520D01*
X5391742D01*
Y2347132D01*
X5391869D01*
Y2349117D01*
X5392203Y2349183D01*
X5392663Y2349275D01*
X5393480Y2349820D01*
X5393480Y2349820D01*
X5393480Y2349820D01*
X5394484Y2350825D01*
X5394982Y2350776D01*
X5395015Y2350726D01*
X5395820Y2349920D01*
X5396637Y2349375D01*
X5397600Y2349183D01*
X5402031D01*
Y2347231D01*
X5402031Y2347231D01*
X5402031D01*
X5402126Y2347004D01*
X5401743Y2346620D01*
X5397572D01*
Y2336780D01*
X5399931D01*
Y2329188D01*
X5399483Y2328967D01*
X5398653Y2329603D01*
X5397567Y2330054D01*
X5397150Y2330108D01*
Y2326450D01*
X5400808D01*
X5400753Y2326867D01*
X5400303Y2327954D01*
X5399836Y2328563D01*
X5400057Y2329011D01*
X5409869D01*
Y2329011D01*
X5409869D01*
X5409869Y2329011D01*
X5409932D01*
Y2329011D01*
X5419868D01*
Y2336780D01*
X5421683D01*
Y2317400D01*
X5421683Y2317400D01*
X5421683D01*
X5421875Y2316437D01*
X5422420Y2315620D01*
X5423520Y2314520D01*
X5424079Y2314147D01*
X5423934Y2313668D01*
X5421231D01*
Y2309950D01*
X5425701D01*
Y2309201D01*
X5426450D01*
Y2304732D01*
X5438232D01*
Y2304631D01*
X5438945D01*
X5439106Y2304158D01*
X5439013Y2304087D01*
X5438297Y2303153D01*
X5437846Y2302066D01*
X5437693Y2300900D01*
X5437846Y2299734D01*
X5438297Y2298647D01*
X5439013Y2297713D01*
X5439946Y2296997D01*
X5441034Y2296547D01*
X5442200Y2296393D01*
X5443367Y2296547D01*
X5444453Y2296997D01*
X5444711Y2297194D01*
X5445041Y2296819D01*
X5444064Y2295842D01*
X5415369D01*
Y2298450D01*
X5410899D01*
Y2299199D01*
X5410150D01*
Y2303669D01*
X5403642D01*
Y2304280D01*
X5406628D01*
Y2314120D01*
X5403642D01*
Y2315232D01*
X5409869D01*
X5409869Y2315232D01*
Y2315232D01*
X5409869D01*
X5409932D01*
X5410222Y2315232D01*
X5410222Y2315232D01*
Y2315232D01*
X5414150D01*
Y2319699D01*
Y2324169D01*
X5410222D01*
X5410222Y2324169D01*
Y2324169D01*
X5409932Y2324169D01*
X5409900D01*
X5409869D01*
X5409578Y2324169D01*
X5409578Y2324169D01*
Y2324169D01*
X5401085D01*
X5400755Y2324544D01*
X5400808Y2324950D01*
X5397150D01*
Y2321292D01*
X5397567Y2321346D01*
X5398653Y2321797D01*
X5398911Y2321994D01*
X5399241Y2321618D01*
X5398961Y2321339D01*
X5398525Y2320771D01*
X5398251Y2320110D01*
X5398158Y2319400D01*
Y2314120D01*
X5395171D01*
Y2311942D01*
X5382436D01*
X5381742Y2312636D01*
Y2315132D01*
X5383968D01*
Y2315132D01*
X5383968D01*
X5383968Y2315132D01*
X5384032D01*
Y2315132D01*
X5388250D01*
Y2319599D01*
Y2324068D01*
X5384032D01*
D01*
D01*
X5384032Y2324068D01*
X5383968D01*
Y2324068D01*
X5374031D01*
Y2321742D01*
X5371500D01*
X5370790Y2321648D01*
X5370597Y2321568D01*
X5370129Y2321375D01*
X5369561Y2320939D01*
X5368661Y2320039D01*
X5368225Y2319471D01*
X5367952Y2318810D01*
X5367858Y2318100D01*
Y2305836D01*
X5366664Y2304642D01*
X5361620D01*
Y2307628D01*
X5352468D01*
Y2309150D01*
X5347999D01*
Y2309899D01*
X5347250D01*
Y2314368D01*
X5343531D01*
Y2312169D01*
X5337342D01*
Y2329033D01*
X5337790Y2329254D01*
X5338646Y2328597D01*
X5339734Y2328147D01*
X5340150Y2328092D01*
Y2332501D01*
X5341650D01*
Y2328092D01*
X5342067Y2328147D01*
X5343153Y2328597D01*
X5344087Y2329313D01*
X5344803Y2330247D01*
X5345141Y2331062D01*
X5345631Y2330965D01*
Y2328831D01*
X5349350D01*
Y2333301D01*
X5350850D01*
Y2328831D01*
X5362968D01*
Y2337769D01*
X5362669D01*
Y2339383D01*
X5364700D01*
X5365663Y2339575D01*
X5366480Y2340120D01*
X5366480Y2340120D01*
X5366480Y2340120D01*
X5368980Y2342620D01*
X5369525Y2343437D01*
X5369717Y2344400D01*
Y2353057D01*
X5374842Y2358183D01*
X5376759D01*
X5376995Y2357742D01*
D02*
G37*
G36*
X5561258Y2358427D02*
Y2353897D01*
X5560242Y2353477D01*
X5559100Y2352600D01*
X5558223Y2351458D01*
X5557672Y2350128D01*
X5557484Y2348700D01*
X5557672Y2347272D01*
X5558223Y2345942D01*
X5559100Y2344800D01*
X5559306Y2344642D01*
X5559145Y2344168D01*
X5557531D01*
Y2341442D01*
X5552269D01*
Y2343531D01*
Y2350091D01*
X5560796Y2358618D01*
X5561258Y2358427D01*
D02*
G37*
G36*
X5218061Y2387361D02*
X5218629Y2386925D01*
X5219290Y2386651D01*
X5220000Y2386558D01*
X5249209D01*
X5249430Y2386110D01*
X5248623Y2385058D01*
X5248072Y2383728D01*
X5247954Y2382828D01*
X5247213Y2382087D01*
X5246497Y2381153D01*
X5246046Y2380066D01*
X5245893Y2378900D01*
Y2377319D01*
X5244682D01*
Y2376107D01*
X5237200D01*
X5236034Y2375953D01*
X5234946Y2375503D01*
X5234013Y2374787D01*
X5232633Y2373407D01*
X5218900D01*
X5217733Y2373253D01*
X5217097Y2372990D01*
X5216647Y2372803D01*
X5215713Y2372087D01*
X5213845Y2370218D01*
X5209782D01*
Y2359807D01*
X5186617D01*
X5186097Y2360234D01*
X5185071Y2360782D01*
X5183958Y2361120D01*
X5182800Y2361234D01*
X5181642Y2361120D01*
X5180529Y2360782D01*
X5179503Y2360234D01*
X5178604Y2359496D01*
X5177866Y2358597D01*
X5177317Y2357571D01*
X5176980Y2356458D01*
X5176866Y2355300D01*
X5176980Y2354142D01*
X5177317Y2353029D01*
X5177866Y2352003D01*
X5178604Y2351104D01*
X5179503Y2350366D01*
X5180529Y2349818D01*
X5181642Y2349480D01*
X5182800Y2349366D01*
X5183958Y2349480D01*
X5185071Y2349818D01*
X5186097Y2350366D01*
X5186617Y2350793D01*
X5211910D01*
X5212368Y2350442D01*
X5213638Y2349916D01*
X5215000Y2349737D01*
X5216362Y2349916D01*
X5217632Y2350442D01*
X5217699Y2350493D01*
X5229000D01*
X5230167Y2350647D01*
X5231253Y2351097D01*
X5232187Y2351813D01*
X5236367Y2355993D01*
X5245998D01*
X5246219Y2355544D01*
X5245405Y2354484D01*
X5244829Y2353093D01*
X5244632Y2351600D01*
X5244829Y2350107D01*
X5245405Y2348716D01*
X5246321Y2347522D01*
X5247516Y2346605D01*
X5248907Y2346029D01*
X5250400Y2345832D01*
X5251893Y2346029D01*
X5253284Y2346605D01*
X5253920Y2347093D01*
X5259132D01*
Y2346931D01*
X5263307D01*
X5263600Y2346893D01*
X5263893Y2346931D01*
X5268068D01*
Y2347993D01*
X5278281D01*
Y2347281D01*
X5288718D01*
Y2357718D01*
X5286619D01*
X5286458Y2358192D01*
X5287222Y2358778D01*
X5288058Y2359868D01*
X5288584Y2361138D01*
X5288763Y2362500D01*
X5288584Y2363862D01*
X5288058Y2365132D01*
X5287222Y2366222D01*
X5286132Y2367058D01*
X5284862Y2367584D01*
X5283500Y2367764D01*
X5282138Y2367584D01*
X5280868Y2367058D01*
X5280801Y2367007D01*
X5275500D01*
X5274334Y2366854D01*
X5273246Y2366403D01*
X5272313Y2365687D01*
X5270933Y2364307D01*
X5265467D01*
X5264987Y2364787D01*
X5264053Y2365503D01*
X5262967Y2365953D01*
X5261800Y2366107D01*
X5256118D01*
Y2377319D01*
X5256118Y2377319D01*
X5256118D01*
X5256084Y2377493D01*
X5256158Y2377523D01*
X5257300Y2378400D01*
X5258177Y2379542D01*
X5258728Y2380872D01*
X5258916Y2382300D01*
X5258728Y2383728D01*
X5258177Y2385058D01*
X5257300Y2386200D01*
X5257422Y2386558D01*
X5261864D01*
X5274661Y2373761D01*
X5275229Y2373325D01*
X5275697Y2373132D01*
X5275890Y2373051D01*
X5276600Y2372958D01*
X5313164D01*
X5318258Y2367864D01*
Y2362936D01*
X5317768Y2362838D01*
X5317677Y2363058D01*
X5316800Y2364200D01*
X5315658Y2365077D01*
X5314328Y2365628D01*
X5312900Y2365816D01*
X5309900D01*
X5308472Y2365628D01*
X5307142Y2365077D01*
X5306000Y2364200D01*
X5305305Y2363294D01*
X5300700D01*
X5299925Y2363192D01*
X5299564Y2363042D01*
X5299203Y2362893D01*
X5298583Y2362417D01*
X5293883Y2357717D01*
X5293407Y2357097D01*
X5293195Y2356586D01*
X5293108Y2356375D01*
X5293006Y2355600D01*
Y2340040D01*
X5286660Y2333694D01*
X5261858D01*
X5261828Y2333928D01*
X5261277Y2335258D01*
X5260400Y2336400D01*
X5259258Y2337277D01*
X5257928Y2337828D01*
X5256500Y2338016D01*
X5255072Y2337828D01*
X5253742Y2337277D01*
X5252600Y2336400D01*
X5251723Y2335258D01*
X5251172Y2333928D01*
X5250984Y2332500D01*
X5251172Y2331072D01*
X5251723Y2329742D01*
X5251993Y2329391D01*
Y2327767D01*
X5249813Y2325587D01*
X5249097Y2324653D01*
X5249036Y2324507D01*
X5241219D01*
Y2325219D01*
X5230782D01*
Y2314782D01*
X5232881D01*
X5233042Y2314308D01*
X5232278Y2313722D01*
X5231441Y2312632D01*
X5230916Y2311362D01*
X5230835Y2310750D01*
X5241165D01*
X5241084Y2311362D01*
X5240558Y2312632D01*
X5239722Y2313722D01*
X5238632Y2314558D01*
X5238676Y2314782D01*
X5241219D01*
Y2315493D01*
X5248531D01*
Y2314532D01*
Y2311350D01*
X5257468D01*
Y2314493D01*
X5263233D01*
X5264493Y2313233D01*
Y2304100D01*
X5264647Y2302934D01*
X5265097Y2301847D01*
X5265813Y2300913D01*
X5268296Y2298430D01*
X5263560Y2293694D01*
X5239540D01*
X5237317Y2295917D01*
X5236697Y2296393D01*
X5236186Y2296605D01*
X5235975Y2296692D01*
X5235200Y2296794D01*
X5148700D01*
Y2396058D01*
X5209364D01*
X5218061Y2387361D01*
D02*
G37*
G36*
X5376561Y2378548D02*
Y2377820D01*
Y2373300D01*
Y2368780D01*
X5376753Y2367817D01*
X5377298Y2367001D01*
X5378115Y2366455D01*
X5379078Y2366264D01*
X5380041Y2366455D01*
X5380062Y2366469D01*
X5380083Y2366455D01*
X5381047Y2366264D01*
X5382010Y2366455D01*
X5382031Y2366469D01*
X5382052Y2366455D01*
X5383015Y2366264D01*
X5383978Y2366455D01*
X5383999Y2366469D01*
X5384020Y2366455D01*
X5384983Y2366264D01*
X5385947Y2366455D01*
X5385963Y2366466D01*
X5386404Y2366230D01*
Y2363563D01*
X5386058Y2363217D01*
X5373800D01*
X5372868Y2363031D01*
X5372632Y2363472D01*
X5372885Y2363726D01*
X5373431Y2364542D01*
X5373623Y2365506D01*
Y2378756D01*
X5375625D01*
X5376175Y2378865D01*
X5376561Y2378548D01*
D02*
G37*
G36*
X5364443Y2380037D02*
X5364806Y2379493D01*
X5365623Y2378947D01*
X5366586Y2378756D01*
X5368589D01*
Y2366548D01*
X5365757Y2363717D01*
X5361969D01*
Y2365668D01*
X5361869D01*
Y2373432D01*
X5362069D01*
Y2378209D01*
X5363945Y2380086D01*
X5364443Y2380037D01*
D02*
G37*
G36*
X5322361Y2375761D02*
X5322929Y2375325D01*
X5323052Y2375274D01*
Y2372732D01*
X5331858D01*
Y2357068D01*
X5323742D01*
Y2369000D01*
X5323648Y2369710D01*
X5323375Y2370371D01*
X5322939Y2370939D01*
X5316782Y2377096D01*
X5316973Y2377558D01*
X5320564D01*
X5322361Y2375761D01*
D02*
G37*
G36*
X5230032Y2362405D02*
X5227133Y2359507D01*
X5220219D01*
Y2359781D01*
X5220219D01*
Y2363845D01*
X5220767Y2364393D01*
X5230032D01*
Y2362405D01*
D02*
G37*
G36*
X5521606Y2382393D02*
Y2360956D01*
X5521115Y2360858D01*
X5520703Y2361853D01*
X5519987Y2362787D01*
X5519054Y2363503D01*
X5518717Y2363643D01*
Y2380157D01*
X5521144Y2382585D01*
X5521606Y2382393D01*
D02*
G37*
G36*
X5353913Y2453813D02*
X5354631Y2453262D01*
Y2450450D01*
X5359101D01*
Y2448950D01*
X5354631D01*
Y2445231D01*
Y2436831D01*
X5364883D01*
Y2435378D01*
X5364113Y2434787D01*
X5363397Y2433854D01*
X5362946Y2432767D01*
X5362793Y2431600D01*
X5362946Y2430433D01*
X5363397Y2429346D01*
X5364113Y2428413D01*
X5365046Y2427697D01*
X5366133Y2427246D01*
X5367300Y2427093D01*
X5368137Y2427203D01*
X5368589Y2426752D01*
Y2421191D01*
X5366586D01*
X5365623Y2420999D01*
X5364806Y2420454D01*
X5364260Y2419637D01*
X5364178Y2419222D01*
X5361837D01*
X5355947Y2425113D01*
X5356107Y2425586D01*
X5356567Y2425647D01*
X5357653Y2426097D01*
X5358587Y2426813D01*
X5359303Y2427747D01*
X5359753Y2428834D01*
X5359907Y2430000D01*
X5359753Y2431166D01*
X5359303Y2432253D01*
X5358587Y2433187D01*
X5357653Y2433903D01*
X5356567Y2434353D01*
X5355400Y2434507D01*
X5354651Y2434409D01*
X5353017Y2436043D01*
Y2454203D01*
X5353490Y2454364D01*
X5353913Y2453813D01*
D02*
G37*
G36*
X5374361Y2449167D02*
X5373946Y2448166D01*
X5373793Y2447000D01*
X5373946Y2445834D01*
X5374397Y2444747D01*
X5375113Y2443813D01*
X5376046Y2443097D01*
X5377134Y2442646D01*
X5378300Y2442493D01*
X5379467Y2442646D01*
X5379698Y2442743D01*
X5380498Y2441942D01*
Y2436992D01*
X5379999Y2436960D01*
X5379853Y2438066D01*
X5379403Y2439153D01*
X5378687Y2440087D01*
X5377753Y2440803D01*
X5376667Y2441253D01*
X5375500Y2441407D01*
X5374334Y2441253D01*
X5373246Y2440803D01*
X5372317Y2440090D01*
X5371869Y2440311D01*
Y2445231D01*
Y2449583D01*
X5374083D01*
X5374361Y2449167D01*
D02*
G37*
G36*
X5613399Y2460646D02*
Y2284800D01*
X5613399Y2284800D01*
X5613399Y2284800D01*
X5613239Y2284500D01*
X5149054Y2284300D01*
X5148700Y2284654D01*
Y2290806D01*
X5233960D01*
X5236183Y2288583D01*
X5236803Y2288107D01*
X5237102Y2287983D01*
X5237525Y2287808D01*
X5238300Y2287706D01*
X5264800D01*
X5265575Y2287808D01*
X5265786Y2287896D01*
X5266297Y2288107D01*
X5266917Y2288583D01*
X5273359Y2295025D01*
X5273600Y2294993D01*
X5280846D01*
X5281197Y2294147D01*
X5281913Y2293213D01*
X5282213Y2292913D01*
X5283147Y2292197D01*
X5283597Y2292010D01*
X5284233Y2291747D01*
X5285400Y2291593D01*
X5289380D01*
Y2290372D01*
X5299220D01*
Y2290572D01*
X5302758D01*
X5303247Y2290197D01*
X5304333Y2289746D01*
X5305500Y2289593D01*
X5313800D01*
X5314853Y2289731D01*
X5320169D01*
Y2298469D01*
D01*
Y2298469D01*
X5320293Y2298593D01*
X5331831D01*
Y2294032D01*
X5344569D01*
Y2297032D01*
X5351780D01*
Y2296172D01*
X5361620D01*
Y2299158D01*
X5367800D01*
X5368510Y2299252D01*
X5369171Y2299525D01*
X5369739Y2299961D01*
X5372539Y2302761D01*
X5372975Y2303329D01*
X5373249Y2303990D01*
X5373342Y2304700D01*
Y2316258D01*
X5374031D01*
Y2315132D01*
X5376258D01*
Y2311500D01*
X5376352Y2310790D01*
X5376625Y2310129D01*
X5377061Y2309561D01*
X5379361Y2307261D01*
X5379929Y2306825D01*
X5380590Y2306552D01*
X5381300Y2306458D01*
X5395171D01*
Y2304280D01*
X5398158D01*
Y2303669D01*
X5398032D01*
Y2294732D01*
X5399758D01*
Y2294100D01*
X5399852Y2293390D01*
X5400126Y2292729D01*
X5400561Y2292161D01*
X5401561Y2291161D01*
X5402129Y2290725D01*
X5402597Y2290532D01*
X5402790Y2290451D01*
X5403500Y2290358D01*
X5445200D01*
X5445910Y2290451D01*
X5446571Y2290725D01*
X5447139Y2291161D01*
X5453039Y2297061D01*
X5453474Y2297629D01*
X5453748Y2298290D01*
X5453842Y2299000D01*
Y2304631D01*
X5455568D01*
Y2306583D01*
X5460558D01*
X5463280Y2303860D01*
X5463248Y2303361D01*
X5462790Y2303010D01*
X5462001Y2301982D01*
X5461506Y2300785D01*
X5461336Y2299500D01*
X5461506Y2298215D01*
X5462001Y2297018D01*
X5462790Y2295990D01*
X5463818Y2295201D01*
X5465015Y2294705D01*
X5466300Y2294536D01*
X5467585Y2294705D01*
X5468782Y2295201D01*
X5469810Y2295990D01*
X5470599Y2297018D01*
X5471050Y2298108D01*
X5471550D01*
X5472001Y2297018D01*
X5472790Y2295990D01*
X5473818Y2295201D01*
X5475015Y2294705D01*
X5475550Y2294635D01*
Y2299499D01*
Y2304365D01*
X5475015Y2304295D01*
X5473818Y2303799D01*
X5472790Y2303010D01*
X5472001Y2301982D01*
X5471550Y2300892D01*
X5471050D01*
X5470599Y2301982D01*
X5469810Y2303010D01*
X5468817Y2303772D01*
Y2304400D01*
X5468625Y2305363D01*
X5468080Y2306180D01*
X5463380Y2310880D01*
X5462563Y2311425D01*
X5461600Y2311617D01*
X5455568D01*
Y2313568D01*
X5438568D01*
Y2313668D01*
X5436583D01*
X5436425Y2314463D01*
X5435880Y2315280D01*
X5433080Y2318080D01*
X5432263Y2318625D01*
X5431300Y2318817D01*
X5426717D01*
Y2333871D01*
X5427179Y2334062D01*
X5429820Y2331420D01*
X5429820Y2331420D01*
X5429820D01*
X5429820Y2331420D01*
X5429820D01*
X5429820Y2331420D01*
Y2331420D01*
Y2331420D01*
D01*
D01*
X5429820D01*
Y2331420D01*
X5430637Y2330875D01*
X5431600Y2330683D01*
X5436023D01*
X5436123Y2330442D01*
X5437000Y2329300D01*
X5438142Y2328423D01*
X5439473Y2327872D01*
X5440900Y2327684D01*
X5442327Y2327872D01*
X5443658Y2328423D01*
X5444800Y2329300D01*
X5445612Y2330358D01*
X5453732D01*
Y2328632D01*
X5465850D01*
Y2333099D01*
Y2337568D01*
X5453732D01*
Y2335842D01*
X5445725D01*
X5445677Y2335958D01*
X5444800Y2337100D01*
X5443658Y2337977D01*
X5442327Y2338528D01*
X5440900Y2338716D01*
X5439473Y2338528D01*
X5438142Y2337977D01*
X5437000Y2337100D01*
X5436123Y2335958D01*
X5436023Y2335717D01*
X5432642D01*
X5430817Y2337543D01*
Y2360700D01*
X5430625Y2361663D01*
X5430080Y2362480D01*
X5427280Y2365280D01*
X5426463Y2365825D01*
X5425500Y2366017D01*
X5417648D01*
X5417503Y2366495D01*
X5418259Y2367001D01*
X5418805Y2367817D01*
X5418996Y2368780D01*
Y2370783D01*
X5433057D01*
X5438383Y2365458D01*
Y2358077D01*
X5438142Y2357977D01*
X5437000Y2357100D01*
X5436123Y2355958D01*
X5435572Y2354628D01*
X5435384Y2353200D01*
X5435572Y2351772D01*
X5436123Y2350442D01*
X5437000Y2349300D01*
X5438142Y2348423D01*
X5439473Y2347872D01*
X5440900Y2347684D01*
X5442327Y2347872D01*
X5443658Y2348423D01*
X5444800Y2349300D01*
X5445677Y2350442D01*
X5445725Y2350558D01*
X5453532D01*
Y2348832D01*
X5465650D01*
Y2353299D01*
Y2357768D01*
X5453532D01*
Y2356042D01*
X5445612D01*
X5444800Y2357100D01*
X5443658Y2357977D01*
X5443417Y2358077D01*
Y2366500D01*
X5443346Y2366854D01*
X5443733Y2367171D01*
X5444033Y2367047D01*
X5445200Y2366893D01*
X5446367Y2367047D01*
X5447454Y2367497D01*
X5448387Y2368213D01*
X5449103Y2369147D01*
X5449554Y2370234D01*
X5449707Y2371400D01*
X5449554Y2372566D01*
X5449103Y2373653D01*
X5448387Y2374587D01*
X5447454Y2375303D01*
X5446367Y2375754D01*
X5445200Y2375907D01*
X5444959Y2375875D01*
X5444565Y2376270D01*
X5444756Y2376731D01*
X5448150D01*
Y2381199D01*
Y2385669D01*
X5436031D01*
Y2383789D01*
X5431522D01*
X5431286Y2384230D01*
X5431297Y2384246D01*
X5431488Y2385209D01*
X5431297Y2386173D01*
X5431283Y2386194D01*
X5431297Y2386215D01*
X5431339Y2386428D01*
X5431126D01*
X5430751Y2386989D01*
X5430469Y2387178D01*
X5430751Y2387367D01*
X5431127Y2387928D01*
X5431339D01*
X5431297Y2388141D01*
X5431283Y2388162D01*
X5431297Y2388183D01*
X5431488Y2389146D01*
X5431297Y2390110D01*
X5431283Y2390131D01*
X5431297Y2390152D01*
X5431488Y2391115D01*
X5431297Y2392078D01*
X5431283Y2392099D01*
X5431297Y2392120D01*
X5431488Y2393083D01*
X5431297Y2394047D01*
X5431283Y2394068D01*
X5431297Y2394089D01*
X5431488Y2395052D01*
X5431297Y2396015D01*
X5431283Y2396036D01*
X5431297Y2396057D01*
X5431488Y2397020D01*
X5431297Y2397984D01*
X5431283Y2398005D01*
X5431297Y2398026D01*
X5431379Y2398441D01*
X5450641D01*
X5450919Y2398025D01*
X5450647Y2397367D01*
X5450592Y2396950D01*
X5459408D01*
X5459354Y2397367D01*
X5458903Y2398454D01*
X5458187Y2399387D01*
X5457254Y2400103D01*
X5457186Y2400443D01*
X5459780Y2403036D01*
X5460325Y2403853D01*
X5460517Y2404816D01*
Y2418400D01*
X5460517Y2418400D01*
X5460517Y2418400D01*
Y2418400D01*
X5460517D01*
X5460517Y2418400D01*
X5460325Y2419363D01*
X5459780Y2420180D01*
X5443417Y2436543D01*
Y2455252D01*
X5443879Y2455444D01*
X5457602Y2441721D01*
X5457397Y2441454D01*
X5456947Y2440367D01*
X5456793Y2439200D01*
X5456947Y2438033D01*
X5457397Y2436946D01*
X5458113Y2436013D01*
X5459047Y2435297D01*
X5460133Y2434846D01*
X5461300Y2434693D01*
X5462466Y2434846D01*
X5463554Y2435297D01*
X5464487Y2436013D01*
X5464985Y2436662D01*
X5465458Y2436501D01*
Y2431250D01*
X5465551Y2430541D01*
X5465825Y2429879D01*
X5466261Y2429311D01*
X5471996Y2423577D01*
X5472102Y2423439D01*
X5472161Y2423361D01*
X5475961Y2419561D01*
X5476529Y2419125D01*
X5477190Y2418851D01*
X5477900Y2418758D01*
X5480772D01*
X5481113Y2418313D01*
X5482047Y2417597D01*
X5483133Y2417146D01*
X5484300Y2416993D01*
X5485466Y2417146D01*
X5486554Y2417597D01*
X5487483Y2418310D01*
X5487931Y2418089D01*
Y2414631D01*
Y2411450D01*
X5496869D01*
Y2414631D01*
Y2416358D01*
X5499200D01*
X5499910Y2416451D01*
X5500200Y2416571D01*
X5507320D01*
Y2417649D01*
X5507782Y2417840D01*
X5509232Y2416391D01*
Y2411332D01*
Y2402932D01*
X5514609D01*
X5517483Y2400057D01*
Y2398825D01*
X5517035Y2398604D01*
X5516254Y2399203D01*
X5515166Y2399653D01*
X5514750Y2399708D01*
Y2395299D01*
Y2390892D01*
X5515166Y2390947D01*
X5516254Y2391397D01*
X5517035Y2391996D01*
X5517483Y2391775D01*
Y2386043D01*
X5514420Y2382980D01*
X5513875Y2382163D01*
X5513683Y2381200D01*
Y2362841D01*
X5513613Y2362787D01*
X5512897Y2361853D01*
X5512447Y2360766D01*
X5512293Y2359600D01*
X5512447Y2358434D01*
X5512897Y2357347D01*
X5513613Y2356413D01*
X5514547Y2355697D01*
X5514576Y2355684D01*
X5514479Y2355194D01*
X5487940D01*
X5478946Y2364188D01*
X5479167Y2364637D01*
X5479500Y2364593D01*
X5480666Y2364746D01*
X5481754Y2365197D01*
X5482687Y2365913D01*
X5483403Y2366846D01*
X5483854Y2367933D01*
X5484007Y2369100D01*
X5483934Y2369656D01*
X5503973Y2389696D01*
X5504333Y2389547D01*
X5505500Y2389393D01*
X5506667Y2389547D01*
X5507753Y2389997D01*
X5508687Y2390713D01*
X5509403Y2391647D01*
X5509832Y2392681D01*
X5510043Y2392709D01*
X5510391Y2392663D01*
X5510813Y2392113D01*
X5511747Y2391397D01*
X5512833Y2390947D01*
X5513250Y2390892D01*
Y2395299D01*
Y2399708D01*
X5512833Y2399653D01*
X5511747Y2399203D01*
X5510813Y2398487D01*
X5510097Y2397553D01*
X5509668Y2396519D01*
X5509457Y2396491D01*
X5509109Y2396537D01*
X5508687Y2397087D01*
X5507753Y2397803D01*
X5506667Y2398253D01*
X5505500Y2398407D01*
X5504333Y2398253D01*
X5503247Y2397803D01*
X5502313Y2397087D01*
X5501597Y2396153D01*
X5501146Y2395066D01*
X5501080Y2394557D01*
X5480056Y2373534D01*
X5479500Y2373607D01*
X5478334Y2373454D01*
X5477246Y2373003D01*
X5476313Y2372287D01*
X5475597Y2371354D01*
X5475285Y2370600D01*
X5474794Y2370697D01*
Y2372165D01*
X5474987Y2372313D01*
X5475703Y2373247D01*
X5476154Y2374334D01*
X5476307Y2375500D01*
X5476154Y2376666D01*
X5475703Y2377753D01*
X5474987Y2378687D01*
X5474054Y2379403D01*
X5472966Y2379853D01*
X5471800Y2380007D01*
X5470633Y2379853D01*
X5469547Y2379403D01*
X5468613Y2378687D01*
X5467897Y2377753D01*
X5467447Y2376666D01*
X5467293Y2375500D01*
X5467447Y2374334D01*
X5467897Y2373247D01*
X5468613Y2372313D01*
X5468806Y2372165D01*
Y2367100D01*
X5468908Y2366325D01*
X5468996Y2366114D01*
X5469207Y2365603D01*
X5469683Y2364983D01*
X5484583Y2350083D01*
X5485203Y2349607D01*
X5485502Y2349483D01*
X5485925Y2349308D01*
X5486700Y2349206D01*
X5522500D01*
X5523275Y2349308D01*
X5523486Y2349396D01*
X5523997Y2349607D01*
X5524617Y2350083D01*
X5526717Y2352183D01*
X5527193Y2352803D01*
X5527404Y2353314D01*
X5527492Y2353525D01*
X5527594Y2354300D01*
Y2373367D01*
X5528093Y2373400D01*
X5528093Y2373400D01*
D01*
X5528247Y2372234D01*
X5528697Y2371147D01*
X5529413Y2370213D01*
X5530083Y2369699D01*
Y2360600D01*
X5530275Y2359637D01*
X5530820Y2358820D01*
X5533720Y2355920D01*
X5534537Y2355375D01*
X5535500Y2355183D01*
X5547500D01*
X5548463Y2355375D01*
X5549280Y2355920D01*
X5550480Y2357120D01*
X5551025Y2357937D01*
X5551217Y2358900D01*
X5551217Y2358900D01*
X5551217Y2358900D01*
Y2358900D01*
Y2360104D01*
X5551500D01*
X5552327Y2360213D01*
X5553098Y2360532D01*
X5553760Y2361040D01*
X5554268Y2361702D01*
X5554587Y2362473D01*
X5554696Y2363300D01*
X5554587Y2364127D01*
X5554268Y2364898D01*
X5553760Y2365560D01*
Y2366040D01*
X5554268Y2366702D01*
X5554587Y2367473D01*
X5554696Y2368300D01*
X5554587Y2369127D01*
X5554268Y2369898D01*
X5553760Y2370560D01*
Y2371040D01*
X5554268Y2371702D01*
X5554587Y2372473D01*
X5554696Y2373300D01*
X5554587Y2374127D01*
X5554268Y2374898D01*
X5553760Y2375560D01*
Y2376040D01*
X5554268Y2376702D01*
X5554587Y2377473D01*
X5554696Y2378300D01*
X5554587Y2379127D01*
X5554268Y2379898D01*
X5553760Y2380560D01*
X5553098Y2381068D01*
X5552327Y2381387D01*
X5551500Y2381496D01*
X5545900D01*
X5545073Y2381387D01*
X5544302Y2381068D01*
X5544161Y2380959D01*
X5543665Y2381025D01*
X5543387Y2381387D01*
X5542453Y2382103D01*
X5541367Y2382553D01*
X5540200Y2382707D01*
X5539034Y2382553D01*
X5537946Y2382103D01*
X5537013Y2381387D01*
X5536297Y2380453D01*
X5535846Y2379366D01*
X5535693Y2378200D01*
X5535833Y2377134D01*
X5535400Y2376884D01*
X5534853Y2377303D01*
X5533767Y2377753D01*
X5532600Y2377907D01*
X5531433Y2377753D01*
X5530347Y2377303D01*
X5529413Y2376587D01*
X5528697Y2375653D01*
X5528247Y2374566D01*
X5528093Y2373400D01*
X5527594Y2373433D01*
Y2394660D01*
X5536040Y2403106D01*
X5566560D01*
X5567606Y2402060D01*
Y2400420D01*
X5564872D01*
Y2391068D01*
X5562850D01*
Y2386599D01*
Y2382132D01*
X5568183D01*
Y2381496D01*
X5567900D01*
X5567073Y2381387D01*
X5566302Y2381068D01*
X5565640Y2380560D01*
X5565132Y2379898D01*
X5564813Y2379127D01*
X5564704Y2378300D01*
X5564813Y2377473D01*
X5565132Y2376702D01*
X5565295Y2376490D01*
X5565074Y2376042D01*
X5562600D01*
X5562600Y2376042D01*
X5561890Y2375949D01*
X5561229Y2375675D01*
X5560661Y2375239D01*
X5558761Y2373339D01*
X5558326Y2372771D01*
X5558052Y2372110D01*
X5557958Y2371400D01*
Y2363536D01*
X5546891Y2352468D01*
X5543332D01*
Y2343531D01*
Y2335131D01*
X5552269D01*
Y2335958D01*
X5557531D01*
Y2333232D01*
X5571468D01*
Y2344168D01*
X5569855D01*
X5569695Y2344642D01*
X5569900Y2344800D01*
X5570777Y2345942D01*
X5570990Y2346458D01*
X5580000D01*
X5580710Y2346552D01*
X5581371Y2346825D01*
X5581939Y2347261D01*
X5584239Y2349561D01*
X5584674Y2350129D01*
X5584948Y2350790D01*
X5585042Y2351500D01*
Y2353032D01*
X5586768D01*
Y2354758D01*
X5589000D01*
X5589710Y2354852D01*
X5590371Y2355125D01*
X5590939Y2355561D01*
X5592780Y2357402D01*
X5593279Y2357370D01*
X5594100Y2356300D01*
X5595242Y2355423D01*
X5596572Y2354872D01*
X5598000Y2354684D01*
X5601000D01*
X5602428Y2354872D01*
X5603758Y2355423D01*
X5604900Y2356300D01*
X5605777Y2357442D01*
X5606328Y2358772D01*
X5606516Y2360200D01*
X5606328Y2361628D01*
X5605777Y2362958D01*
X5604900Y2364100D01*
X5603758Y2364977D01*
Y2365423D01*
X5604900Y2366300D01*
X5605777Y2367442D01*
X5606328Y2368772D01*
X5606417Y2369450D01*
X5592583D01*
X5592672Y2368772D01*
X5593223Y2367442D01*
X5594100Y2366300D01*
X5595207Y2365450D01*
Y2364950D01*
X5594100Y2364100D01*
X5593223Y2362958D01*
X5593217Y2362942D01*
X5591700D01*
X5590990Y2362848D01*
X5590329Y2362575D01*
X5589761Y2362139D01*
X5587864Y2360242D01*
X5586768D01*
Y2361432D01*
Y2365150D01*
X5577832D01*
Y2361432D01*
Y2353032D01*
X5579301D01*
X5579492Y2352570D01*
X5578864Y2351942D01*
X5570405D01*
X5569900Y2352600D01*
X5568758Y2353477D01*
X5567427Y2354028D01*
X5566742Y2354118D01*
Y2359878D01*
X5567118Y2360207D01*
X5567900Y2360104D01*
X5569950D01*
Y2363301D01*
X5570699D01*
Y2364050D01*
X5576597D01*
X5576587Y2364127D01*
X5576268Y2364898D01*
X5575760Y2365560D01*
Y2366040D01*
X5576268Y2366702D01*
X5576587Y2367473D01*
X5576696Y2368300D01*
X5576587Y2369127D01*
X5576268Y2369898D01*
X5575760Y2370560D01*
X5575765Y2370580D01*
X5576310Y2370651D01*
X5576971Y2370925D01*
X5577383Y2371242D01*
X5577832Y2371020D01*
Y2370032D01*
Y2366650D01*
X5586768D01*
Y2370032D01*
Y2373750D01*
X5582299D01*
Y2375250D01*
X5586768D01*
Y2378432D01*
Y2380158D01*
X5592532D01*
Y2374731D01*
X5594145D01*
X5594305Y2374258D01*
X5594100Y2374100D01*
X5593223Y2372958D01*
X5592672Y2371628D01*
X5592583Y2370950D01*
X5606417D01*
X5606328Y2371628D01*
X5605777Y2372958D01*
X5604900Y2374100D01*
X5604694Y2374258D01*
X5604855Y2374731D01*
X5606469D01*
Y2385669D01*
X5592532D01*
Y2385642D01*
X5586768D01*
Y2387369D01*
X5577832D01*
Y2384609D01*
X5575430Y2382208D01*
X5574968Y2382400D01*
Y2390580D01*
X5576329D01*
Y2400420D01*
X5573594D01*
Y2403300D01*
X5573492Y2404075D01*
X5573404Y2404286D01*
X5573193Y2404797D01*
X5572717Y2405417D01*
X5569917Y2408217D01*
X5569297Y2408693D01*
X5568786Y2408904D01*
X5568575Y2408992D01*
X5567800Y2409094D01*
X5534800D01*
X5534025Y2408992D01*
X5533813Y2408904D01*
X5533303Y2408693D01*
X5532683Y2408217D01*
X5532060Y2407594D01*
X5531587Y2407755D01*
X5531607Y2407600D01*
X5531538Y2407072D01*
X5531315Y2406850D01*
X5527850D01*
Y2403385D01*
X5527628Y2403162D01*
X5527100Y2403093D01*
X5526945Y2403113D01*
X5527106Y2402640D01*
X5522979Y2398513D01*
X5522517Y2398705D01*
Y2401100D01*
X5522325Y2402063D01*
X5521780Y2402880D01*
X5518169Y2406491D01*
Y2411332D01*
Y2420268D01*
X5513109D01*
X5509139Y2424239D01*
X5508571Y2424675D01*
X5507910Y2424949D01*
X5507320Y2425026D01*
Y2428028D01*
X5505142D01*
Y2430041D01*
X5505944Y2430656D01*
X5506740Y2431694D01*
X5507150Y2432684D01*
X5507650D01*
X5508060Y2431694D01*
X5508857Y2430656D01*
X5509894Y2429860D01*
X5511103Y2429359D01*
X5512400Y2429189D01*
X5513697Y2429359D01*
X5514906Y2429860D01*
X5515944Y2430656D01*
X5516740Y2431694D01*
X5517150Y2432684D01*
X5517650D01*
X5518060Y2431694D01*
X5518856Y2430656D01*
X5519894Y2429860D01*
X5521103Y2429359D01*
X5522400Y2429189D01*
X5523697Y2429359D01*
X5524906Y2429860D01*
X5525944Y2430656D01*
X5526740Y2431694D01*
X5527150Y2432684D01*
X5527650D01*
X5528060Y2431694D01*
X5528856Y2430656D01*
X5529894Y2429860D01*
X5531103Y2429359D01*
X5532400Y2429189D01*
X5533697Y2429359D01*
X5534906Y2429860D01*
X5535944Y2430656D01*
X5536740Y2431694D01*
X5537150Y2432684D01*
X5537650D01*
X5538060Y2431694D01*
X5538857Y2430656D01*
X5539894Y2429860D01*
X5541103Y2429359D01*
X5541650Y2429287D01*
Y2434699D01*
Y2440113D01*
X5541103Y2440041D01*
X5539894Y2439540D01*
X5538857Y2438744D01*
X5538060Y2437706D01*
X5537650Y2436716D01*
X5537150D01*
X5536740Y2437706D01*
X5535944Y2438744D01*
X5535142Y2439359D01*
Y2440877D01*
X5535497Y2441229D01*
X5579400Y2441000D01*
Y2460900D01*
X5613045Y2460999D01*
X5613399Y2460646D01*
D02*
G37*
G36*
X5427310Y2454530D02*
X5427119Y2454069D01*
X5420432D01*
Y2451922D01*
X5419620Y2451380D01*
X5419530Y2451290D01*
X5419069Y2451481D01*
Y2453968D01*
X5415350D01*
Y2449499D01*
X5414601D01*
Y2448750D01*
X5410131D01*
Y2445032D01*
Y2436981D01*
X5409669Y2436790D01*
X5406517Y2439943D01*
Y2448091D01*
X5406893Y2448420D01*
X5406517Y2448470D01*
Y2448700D01*
X5406350Y2449540D01*
Y2452901D01*
X5407850D01*
Y2448492D01*
X5408266Y2448546D01*
X5409354Y2448997D01*
X5409683Y2449250D01*
X5410131Y2449029D01*
Y2450250D01*
X5413850D01*
Y2453968D01*
X5411466D01*
X5411454Y2454066D01*
X5411003Y2455153D01*
X5410864Y2455335D01*
X5411086Y2455783D01*
X5426057D01*
X5427310Y2454530D01*
D02*
G37*
G36*
X5529658Y2441260D02*
Y2439359D01*
X5528856Y2438744D01*
X5528060Y2437706D01*
X5527650Y2436716D01*
X5527150D01*
X5526740Y2437706D01*
X5525944Y2438744D01*
X5524906Y2439540D01*
X5523697Y2440041D01*
X5522400Y2440211D01*
X5521103Y2440041D01*
X5519894Y2439540D01*
X5518856Y2438744D01*
X5518060Y2437706D01*
X5517650Y2436716D01*
X5517150D01*
X5516740Y2437706D01*
X5515944Y2438744D01*
X5515142Y2439359D01*
Y2440981D01*
X5515496Y2441334D01*
X5529658Y2441260D01*
D02*
G37*
G36*
X5306560Y2427138D02*
X5304664Y2425242D01*
X5270536D01*
X5269742Y2426036D01*
Y2427600D01*
X5306369D01*
X5306560Y2427138D01*
D02*
G37*
G36*
X5420432Y2438394D02*
Y2436732D01*
X5422383D01*
Y2431842D01*
X5419704Y2429163D01*
X5418996D01*
Y2431166D01*
X5418805Y2432129D01*
X5418259Y2432946D01*
X5417443Y2433491D01*
X5417117Y2433556D01*
Y2436632D01*
X5419069D01*
Y2438583D01*
X5419400D01*
X5420045Y2438711D01*
X5420432Y2438394D01*
D02*
G37*
G36*
X5475516Y2441543D02*
X5475728Y2441300D01*
X5475881Y2440133D01*
X5476332Y2439046D01*
X5477048Y2438113D01*
X5477981Y2437397D01*
X5479068Y2436946D01*
X5480235Y2436793D01*
X5481401Y2436946D01*
X5482488Y2437397D01*
X5483422Y2438113D01*
X5484138Y2439046D01*
X5484588Y2440133D01*
X5484742Y2441300D01*
X5484913Y2441494D01*
X5509658Y2441364D01*
Y2439359D01*
X5508857Y2438744D01*
X5508060Y2437706D01*
X5507650Y2436716D01*
X5507150D01*
X5506740Y2437706D01*
X5505944Y2438744D01*
X5504906Y2439540D01*
X5503697Y2440041D01*
X5502400Y2440211D01*
X5501103Y2440041D01*
X5499894Y2439540D01*
X5498856Y2438744D01*
X5498060Y2437706D01*
X5497650Y2436716D01*
X5497150D01*
X5496740Y2437706D01*
X5495943Y2438744D01*
X5494906Y2439540D01*
X5493697Y2440041D01*
X5492400Y2440211D01*
X5491103Y2440041D01*
X5489894Y2439540D01*
X5488857Y2438744D01*
X5488060Y2437706D01*
X5487560Y2436497D01*
X5487389Y2435200D01*
Y2434200D01*
X5487560Y2432903D01*
X5488060Y2431694D01*
X5488857Y2430656D01*
X5489894Y2429860D01*
X5491103Y2429359D01*
X5492400Y2429189D01*
X5493697Y2429359D01*
X5494906Y2429860D01*
X5495943Y2430656D01*
X5496740Y2431694D01*
X5497150Y2432684D01*
X5497650D01*
X5498060Y2431694D01*
X5498856Y2430656D01*
X5499658Y2430041D01*
Y2428028D01*
X5497480D01*
Y2421842D01*
X5496869D01*
Y2423569D01*
X5488280D01*
X5488203Y2423754D01*
X5487487Y2424687D01*
X5486554Y2425403D01*
X5485466Y2425854D01*
X5484300Y2426007D01*
X5483133Y2425854D01*
X5482047Y2425403D01*
X5481113Y2424687D01*
X5480772Y2424242D01*
X5479036D01*
X5476255Y2427023D01*
X5476089Y2427239D01*
X5474932Y2428396D01*
X5475123Y2428858D01*
X5476372D01*
X5476713Y2428413D01*
X5477647Y2427697D01*
X5478733Y2427246D01*
X5479067Y2427203D01*
X5479190Y2427151D01*
X5479900Y2427058D01*
X5480610Y2427151D01*
X5480733Y2427203D01*
X5481067Y2427246D01*
X5482153Y2427697D01*
X5483087Y2428413D01*
X5483803Y2429346D01*
X5484253Y2430433D01*
X5484407Y2431600D01*
X5484253Y2432767D01*
X5483803Y2433854D01*
X5483087Y2434787D01*
X5482153Y2435503D01*
X5481067Y2435954D01*
X5479900Y2436107D01*
X5478733Y2435954D01*
X5477647Y2435503D01*
X5476713Y2434787D01*
X5476372Y2434342D01*
X5474442D01*
Y2441194D01*
X5474796Y2441547D01*
X5475516Y2441543D01*
D02*
G37*
G36*
X5361701Y2460936D02*
X5361847Y2459834D01*
X5362297Y2458747D01*
X5363013Y2457813D01*
X5363947Y2457097D01*
X5365033Y2456647D01*
X5366200Y2456493D01*
X5367366Y2456647D01*
X5368454Y2457097D01*
X5369387Y2457813D01*
X5369901Y2458483D01*
X5380957D01*
X5383931Y2455509D01*
X5383831Y2455268D01*
X5383831D01*
X5383831Y2455268D01*
Y2454617D01*
X5369800D01*
X5368837Y2454425D01*
X5368452Y2454169D01*
X5361125D01*
X5360904Y2454617D01*
X5361003Y2454746D01*
X5361454Y2455833D01*
X5361508Y2456250D01*
X5357099D01*
Y2457750D01*
X5361508D01*
X5361454Y2458167D01*
X5361003Y2459254D01*
X5360287Y2460187D01*
X5359916Y2460472D01*
X5360078Y2460945D01*
X5361701Y2460936D01*
D02*
G37*
G36*
X5336778Y2695065D02*
X5336813Y2694711D01*
X5336900Y2630007D01*
X5336882Y2629877D01*
X5336877Y2629735D01*
X5336777Y2629635D01*
X5336694Y2629533D01*
X5332659Y2625781D01*
X5332452Y2625623D01*
X5332364Y2625541D01*
X5332244Y2625542D01*
X5331986Y2625517D01*
X5321005Y2625561D01*
X5321005D01*
X5320036Y2625565D01*
X5319902Y2626005D01*
X5319274Y2627180D01*
Y2648574D01*
X5294326D01*
Y2623626D01*
X5297967D01*
X5298098Y2623195D01*
X5298968Y2621567D01*
X5300140Y2620140D01*
X5300829Y2619450D01*
X5300608Y2590500D01*
X5246648Y2590679D01*
X5246544Y2621655D01*
Y2621655D01*
X5246302Y2693920D01*
X5246301Y2694294D01*
X5246326Y2694499D01*
X5246328Y2694594D01*
X5246381Y2694674D01*
X5246458Y2694820D01*
X5246621Y2695009D01*
X5246663Y2695071D01*
X5246738D01*
X5247037Y2695100D01*
X5336424D01*
X5336778Y2695065D01*
D02*
G37*
G36*
X5532600Y2632512D02*
X5528159Y2628316D01*
X5516274Y2628364D01*
Y2648574D01*
X5503555D01*
X5503204Y2648930D01*
X5503223Y2650283D01*
X5497416D01*
X5497403Y2648574D01*
X5491326D01*
Y2623626D01*
X5495381D01*
Y2611400D01*
X5495381Y2611400D01*
X5495381D01*
X5495562Y2609562D01*
X5496098Y2607795D01*
X5496968Y2606167D01*
X5497084Y2606026D01*
X5496989Y2593400D01*
X5444041Y2593579D01*
X5443700Y2697205D01*
X5444041Y2697700D01*
X5532515D01*
X5532600Y2632512D01*
D02*
G37*
G36*
X5403452Y2651079D02*
X5403453D01*
Y2651079D01*
X5403453Y2651079D01*
X5403473Y2648729D01*
D01*
X5399567Y2648374D01*
X5392926D01*
Y2623426D01*
X5395481D01*
Y2562100D01*
X5395662Y2560262D01*
X5396198Y2558495D01*
X5397068Y2556867D01*
X5398240Y2555440D01*
X5414051Y2539628D01*
X5413860Y2539166D01*
X5404367D01*
X5402677Y2538999D01*
X5401051Y2538506D01*
X5399553Y2537705D01*
X5398240Y2536628D01*
X5394484Y2532871D01*
X5394228Y2533128D01*
X5392915Y2534205D01*
X5391416Y2535006D01*
X5389791Y2535499D01*
X5388100Y2535666D01*
X5352909D01*
X5351218Y2535499D01*
X5349593Y2535006D01*
X5348095Y2534205D01*
X5346781Y2533128D01*
X5327472Y2513819D01*
X5326395Y2512506D01*
X5325594Y2511007D01*
X5325101Y2509382D01*
X5324934Y2507691D01*
Y2503800D01*
X5320926D01*
Y2506234D01*
Y2519834D01*
X5320620D01*
Y2617296D01*
X5320974Y2617649D01*
X5332343Y2617604D01*
X5332988Y2617665D01*
X5333636Y2617705D01*
X5333760Y2617738D01*
X5333887Y2617750D01*
X5334508Y2617936D01*
X5335136Y2618101D01*
X5335250Y2618157D01*
X5335373Y2618194D01*
X5335946Y2618498D01*
X5336529Y2618782D01*
X5336631Y2618860D01*
X5336744Y2618920D01*
X5337247Y2619329D01*
X5337763Y2619722D01*
X5342289Y2623931D01*
X5342387Y2624043D01*
X5342502Y2624138D01*
X5342900Y2624623D01*
X5343315Y2625094D01*
X5343390Y2625223D01*
X5343484Y2625338D01*
X5343780Y2625892D01*
X5344095Y2626434D01*
X5344144Y2626575D01*
X5344214Y2626707D01*
X5344395Y2627308D01*
X5344599Y2627901D01*
X5344619Y2628049D01*
X5344662Y2628192D01*
X5344723Y2628816D01*
X5344807Y2629438D01*
X5344798Y2629587D01*
X5344812Y2629736D01*
X5344784Y2651010D01*
D01*
Y2651010D01*
D01*
D01*
D01*
X5344784Y2651010D01*
X5403452Y2651079D01*
X5403452Y2651079D01*
D02*
G37*
G36*
X5145277Y2612807D02*
D01*
X5175606Y2595584D01*
X5175678Y2576939D01*
D01*
Y2576939D01*
X5175886Y2523415D01*
Y2523415D01*
X5175887Y2523358D01*
X5175895Y2523277D01*
X5175895Y2523276D01*
X5175895Y2523218D01*
X5175890Y2523146D01*
X5175895Y2523106D01*
X5175896Y2523063D01*
Y2523063D01*
X5175896Y2523058D01*
X5175896Y2523055D01*
X5175896Y2523053D01*
X5175925Y2522768D01*
X5175925Y2522608D01*
X5175925Y2522606D01*
X5175927Y2522595D01*
X5175927Y2522583D01*
X5175932Y2522535D01*
X5175933Y2522533D01*
X5175933Y2522532D01*
X5175936Y2522500D01*
X5175938Y2522490D01*
X5175938Y2522479D01*
X5175938Y2522479D01*
X5175963Y2522358D01*
X5175971Y2522037D01*
X5176023Y2521804D01*
X5176053Y2521515D01*
X5176054Y2521512D01*
X5176054Y2521510D01*
X5176070Y2521432D01*
X5176208Y2520983D01*
X5176311Y2520524D01*
X5176336Y2520448D01*
X5176336Y2520448D01*
X5176336Y2520447D01*
X5176455Y2520180D01*
X5176526Y2519950D01*
X5176674Y2519675D01*
X5176709Y2519566D01*
X5176709Y2519566D01*
X5176719Y2519548D01*
X5176725Y2519529D01*
X5176759Y2519455D01*
X5176810Y2519363D01*
X5176818Y2519342D01*
X5176818Y2519342D01*
X5176856Y2519276D01*
X5176965Y2519031D01*
X5176965Y2519030D01*
X5176965Y2519029D01*
X5177074Y2518836D01*
X5177108Y2518761D01*
X5177149Y2518689D01*
Y2518689D01*
X5177149Y2518688D01*
X5177783Y2517570D01*
X5177783Y2517570D01*
X5178100Y2517010D01*
X5178100Y2517010D01*
X5178100Y2517010D01*
X5178572Y2516177D01*
X5178572Y2516177D01*
D01*
X5170556Y2510864D01*
X5152036D01*
Y2509176D01*
X5151984Y2509171D01*
X5151772Y2509128D01*
X5151448Y2509096D01*
X5151436Y2509093D01*
X5151424Y2509091D01*
X5151292Y2509065D01*
X5151240Y2509060D01*
X5150859Y2508944D01*
X5150486Y2508870D01*
X5150477Y2508866D01*
X5150464Y2508864D01*
X5150120Y2508720D01*
X5149756Y2508609D01*
X5149408Y2508423D01*
X5149053Y2508276D01*
X5149043Y2508270D01*
X5149033Y2508266D01*
X5148725Y2508059D01*
X5148388Y2507878D01*
X5148085Y2507630D01*
X5147763Y2507415D01*
X5147582Y2507266D01*
X5147563Y2507247D01*
X5147541Y2507232D01*
X5147288Y2506976D01*
X5147189Y2506894D01*
X5147188Y2506893D01*
X5147095Y2506780D01*
X5147015Y2506699D01*
X5146946Y2506630D01*
X5146835Y2506539D01*
X5146834Y2506537D01*
X5146833Y2506536D01*
X5146831Y2506534D01*
X5146748Y2506432D01*
X5146485Y2506169D01*
X5146471Y2506147D01*
X5146452Y2506128D01*
X5146304Y2505946D01*
X5146097Y2505631D01*
X5145855Y2505334D01*
X5145854Y2505332D01*
X5145853Y2505330D01*
X5145669Y2504982D01*
X5145462Y2504671D01*
X5145459Y2504663D01*
X5145451Y2504651D01*
X5145310Y2504304D01*
X5145130Y2503963D01*
X5145129Y2503961D01*
X5145128Y2503959D01*
X5145017Y2503584D01*
X5144874Y2503236D01*
X5144871Y2503224D01*
X5144867Y2503214D01*
X5144797Y2502849D01*
X5144686Y2502477D01*
X5144686Y2502475D01*
X5144685Y2502472D01*
X5144651Y2502106D01*
X5144648Y2502097D01*
X5144646Y2502071D01*
X5144576Y2501714D01*
X5144542Y2501355D01*
X5144543Y2500961D01*
X5144541Y2500933D01*
X5144541Y2500930D01*
X5144541Y2500928D01*
X5144541Y2500926D01*
X5144541Y2500925D01*
X5144507Y2500553D01*
X5144612Y2484697D01*
X5144783Y2459011D01*
X5144783Y2459010D01*
X5144786Y2458637D01*
X5144825Y2458262D01*
X5144825Y2458248D01*
X5144825Y2458247D01*
X5144826Y2458241D01*
X5144829Y2457860D01*
X5144866Y2457504D01*
X5144944Y2457127D01*
X5144979Y2456770D01*
X5144983Y2456758D01*
X5144984Y2456741D01*
X5144985Y2456740D01*
X5144985Y2456738D01*
X5144988Y2456722D01*
X5145104Y2456350D01*
X5145179Y2455985D01*
X5145205Y2455923D01*
X5145317Y2455657D01*
X5145429Y2455286D01*
X5145436Y2455273D01*
X5145441Y2455258D01*
X5145441Y2455256D01*
X5145446Y2455249D01*
X5145448Y2455241D01*
X5145640Y2454888D01*
X5145785Y2454542D01*
X5145987Y2454243D01*
X5146161Y2453918D01*
X5146166Y2453910D01*
X5146173Y2453901D01*
X5146178Y2453892D01*
X5146185Y2453884D01*
X5146188Y2453878D01*
X5146430Y2453587D01*
X5146653Y2453256D01*
X5146916Y2452996D01*
X5147150Y2452711D01*
X5147167Y2452697D01*
X5147167Y2452697D01*
X5147177Y2452689D01*
X5147179Y2452685D01*
X5147276Y2452607D01*
X5147327Y2441800D01*
X5135792Y2437300D01*
X5096072D01*
X5096061Y2439482D01*
X5096300Y2439642D01*
X5096643Y2439826D01*
X5096704Y2439877D01*
X5096707Y2439878D01*
X5096737Y2439903D01*
X5096839Y2439962D01*
X5096839Y2439962D01*
X5096958Y2440066D01*
X5097091Y2440149D01*
X5097160Y2440215D01*
X5097239Y2440267D01*
X5097240Y2440269D01*
X5097255Y2440282D01*
X5097271Y2440293D01*
X5097544Y2440568D01*
X5097841Y2440812D01*
X5097874Y2440852D01*
X5097897Y2440871D01*
X5097941Y2440925D01*
X5098006Y2440983D01*
X5098103Y2441108D01*
X5098217Y2441216D01*
X5098271Y2441292D01*
X5098341Y2441361D01*
X5098352Y2441378D01*
X5098366Y2441391D01*
X5098381Y2441410D01*
X5098599Y2441737D01*
X5098824Y2442012D01*
X5098835Y2442033D01*
X5098872Y2442078D01*
X5098918Y2442166D01*
X5098953Y2442212D01*
X5099023Y2442353D01*
X5099114Y2442482D01*
X5099150Y2442564D01*
X5099207Y2442648D01*
X5099210Y2442655D01*
X5099241Y2442701D01*
X5099399Y2443085D01*
X5099592Y2443452D01*
X5099628Y2443576D01*
X5099641Y2443602D01*
X5099682Y2443755D01*
X5099746Y2443898D01*
X5099760Y2443960D01*
X5099832Y2444135D01*
X5099913Y2444542D01*
X5100030Y2444940D01*
X5100043Y2445011D01*
X5100072Y2445334D01*
X5100090Y2445410D01*
X5100091Y2445435D01*
X5100143Y2445693D01*
X5100171Y2445974D01*
Y2445975D01*
X5100171Y2445976D01*
X5100173Y2445992D01*
X5100174Y2446354D01*
X5100211Y2446701D01*
X5100209Y2446726D01*
X5100213Y2446766D01*
X5100219Y2448860D01*
X5100619Y2588630D01*
X5100688Y2612861D01*
D01*
D01*
D01*
X5139421Y2612861D01*
X5139422Y2612861D01*
Y2612861D01*
X5145277Y2612807D01*
D02*
G37*
G36*
X5210900Y2499700D02*
X5211474Y2499126D01*
Y2495766D01*
Y2482166D01*
X5211800D01*
Y2463200D01*
X5209515Y2460914D01*
X5204721D01*
X5204716Y2460919D01*
X5203324Y2461772D01*
X5201816Y2462397D01*
X5200228Y2462778D01*
X5198600Y2462906D01*
X5196972Y2462778D01*
X5195384Y2462397D01*
X5193876Y2461772D01*
X5192484Y2460919D01*
X5191242Y2459858D01*
X5190181Y2458616D01*
X5189987Y2458300D01*
X5152756D01*
X5152741Y2458312D01*
X5152737Y2458322D01*
X5152735Y2458333D01*
X5152697Y2458688D01*
D01*
Y2458688D01*
X5152695Y2459061D01*
Y2459061D01*
X5152695Y2459062D01*
X5152695Y2459064D01*
X5152587Y2475326D01*
X5152470Y2492874D01*
X5152420Y2500457D01*
X5152419Y2500604D01*
X5152422Y2500632D01*
X5152453Y2500963D01*
X5152541Y2501035D01*
X5152610Y2501105D01*
X5152626Y2501125D01*
X5152647Y2501142D01*
X5152726Y2501222D01*
X5152789Y2501300D01*
X5152792Y2501300D01*
X5152837Y2501305D01*
X5152992Y2501336D01*
X5181564D01*
Y2503400D01*
X5207200D01*
X5210900Y2499700D01*
D02*
G37*
G36*
X5611900Y2701400D02*
X5611800Y2525900D01*
X5563919D01*
Y2561700D01*
X5563738Y2563538D01*
X5563202Y2565305D01*
X5562889Y2565890D01*
X5562600Y2567000D01*
X5541600Y2588300D01*
X5542300Y2701600D01*
X5611900Y2701400D01*
D02*
G37*
G36*
X5437000Y2766546D02*
Y2701377D01*
X5436776Y2700956D01*
X5436435Y2700338D01*
X5436414Y2700271D01*
X5436380Y2700208D01*
X5436178Y2699533D01*
X5435963Y2698861D01*
X5435955Y2698790D01*
X5435935Y2698722D01*
X5435868Y2698021D01*
X5435789Y2697320D01*
X5435794Y2697249D01*
X5435788Y2697178D01*
X5436129Y2593553D01*
X5436206Y2592806D01*
X5436276Y2592061D01*
X5436284Y2592036D01*
X5436287Y2592009D01*
X5436507Y2591293D01*
X5436721Y2590575D01*
X5436734Y2590552D01*
X5436742Y2590527D01*
X5437097Y2589868D01*
X5437448Y2589205D01*
X5437465Y2589185D01*
X5437477Y2589161D01*
X5437954Y2588584D01*
X5438428Y2588003D01*
X5438448Y2587986D01*
X5438465Y2587966D01*
X5439046Y2587492D01*
X5439624Y2587015D01*
X5439647Y2587002D01*
X5439668Y2586986D01*
X5440329Y2586635D01*
X5440989Y2586279D01*
X5441014Y2586271D01*
X5441038Y2586259D01*
X5441756Y2586044D01*
X5442472Y2585824D01*
X5442498Y2585821D01*
X5442524Y2585814D01*
X5443270Y2585742D01*
X5444015Y2585666D01*
X5489094Y2585514D01*
Y2527096D01*
X5473537Y2527036D01*
X5473432Y2527233D01*
X5472261Y2528661D01*
X5455260Y2545661D01*
X5453833Y2546832D01*
X5452205Y2547702D01*
X5450438Y2548238D01*
X5448600Y2548419D01*
X5431902D01*
X5414319Y2566002D01*
Y2623426D01*
X5417874D01*
Y2648374D01*
X5411388D01*
X5411385Y2648795D01*
X5411385Y2648795D01*
X5411366Y2651144D01*
X5411366Y2651144D01*
X5411300Y2659000D01*
X5403453Y2658991D01*
D01*
X5403453D01*
X5403453D01*
X5403444Y2658991D01*
X5403444D01*
X5344775Y2658922D01*
X5344775D01*
X5344773D01*
X5344725Y2695111D01*
X5344649Y2695877D01*
X5344573Y2696644D01*
X5344572Y2696649D01*
X5344571Y2696654D01*
X5344347Y2697391D01*
X5344123Y2698128D01*
X5344120Y2698133D01*
X5344119Y2698138D01*
X5343756Y2698815D01*
X5343392Y2699496D01*
X5343388Y2699500D01*
X5343386Y2699504D01*
X5342897Y2700098D01*
X5342408Y2700695D01*
X5342403Y2700698D01*
X5342400Y2700702D01*
X5341803Y2701191D01*
X5341209Y2701679D01*
X5341204Y2701681D01*
X5341200Y2701685D01*
X5340519Y2702047D01*
X5339841Y2702410D01*
X5339836Y2702411D01*
X5339831Y2702414D01*
X5339094Y2702636D01*
X5338356Y2702860D01*
X5338351Y2702861D01*
X5338346Y2702862D01*
X5337580Y2702937D01*
X5336813Y2703012D01*
X5246648D01*
X5245963Y2702945D01*
X5245276Y2702892D01*
X5245192Y2702869D01*
X5245105Y2702860D01*
X5244446Y2702660D01*
X5243782Y2702475D01*
X5243704Y2702435D01*
X5243620Y2702410D01*
X5243013Y2702085D01*
X5242399Y2701774D01*
X5242330Y2701720D01*
X5242252Y2701679D01*
X5241720Y2701242D01*
X5241178Y2700817D01*
X5241121Y2700750D01*
X5241053Y2700695D01*
X5240617Y2700163D01*
X5240168Y2699640D01*
X5239820Y2699143D01*
X5239771Y2699055D01*
X5239706Y2698977D01*
X5239390Y2698380D01*
X5239059Y2697792D01*
X5239027Y2697696D01*
X5238980Y2697606D01*
X5238786Y2696959D01*
X5238576Y2696318D01*
X5238564Y2696217D01*
X5238535Y2696121D01*
X5238471Y2695448D01*
X5238390Y2694778D01*
X5238398Y2694677D01*
X5238388Y2694577D01*
X5238632Y2621628D01*
X5238279Y2621274D01*
X5225247D01*
X5220774Y2625747D01*
Y2648574D01*
X5195826D01*
Y2623626D01*
X5199006D01*
X5199062Y2623062D01*
X5199598Y2621295D01*
X5200468Y2619667D01*
X5201640Y2618240D01*
X5211726Y2608153D01*
Y2600526D01*
X5211814D01*
Y2517094D01*
X5211459Y2516743D01*
X5187200Y2517000D01*
X5185456Y2520078D01*
X5185456Y2520078D01*
X5184984Y2520911D01*
X5184983Y2520911D01*
X5184811Y2521216D01*
X5184667Y2521470D01*
X5184667Y2521470D01*
X5184667Y2521471D01*
X5184666Y2521471D01*
X5184138Y2522403D01*
X5184033Y2522589D01*
Y2522589D01*
X5184033Y2522589D01*
X5184033Y2522589D01*
X5184033Y2522589D01*
X5183992Y2522662D01*
X5183992Y2522662D01*
X5183958Y2522736D01*
X5183958Y2522737D01*
X5183958Y2522737D01*
X5183958Y2522738D01*
X5183958Y2522738D01*
X5183958Y2522738D01*
X5183957Y2522739D01*
X5183867Y2522900D01*
X5183831Y2523008D01*
X5183808Y2523122D01*
X5183807Y2523306D01*
Y2523307D01*
X5183801Y2523366D01*
X5183799Y2523387D01*
X5183799Y2523387D01*
X5183799Y2523389D01*
Y2523389D01*
Y2523389D01*
X5183798Y2523446D01*
Y2523446D01*
Y2523446D01*
Y2523446D01*
X5183678Y2554305D01*
X5183550Y2587368D01*
X5183518Y2595615D01*
Y2595615D01*
X5183500Y2600200D01*
X5179513Y2602464D01*
X5179513Y2602464D01*
X5149184Y2619687D01*
D01*
X5147400Y2620700D01*
X5092800Y2621200D01*
X5092776Y2612883D01*
Y2612883D01*
X5092707Y2588653D01*
X5092307Y2448883D01*
D01*
X5092301Y2446789D01*
D01*
X5092300Y2446773D01*
Y2446773D01*
X5092300Y2446772D01*
X5092274Y2446521D01*
X5092255Y2446421D01*
X5092250Y2446412D01*
X5092241Y2446400D01*
X5092240Y2446400D01*
X4920700Y2446200D01*
X4920201Y2720346D01*
X4920554Y2720700D01*
X4975100D01*
Y2766500D01*
X5436646Y2766900D01*
X5437000Y2766546D01*
D02*
G37*
G36*
X5407642Y2419801D02*
X5408606Y2419610D01*
X5409569Y2419801D01*
X5409590Y2419815D01*
X5409611Y2419801D01*
X5410574Y2419610D01*
X5411537Y2419801D01*
X5411553Y2419812D01*
X5411994Y2419576D01*
Y2413617D01*
X5403723D01*
X5403393Y2413993D01*
X5403407Y2414100D01*
X5403254Y2415266D01*
X5402803Y2416353D01*
X5402087Y2417287D01*
X5401154Y2418003D01*
X5400066Y2418453D01*
X5398900Y2418607D01*
X5397734Y2418453D01*
X5396646Y2418003D01*
X5395713Y2417287D01*
X5395362Y2416829D01*
X5394863Y2416796D01*
X5393406Y2418254D01*
Y2419576D01*
X5393847Y2419812D01*
X5393863Y2419801D01*
X5394826Y2419610D01*
X5395789Y2419801D01*
X5395810Y2419816D01*
X5395831Y2419801D01*
X5396795Y2419610D01*
X5397758Y2419801D01*
X5397779Y2419815D01*
X5397800Y2419801D01*
X5398763Y2419610D01*
X5399726Y2419801D01*
X5399747Y2419816D01*
X5399768Y2419801D01*
X5400732Y2419610D01*
X5401695Y2419801D01*
X5401716Y2419815D01*
X5401737Y2419801D01*
X5402700Y2419610D01*
X5403663Y2419801D01*
X5403684Y2419816D01*
X5403705Y2419801D01*
X5404668Y2419610D01*
X5405632Y2419801D01*
X5405653Y2419815D01*
X5405674Y2419801D01*
X5406637Y2419610D01*
X5407600Y2419801D01*
X5407621Y2419816D01*
X5407642Y2419801D01*
D02*
G37*
G36*
X5342283Y2444352D02*
Y2423529D01*
X5341821Y2423338D01*
X5339060Y2426099D01*
X5339403Y2426546D01*
X5339854Y2427633D01*
X5340007Y2428800D01*
X5339854Y2429967D01*
X5339403Y2431054D01*
X5338687Y2431987D01*
X5337754Y2432703D01*
X5336666Y2433154D01*
X5335500Y2433307D01*
X5334333Y2433154D01*
X5333247Y2432703D01*
X5332313Y2431987D01*
X5331597Y2431054D01*
X5331147Y2429967D01*
X5330993Y2428800D01*
X5331147Y2427633D01*
X5331597Y2426546D01*
X5332313Y2425613D01*
X5333247Y2424897D01*
X5333369Y2424846D01*
X5333720Y2424320D01*
X5338990Y2419051D01*
X5338831Y2418669D01*
X5338831D01*
X5338831Y2418669D01*
Y2416360D01*
X5338341Y2416262D01*
X5338303Y2416353D01*
X5337587Y2417287D01*
X5336654Y2418003D01*
X5335566Y2418453D01*
X5335150Y2418508D01*
Y2414099D01*
Y2409692D01*
X5335566Y2409747D01*
X5336654Y2410197D01*
X5337587Y2410913D01*
X5338303Y2411847D01*
X5338341Y2411938D01*
X5338831Y2411840D01*
Y2409731D01*
X5342550D01*
Y2414201D01*
X5344050D01*
Y2409731D01*
X5356168D01*
Y2410251D01*
X5364036D01*
X5364268Y2409816D01*
X5364036Y2409380D01*
X5362463D01*
X5361500Y2409188D01*
X5360683Y2408643D01*
X5358757Y2406717D01*
X5356268D01*
Y2408969D01*
X5344150D01*
Y2404499D01*
X5343401D01*
Y2403750D01*
X5338932D01*
Y2400642D01*
X5337200D01*
X5337200Y2400642D01*
X5336490Y2400549D01*
X5335829Y2400275D01*
X5335261Y2399839D01*
X5334441Y2399018D01*
X5333880Y2399580D01*
X5333063Y2400125D01*
X5332100Y2400317D01*
X5252720D01*
Y2400317D01*
Y2400372D01*
X5252720Y2400670D01*
X5252720Y2400670D01*
X5252720D01*
Y2405350D01*
X5242880D01*
Y2400670D01*
X5242880Y2400670D01*
X5242880D01*
X5242880Y2400372D01*
X5242825Y2400317D01*
X5225443D01*
X5215728Y2410031D01*
X5215854Y2410333D01*
X5216007Y2411500D01*
X5215854Y2412667D01*
X5215417Y2413721D01*
Y2415031D01*
X5220550D01*
Y2419501D01*
X5221299D01*
Y2420250D01*
X5225769D01*
Y2423432D01*
Y2427150D01*
X5221299D01*
Y2428650D01*
X5225769D01*
Y2427600D01*
X5244006D01*
Y2425429D01*
X5242880D01*
Y2422694D01*
X5241000D01*
X5240225Y2422592D01*
X5239802Y2422417D01*
X5239503Y2422293D01*
X5238883Y2421817D01*
X5238034Y2420968D01*
X5233332D01*
Y2412032D01*
Y2408850D01*
X5242268D01*
Y2412032D01*
Y2416706D01*
X5242880D01*
Y2413972D01*
X5252720D01*
Y2425429D01*
X5249994D01*
Y2427600D01*
X5264258D01*
Y2424900D01*
X5264352Y2424190D01*
X5264626Y2423529D01*
X5265061Y2422961D01*
X5267461Y2420561D01*
X5267461D01*
X5267461Y2420561D01*
X5267461Y2420561D01*
Y2420561D01*
X5268029Y2420125D01*
X5268497Y2419932D01*
X5268690Y2419851D01*
X5269400Y2419758D01*
X5305800D01*
X5306510Y2419851D01*
X5307171Y2420125D01*
X5307739Y2420561D01*
X5307739Y2420561D01*
X5307739Y2420561D01*
X5314778Y2427600D01*
X5327394D01*
X5332510Y2435232D01*
X5341821Y2444543D01*
X5342283Y2444352D01*
D02*
G37*
G36*
X5371146Y2435733D02*
X5371597Y2434646D01*
X5372313Y2433713D01*
X5373246Y2432997D01*
X5374334Y2432546D01*
X5375500Y2432393D01*
X5376185Y2432483D01*
X5376561Y2432154D01*
Y2431166D01*
X5376561Y2431166D01*
X5376561D01*
Y2426646D01*
Y2422127D01*
X5376706Y2421400D01*
X5376352Y2421046D01*
X5375625Y2421191D01*
X5373623D01*
Y2427794D01*
X5373431Y2428758D01*
X5372885Y2429574D01*
X5371697Y2430763D01*
X5371807Y2431600D01*
X5371653Y2432767D01*
X5371203Y2433854D01*
X5370487Y2434787D01*
X5369917Y2435224D01*
Y2436831D01*
X5371002D01*
X5371146Y2435733D01*
D02*
G37*
%LPC*%
G36*
X5284050Y2322008D02*
X5283633Y2321954D01*
X5282547Y2321503D01*
X5281613Y2320787D01*
X5280897Y2319854D01*
X5280447Y2318767D01*
X5280392Y2318350D01*
X5284050D01*
Y2322008D01*
D02*
G37*
G36*
X5285550D02*
Y2318350D01*
X5289208D01*
X5289154Y2318767D01*
X5288703Y2319854D01*
X5287987Y2320787D01*
X5287054Y2321503D01*
X5285966Y2321954D01*
X5285550Y2322008D01*
D02*
G37*
G36*
X5313250Y2326408D02*
X5312833Y2326353D01*
X5311747Y2325903D01*
X5310813Y2325187D01*
X5310097Y2324253D01*
X5309647Y2323166D01*
X5309592Y2322750D01*
X5313250D01*
Y2326408D01*
D02*
G37*
G36*
X5395650Y2324950D02*
X5391992D01*
X5392046Y2324533D01*
X5392067Y2324484D01*
X5391789Y2324068D01*
X5389750D01*
Y2320350D01*
X5393969D01*
Y2321420D01*
X5394384Y2321698D01*
X5395234Y2321346D01*
X5395650Y2321292D01*
Y2324950D01*
D02*
G37*
G36*
X5419868Y2324169D02*
X5415650D01*
Y2320450D01*
X5419868D01*
Y2324169D01*
D02*
G37*
G36*
X5355950Y2321228D02*
X5351780D01*
Y2316250D01*
X5355950D01*
Y2321228D01*
D02*
G37*
G36*
X5183550Y2321160D02*
Y2316050D01*
X5188660D01*
X5188620Y2316458D01*
X5188282Y2317571D01*
X5187734Y2318597D01*
X5186996Y2319496D01*
X5186097Y2320234D01*
X5185071Y2320782D01*
X5183958Y2321120D01*
X5183550Y2321160D01*
D02*
G37*
G36*
X5361620Y2321228D02*
X5357450D01*
Y2316250D01*
X5361620D01*
Y2321228D01*
D02*
G37*
G36*
X5318408Y2321250D02*
X5314750D01*
Y2317592D01*
X5315166Y2317646D01*
X5316254Y2318097D01*
X5317187Y2318813D01*
X5317903Y2319747D01*
X5318354Y2320834D01*
X5318408Y2321250D01*
D02*
G37*
G36*
X5313250D02*
X5309592D01*
X5309647Y2320834D01*
X5310097Y2319747D01*
X5310813Y2318813D01*
X5311747Y2318097D01*
X5312833Y2317646D01*
X5313250Y2317592D01*
Y2321250D01*
D02*
G37*
G36*
X5516200Y2348234D02*
X5515042Y2348120D01*
X5513929Y2347782D01*
X5512903Y2347234D01*
X5512004Y2346496D01*
X5511266Y2345597D01*
X5510718Y2344571D01*
X5510380Y2343458D01*
X5510266Y2342300D01*
X5510380Y2341142D01*
X5510718Y2340029D01*
X5511266Y2339003D01*
X5512004Y2338104D01*
X5512903Y2337366D01*
X5513929Y2336818D01*
X5515042Y2336480D01*
X5516200Y2336366D01*
X5517358Y2336480D01*
X5518471Y2336818D01*
X5519497Y2337366D01*
X5520396Y2338104D01*
X5521134Y2339003D01*
X5521682Y2340029D01*
X5522020Y2341142D01*
X5522134Y2342300D01*
X5522020Y2343458D01*
X5521682Y2344571D01*
X5521134Y2345597D01*
X5520396Y2346496D01*
X5519497Y2347234D01*
X5518471Y2347782D01*
X5517358Y2348120D01*
X5516200Y2348234D01*
D02*
G37*
G36*
X5471069Y2337568D02*
X5467350D01*
Y2333850D01*
X5471069D01*
Y2337568D01*
D02*
G37*
G36*
X5492105Y2348205D02*
X5480295D01*
Y2336395D01*
X5492105D01*
Y2348205D01*
D02*
G37*
G36*
X5225769Y2418750D02*
X5222050D01*
Y2415031D01*
X5225769D01*
Y2418750D01*
D02*
G37*
G36*
X5446450Y2421508D02*
X5446033Y2421453D01*
X5444947Y2421003D01*
X5444013Y2420287D01*
X5443297Y2419353D01*
X5442847Y2418266D01*
X5442792Y2417850D01*
X5446450D01*
Y2421508D01*
D02*
G37*
G36*
X5601000Y2347116D02*
X5598000D01*
X5596572Y2346928D01*
X5595242Y2346377D01*
X5594100Y2345500D01*
X5593223Y2344358D01*
X5592672Y2343028D01*
X5592484Y2341600D01*
X5592672Y2340172D01*
X5593223Y2338842D01*
X5594100Y2337700D01*
X5594305Y2337542D01*
X5594145Y2337069D01*
X5592532D01*
Y2332350D01*
X5606469D01*
Y2337069D01*
X5604855D01*
X5604694Y2337542D01*
X5604900Y2337700D01*
X5605777Y2338842D01*
X5606328Y2340172D01*
X5606516Y2341600D01*
X5606328Y2343028D01*
X5605777Y2344358D01*
X5604900Y2345500D01*
X5603758Y2346377D01*
X5602428Y2346928D01*
X5601000Y2347116D01*
D02*
G37*
G36*
X5598750Y2330850D02*
X5592532D01*
Y2326131D01*
X5598750D01*
Y2330850D01*
D02*
G37*
G36*
X5314750Y2326408D02*
Y2322750D01*
X5318408D01*
X5318354Y2323166D01*
X5317903Y2324253D01*
X5317187Y2325187D01*
X5316254Y2325903D01*
X5315166Y2326353D01*
X5314750Y2326408D01*
D02*
G37*
G36*
X5606469Y2330850D02*
X5600250D01*
Y2326131D01*
X5606469D01*
Y2330850D01*
D02*
G37*
G36*
X5471069Y2332350D02*
X5467350D01*
Y2328632D01*
X5471069D01*
Y2332350D01*
D02*
G37*
G36*
X5182800Y2341234D02*
X5181642Y2341120D01*
X5180529Y2340782D01*
X5179503Y2340234D01*
X5178604Y2339496D01*
X5177866Y2338597D01*
X5177317Y2337571D01*
X5176980Y2336458D01*
X5176866Y2335300D01*
X5176980Y2334142D01*
X5177317Y2333029D01*
X5177866Y2332003D01*
X5178604Y2331104D01*
X5179503Y2330366D01*
X5180529Y2329818D01*
X5181642Y2329480D01*
X5182800Y2329366D01*
X5183958Y2329480D01*
X5185071Y2329818D01*
X5186097Y2330366D01*
X5186617Y2330793D01*
X5202233D01*
X5203713Y2329313D01*
X5204647Y2328597D01*
X5205733Y2328147D01*
X5206900Y2327993D01*
X5213391D01*
X5213742Y2327723D01*
X5215072Y2327172D01*
X5216500Y2326984D01*
X5217928Y2327172D01*
X5219258Y2327723D01*
X5220400Y2328600D01*
X5221277Y2329742D01*
X5221828Y2331072D01*
X5222016Y2332500D01*
X5221828Y2333928D01*
X5221277Y2335258D01*
X5220400Y2336400D01*
X5219258Y2337277D01*
X5217928Y2337828D01*
X5216500Y2338016D01*
X5215072Y2337828D01*
X5213742Y2337277D01*
X5213391Y2337007D01*
X5208767D01*
X5207287Y2338487D01*
X5206353Y2339203D01*
X5205267Y2339654D01*
X5204100Y2339807D01*
X5186617D01*
X5186097Y2340234D01*
X5185071Y2340782D01*
X5183958Y2341120D01*
X5182800Y2341234D01*
D02*
G37*
G36*
X5182050Y2321160D02*
X5181642Y2321120D01*
X5180529Y2320782D01*
X5179503Y2320234D01*
X5178604Y2319496D01*
X5177866Y2318597D01*
X5177317Y2317571D01*
X5176980Y2316458D01*
X5176940Y2316050D01*
X5182050D01*
Y2321160D01*
D02*
G37*
G36*
X5413750Y2308450D02*
X5408772D01*
Y2304280D01*
X5413750D01*
Y2308450D01*
D02*
G37*
G36*
X5302550Y2315628D02*
X5298380D01*
Y2315429D01*
X5295050D01*
Y2309699D01*
Y2303971D01*
X5299220D01*
Y2304172D01*
X5302550D01*
Y2309899D01*
Y2315628D01*
D02*
G37*
G36*
X5253850Y2305508D02*
Y2301850D01*
X5257508D01*
X5257454Y2302267D01*
X5257003Y2303354D01*
X5256287Y2304287D01*
X5255354Y2305003D01*
X5254266Y2305453D01*
X5253850Y2305508D01*
D02*
G37*
G36*
X5235250Y2309250D02*
X5230835D01*
X5230916Y2308638D01*
X5231441Y2307368D01*
X5232278Y2306278D01*
X5233368Y2305442D01*
X5234638Y2304916D01*
X5235250Y2304835D01*
Y2309250D01*
D02*
G37*
G36*
X5424950Y2308450D02*
X5421231D01*
Y2304732D01*
X5424950D01*
Y2308450D01*
D02*
G37*
G36*
X5420229D02*
X5415250D01*
Y2304280D01*
X5420229D01*
Y2308450D01*
D02*
G37*
G36*
X5257508Y2300350D02*
X5253850D01*
Y2296692D01*
X5254266Y2296746D01*
X5255354Y2297197D01*
X5256287Y2297913D01*
X5257003Y2298846D01*
X5257454Y2299933D01*
X5257508Y2300350D01*
D02*
G37*
G36*
X5252350D02*
X5248692D01*
X5248746Y2299933D01*
X5249197Y2298846D01*
X5249913Y2297913D01*
X5250846Y2297197D01*
X5251934Y2296746D01*
X5252350Y2296692D01*
Y2300350D01*
D02*
G37*
G36*
X5600500Y2307490D02*
X5598571Y2307300D01*
X5596715Y2306737D01*
X5595005Y2305823D01*
X5593507Y2304593D01*
X5592277Y2303095D01*
X5591363Y2301385D01*
X5590800Y2299529D01*
X5590610Y2297600D01*
X5590800Y2295671D01*
X5591363Y2293815D01*
X5592277Y2292105D01*
X5593507Y2290607D01*
X5595005Y2289377D01*
X5596715Y2288463D01*
X5598571Y2287900D01*
X5600500Y2287710D01*
X5602430Y2287900D01*
X5604285Y2288463D01*
X5605995Y2289377D01*
X5607493Y2290607D01*
X5608723Y2292105D01*
X5609637Y2293815D01*
X5610200Y2295671D01*
X5610390Y2297600D01*
X5610200Y2299529D01*
X5609637Y2301385D01*
X5608723Y2303095D01*
X5607493Y2304593D01*
X5605995Y2305823D01*
X5604285Y2306737D01*
X5602430Y2307300D01*
X5600500Y2307490D01*
D02*
G37*
G36*
X5252350Y2305508D02*
X5251934Y2305453D01*
X5250846Y2305003D01*
X5249913Y2304287D01*
X5249197Y2303354D01*
X5248746Y2302267D01*
X5248692Y2301850D01*
X5252350D01*
Y2305508D01*
D02*
G37*
G36*
X5480000Y2335807D02*
X5478833Y2335653D01*
X5477747Y2335203D01*
X5476813Y2334487D01*
X5476097Y2333554D01*
X5475647Y2332467D01*
X5475493Y2331300D01*
X5475647Y2330133D01*
X5476097Y2329046D01*
X5476813Y2328113D01*
X5477483Y2327599D01*
Y2318300D01*
X5477675Y2317337D01*
X5478220Y2316520D01*
X5484820Y2309920D01*
X5485637Y2309375D01*
X5486600Y2309183D01*
X5490657D01*
X5493783Y2306058D01*
Y2303772D01*
X5492790Y2303010D01*
X5492001Y2301982D01*
X5491550Y2300892D01*
X5491050D01*
X5490599Y2301982D01*
X5489810Y2303010D01*
X5488782Y2303799D01*
X5487585Y2304295D01*
X5486300Y2304464D01*
X5485015Y2304295D01*
X5483818Y2303799D01*
X5482790Y2303010D01*
X5482001Y2301982D01*
X5481550Y2300892D01*
X5481050D01*
X5480599Y2301982D01*
X5479810Y2303010D01*
X5478782Y2303799D01*
X5477585Y2304295D01*
X5477050Y2304365D01*
Y2299499D01*
Y2294635D01*
X5477585Y2294705D01*
X5478782Y2295201D01*
X5479810Y2295990D01*
X5480599Y2297018D01*
X5481050Y2298108D01*
X5481550D01*
X5482001Y2297018D01*
X5482790Y2295990D01*
X5483818Y2295201D01*
X5485015Y2294705D01*
X5486300Y2294536D01*
X5487585Y2294705D01*
X5488782Y2295201D01*
X5489810Y2295990D01*
X5490599Y2297018D01*
X5491050Y2298108D01*
X5491550D01*
X5492001Y2297018D01*
X5492790Y2295990D01*
X5493818Y2295201D01*
X5495015Y2294705D01*
X5496300Y2294536D01*
X5497585Y2294705D01*
X5498782Y2295201D01*
X5499810Y2295990D01*
X5500599Y2297018D01*
X5501050Y2298108D01*
X5501550D01*
X5502001Y2297018D01*
X5502790Y2295990D01*
X5503818Y2295201D01*
X5505015Y2294705D01*
X5506300Y2294536D01*
X5507585Y2294705D01*
X5508782Y2295201D01*
X5509810Y2295990D01*
X5510599Y2297018D01*
X5511050Y2298108D01*
X5511550D01*
X5512001Y2297018D01*
X5512790Y2295990D01*
X5513818Y2295201D01*
X5515015Y2294705D01*
X5516300Y2294536D01*
X5517585Y2294705D01*
X5518782Y2295201D01*
X5519810Y2295990D01*
X5520599Y2297018D01*
X5521050Y2298108D01*
X5521550D01*
X5522001Y2297018D01*
X5522790Y2295990D01*
X5523818Y2295201D01*
X5525015Y2294705D01*
X5526300Y2294536D01*
X5527585Y2294705D01*
X5528782Y2295201D01*
X5529810Y2295990D01*
X5530599Y2297018D01*
X5530888Y2297717D01*
X5531379Y2297620D01*
Y2294579D01*
X5541221D01*
Y2304421D01*
X5538817D01*
Y2308000D01*
X5538625Y2308963D01*
X5538080Y2309780D01*
X5531780Y2316080D01*
X5530963Y2316625D01*
X5530000Y2316817D01*
X5500343D01*
X5497397Y2319763D01*
X5497507Y2320600D01*
X5497353Y2321766D01*
X5496903Y2322853D01*
X5496187Y2323787D01*
X5495253Y2324503D01*
X5494167Y2324953D01*
X5493000Y2325107D01*
X5491833Y2324953D01*
X5490747Y2324503D01*
X5489813Y2323787D01*
X5489097Y2322853D01*
X5488646Y2321766D01*
X5488493Y2320600D01*
X5488646Y2319434D01*
X5489097Y2318346D01*
X5489813Y2317413D01*
X5490747Y2316697D01*
X5491833Y2316246D01*
X5493000Y2316093D01*
X5493837Y2316203D01*
X5497520Y2312520D01*
X5498337Y2311975D01*
X5499300Y2311783D01*
X5528957D01*
X5533783Y2306957D01*
Y2304421D01*
X5531379D01*
Y2301380D01*
X5530888Y2301283D01*
X5530599Y2301982D01*
X5529810Y2303010D01*
X5528782Y2303799D01*
X5527585Y2304295D01*
X5526300Y2304464D01*
X5525015Y2304295D01*
X5523818Y2303799D01*
X5522790Y2303010D01*
X5522001Y2301982D01*
X5521550Y2300892D01*
X5521050D01*
X5520599Y2301982D01*
X5519810Y2303010D01*
X5518782Y2303799D01*
X5517585Y2304295D01*
X5516300Y2304464D01*
X5515015Y2304295D01*
X5513818Y2303799D01*
X5512790Y2303010D01*
X5512001Y2301982D01*
X5511550Y2300892D01*
X5511050D01*
X5510599Y2301982D01*
X5509810Y2303010D01*
X5508782Y2303799D01*
X5507585Y2304295D01*
X5506300Y2304464D01*
X5505015Y2304295D01*
X5503818Y2303799D01*
X5502790Y2303010D01*
X5502001Y2301982D01*
X5501550Y2300892D01*
X5501050D01*
X5500599Y2301982D01*
X5499810Y2303010D01*
X5498817Y2303772D01*
Y2307100D01*
X5498625Y2308063D01*
X5498080Y2308880D01*
X5493480Y2313480D01*
X5492663Y2314025D01*
X5491700Y2314217D01*
X5487643D01*
X5482517Y2319342D01*
Y2327599D01*
X5483187Y2328113D01*
X5483903Y2329046D01*
X5484354Y2330133D01*
X5484507Y2331300D01*
X5484354Y2332467D01*
X5483903Y2333554D01*
X5483187Y2334487D01*
X5482254Y2335203D01*
X5481166Y2335653D01*
X5480000Y2335807D01*
D02*
G37*
G36*
X5415369Y2303669D02*
X5411650D01*
Y2299950D01*
X5415369D01*
Y2303669D01*
D02*
G37*
G36*
X5420229Y2314120D02*
X5415250D01*
Y2309950D01*
X5420229D01*
Y2314120D01*
D02*
G37*
G36*
X5413750D02*
X5408772D01*
Y2309950D01*
X5413750D01*
Y2314120D01*
D02*
G37*
G36*
X5361620Y2314750D02*
X5357450D01*
Y2309772D01*
X5361620D01*
Y2314750D01*
D02*
G37*
G36*
X5419868Y2318950D02*
X5415650D01*
Y2315232D01*
X5419868D01*
Y2318950D01*
D02*
G37*
G36*
X5393969Y2318850D02*
X5389750D01*
Y2315132D01*
X5393969D01*
Y2318850D01*
D02*
G37*
G36*
X5320169Y2316468D02*
X5314550D01*
Y2312850D01*
X5320169D01*
Y2316468D01*
D02*
G37*
G36*
X5257468Y2309850D02*
X5253750D01*
Y2306132D01*
X5257468D01*
Y2309850D01*
D02*
G37*
G36*
X5252250D02*
X5248531D01*
Y2306132D01*
X5252250D01*
Y2309850D01*
D02*
G37*
G36*
X5241165Y2309250D02*
X5236750D01*
Y2304835D01*
X5237362Y2304916D01*
X5238632Y2305442D01*
X5239722Y2306278D01*
X5240558Y2307368D01*
X5241084Y2308638D01*
X5241165Y2309250D01*
D02*
G37*
G36*
X5355950Y2314750D02*
X5351780D01*
Y2314368D01*
X5348750D01*
Y2310650D01*
X5352469D01*
Y2309772D01*
X5355950D01*
Y2314750D01*
D02*
G37*
G36*
X5188660Y2314550D02*
X5183550D01*
Y2309440D01*
X5183958Y2309480D01*
X5185071Y2309818D01*
X5186097Y2310366D01*
X5186996Y2311104D01*
X5187734Y2312003D01*
X5188282Y2313029D01*
X5188620Y2314142D01*
X5188660Y2314550D01*
D02*
G37*
G36*
X5182050D02*
X5176940D01*
X5176980Y2314142D01*
X5177317Y2313029D01*
X5177866Y2312003D01*
X5178604Y2311104D01*
X5179503Y2310366D01*
X5180529Y2309818D01*
X5181642Y2309480D01*
X5182050Y2309440D01*
Y2314550D01*
D02*
G37*
G36*
X5333650Y2418508D02*
X5333234Y2418453D01*
X5332146Y2418003D01*
X5331213Y2417287D01*
X5330497Y2416353D01*
X5330046Y2415266D01*
X5329992Y2414850D01*
X5333650D01*
Y2418508D01*
D02*
G37*
G36*
X5526350Y2412008D02*
X5525933Y2411954D01*
X5524847Y2411503D01*
X5523913Y2410787D01*
X5523197Y2409854D01*
X5522747Y2408767D01*
X5522692Y2408350D01*
X5526350D01*
Y2412008D01*
D02*
G37*
G36*
X5562729Y2400420D02*
X5557750D01*
Y2396250D01*
X5562729D01*
Y2400420D01*
D02*
G37*
G36*
X5158950Y2411750D02*
X5155231D01*
Y2408031D01*
X5158950D01*
Y2411750D01*
D02*
G37*
G36*
X5265808Y2405350D02*
X5262150D01*
Y2401692D01*
X5262566Y2401747D01*
X5263654Y2402197D01*
X5264587Y2402913D01*
X5265303Y2403847D01*
X5265754Y2404934D01*
X5265808Y2405350D01*
D02*
G37*
G36*
X5260650D02*
X5256992D01*
X5257047Y2404934D01*
X5257497Y2403847D01*
X5258213Y2402913D01*
X5259146Y2402197D01*
X5260234Y2401747D01*
X5260650Y2401692D01*
Y2405350D01*
D02*
G37*
G36*
X5556250Y2400420D02*
X5551271D01*
Y2396250D01*
X5556250D01*
Y2400420D01*
D02*
G37*
G36*
X5527850Y2412008D02*
Y2408350D01*
X5531508D01*
X5531453Y2408767D01*
X5531003Y2409854D01*
X5530287Y2410787D01*
X5529353Y2411503D01*
X5528267Y2411954D01*
X5527850Y2412008D01*
D02*
G37*
G36*
X5348650Y2393969D02*
X5344931D01*
Y2392441D01*
X5344483Y2392220D01*
X5343853Y2392703D01*
X5342767Y2393154D01*
X5342350Y2393208D01*
Y2388799D01*
Y2384392D01*
X5342767Y2384447D01*
X5343853Y2384897D01*
X5344483Y2385380D01*
X5344931Y2385159D01*
Y2385032D01*
X5348650D01*
Y2389499D01*
Y2393969D01*
D02*
G37*
G36*
X5606168Y2410350D02*
X5592231D01*
Y2405631D01*
X5593845D01*
X5594006Y2405158D01*
X5593800Y2405000D01*
X5592923Y2403858D01*
X5592372Y2402528D01*
X5592184Y2401100D01*
X5592372Y2399672D01*
X5592923Y2398342D01*
X5593800Y2397200D01*
X5594942Y2396323D01*
X5596272Y2395772D01*
X5597700Y2395584D01*
X5600700D01*
X5602127Y2395772D01*
X5603458Y2396323D01*
X5604600Y2397200D01*
X5605477Y2398342D01*
X5606028Y2399672D01*
X5606216Y2401100D01*
X5606028Y2402528D01*
X5605477Y2403858D01*
X5604600Y2405000D01*
X5604395Y2405158D01*
X5604555Y2405631D01*
X5606168D01*
Y2410350D01*
D02*
G37*
G36*
X5546250Y2399908D02*
Y2396250D01*
X5549908D01*
X5549854Y2396667D01*
X5549403Y2397754D01*
X5548687Y2398687D01*
X5547754Y2399403D01*
X5546666Y2399854D01*
X5546250Y2399908D01*
D02*
G37*
G36*
X5544750D02*
X5544334Y2399854D01*
X5543246Y2399403D01*
X5542313Y2398687D01*
X5541597Y2397754D01*
X5541146Y2396667D01*
X5541092Y2396250D01*
X5544750D01*
Y2399908D01*
D02*
G37*
G36*
X5501650Y2407950D02*
X5497480D01*
Y2402971D01*
X5501650D01*
Y2407950D01*
D02*
G37*
G36*
X5247050Y2411828D02*
X5242880D01*
Y2406850D01*
X5247050D01*
Y2411828D01*
D02*
G37*
G36*
X5496869Y2409950D02*
X5493150D01*
Y2406231D01*
X5496869D01*
Y2409950D01*
D02*
G37*
G36*
X5252720Y2411828D02*
X5248550D01*
Y2406850D01*
X5252720D01*
Y2411828D01*
D02*
G37*
G36*
X5262150Y2410508D02*
Y2406850D01*
X5265808D01*
X5265754Y2407266D01*
X5265303Y2408353D01*
X5264587Y2409287D01*
X5263654Y2410003D01*
X5262566Y2410453D01*
X5262150Y2410508D01*
D02*
G37*
G36*
X5260650D02*
X5260234Y2410453D01*
X5259146Y2410003D01*
X5258213Y2409287D01*
X5257497Y2408353D01*
X5257047Y2407266D01*
X5256992Y2406850D01*
X5260650D01*
Y2410508D01*
D02*
G37*
G36*
X5491650Y2409950D02*
X5487931D01*
Y2406231D01*
X5491650D01*
Y2409950D01*
D02*
G37*
G36*
X5526350Y2406850D02*
X5522692D01*
X5522747Y2406433D01*
X5523197Y2405346D01*
X5523913Y2404413D01*
X5524847Y2403697D01*
X5525933Y2403246D01*
X5526350Y2403192D01*
Y2406850D01*
D02*
G37*
G36*
X5507320Y2407950D02*
X5503150D01*
Y2402971D01*
X5507320D01*
Y2407950D01*
D02*
G37*
G36*
X5237050Y2407350D02*
X5233332D01*
Y2403632D01*
X5237050D01*
Y2407350D01*
D02*
G37*
G36*
X5342650Y2408969D02*
X5338932D01*
Y2405250D01*
X5342650D01*
Y2408969D01*
D02*
G37*
G36*
X5242268Y2407350D02*
X5238550D01*
Y2403632D01*
X5242268D01*
Y2407350D01*
D02*
G37*
G36*
X5459408Y2395450D02*
X5455750D01*
Y2391792D01*
X5456166Y2391846D01*
X5457254Y2392297D01*
X5458187Y2393013D01*
X5458903Y2393946D01*
X5459354Y2395033D01*
X5459408Y2395450D01*
D02*
G37*
G36*
X5598450Y2416569D02*
X5592231D01*
Y2411850D01*
X5598450D01*
Y2416569D01*
D02*
G37*
G36*
X5606168D02*
X5599950D01*
Y2411850D01*
X5606168D01*
Y2416569D01*
D02*
G37*
G36*
X5333650Y2413350D02*
X5329992D01*
X5330046Y2412934D01*
X5330497Y2411847D01*
X5331213Y2410913D01*
X5332146Y2410197D01*
X5333234Y2409747D01*
X5333650Y2409692D01*
Y2413350D01*
D02*
G37*
G36*
X5606068Y2443369D02*
X5599850D01*
Y2438650D01*
X5606068D01*
Y2443369D01*
D02*
G37*
G36*
X5507320Y2414429D02*
X5503150D01*
Y2409450D01*
X5507320D01*
Y2414429D01*
D02*
G37*
G36*
X5576597Y2362550D02*
X5571450D01*
Y2360104D01*
X5573500D01*
X5574327Y2360213D01*
X5575098Y2360532D01*
X5575760Y2361040D01*
X5576268Y2361702D01*
X5576587Y2362473D01*
X5576597Y2362550D01*
D02*
G37*
G36*
X5470869Y2352550D02*
X5467150D01*
Y2348832D01*
X5470869D01*
Y2352550D01*
D02*
G37*
G36*
X4957300Y2619327D02*
X4954725Y2619159D01*
X4952194Y2618655D01*
X4949751Y2617826D01*
X4947437Y2616684D01*
X4945291Y2615251D01*
X4943351Y2613549D01*
X4941649Y2611609D01*
X4940216Y2609464D01*
X4939074Y2607149D01*
X4938245Y2604706D01*
X4937741Y2602175D01*
X4937573Y2599600D01*
X4937741Y2597025D01*
X4938245Y2594494D01*
X4939074Y2592051D01*
X4940216Y2589736D01*
X4941649Y2587591D01*
X4943351Y2585651D01*
X4945291Y2583949D01*
X4947437Y2582516D01*
X4949751Y2581374D01*
X4952194Y2580545D01*
X4954725Y2580042D01*
X4957300Y2579873D01*
X4959875Y2580042D01*
X4962406Y2580545D01*
X4964849Y2581374D01*
X4967163Y2582516D01*
X4969309Y2583949D01*
X4971249Y2585651D01*
X4972951Y2587591D01*
X4974384Y2589736D01*
X4975526Y2592051D01*
X4976355Y2594494D01*
X4976859Y2597025D01*
X4977027Y2599600D01*
X4976859Y2602175D01*
X4976355Y2604706D01*
X4975526Y2607149D01*
X4974384Y2609464D01*
X4972951Y2611609D01*
X4971249Y2613549D01*
X4969309Y2615251D01*
X4967163Y2616684D01*
X4964849Y2617826D01*
X4962406Y2618655D01*
X4959875Y2619159D01*
X4957300Y2619327D01*
D02*
G37*
G36*
X5470869Y2357768D02*
X5467150D01*
Y2354050D01*
X5470869D01*
Y2357768D01*
D02*
G37*
G36*
X4956300Y2501327D02*
X4953725Y2501159D01*
X4951194Y2500655D01*
X4948751Y2499826D01*
X4946436Y2498684D01*
X4944291Y2497251D01*
X4942351Y2495549D01*
X4940649Y2493609D01*
X4939216Y2491464D01*
X4938074Y2489149D01*
X4937245Y2486706D01*
X4936742Y2484175D01*
X4936573Y2481600D01*
X4936742Y2479025D01*
X4937245Y2476494D01*
X4938074Y2474051D01*
X4939216Y2471736D01*
X4940649Y2469591D01*
X4942351Y2467651D01*
X4944291Y2465949D01*
X4946436Y2464516D01*
X4948751Y2463374D01*
X4951194Y2462545D01*
X4953725Y2462041D01*
X4956300Y2461873D01*
X4958875Y2462041D01*
X4961406Y2462545D01*
X4963849Y2463374D01*
X4966164Y2464516D01*
X4968309Y2465949D01*
X4970249Y2467651D01*
X4971951Y2469591D01*
X4973384Y2471736D01*
X4974525Y2474051D01*
X4975355Y2476494D01*
X4975859Y2479025D01*
X4976027Y2481600D01*
X4975859Y2484175D01*
X4975355Y2486706D01*
X4974525Y2489149D01*
X4973384Y2491464D01*
X4971951Y2493609D01*
X4970249Y2495549D01*
X4968309Y2497251D01*
X4966164Y2498684D01*
X4963849Y2499826D01*
X4961406Y2500655D01*
X4958875Y2501159D01*
X4956300Y2501327D01*
D02*
G37*
G36*
X5606068Y2437150D02*
X5592131D01*
Y2432431D01*
X5593745D01*
X5593906Y2431958D01*
X5593700Y2431800D01*
X5592823Y2430658D01*
X5592272Y2429328D01*
X5592084Y2427900D01*
X5592272Y2426472D01*
X5592823Y2425142D01*
X5593700Y2424000D01*
X5594842Y2423123D01*
X5596172Y2422572D01*
X5597600Y2422384D01*
X5600600D01*
X5602028Y2422572D01*
X5603358Y2423123D01*
X5604500Y2424000D01*
X5605377Y2425142D01*
X5605928Y2426472D01*
X5606116Y2427900D01*
X5605928Y2429328D01*
X5605377Y2430658D01*
X5604500Y2431800D01*
X5604295Y2431958D01*
X5604455Y2432431D01*
X5606068D01*
Y2437150D01*
D02*
G37*
G36*
X5598350Y2443369D02*
X5592131D01*
Y2438650D01*
X5598350D01*
Y2443369D01*
D02*
G37*
G36*
X5556250Y2394750D02*
X5551271D01*
Y2390580D01*
X5556250D01*
Y2394750D01*
D02*
G37*
G36*
X5562729D02*
X5557750D01*
Y2390580D01*
X5557632D01*
Y2387350D01*
X5561350D01*
Y2391069D01*
X5562729D01*
Y2394750D01*
D02*
G37*
G36*
X5544750D02*
X5541092D01*
X5541146Y2394333D01*
X5541597Y2393246D01*
X5542313Y2392313D01*
X5543246Y2391597D01*
X5544334Y2391146D01*
X5544750Y2391092D01*
Y2394750D01*
D02*
G37*
G36*
X5454250Y2395450D02*
X5450592D01*
X5450647Y2395033D01*
X5451097Y2393946D01*
X5451813Y2393013D01*
X5452747Y2392297D01*
X5453833Y2391846D01*
X5454250Y2391792D01*
Y2395450D01*
D02*
G37*
G36*
X5549908Y2394750D02*
X5546250D01*
Y2391092D01*
X5546666Y2391146D01*
X5547754Y2391597D01*
X5548687Y2392313D01*
X5549403Y2393246D01*
X5549854Y2394333D01*
X5549908Y2394750D01*
D02*
G37*
G36*
X5552400Y2440211D02*
X5551103Y2440041D01*
X5549894Y2439540D01*
X5548856Y2438744D01*
X5548060Y2437706D01*
X5547650Y2436716D01*
X5547150D01*
X5546740Y2437706D01*
X5545943Y2438744D01*
X5544906Y2439540D01*
X5543697Y2440041D01*
X5543150Y2440113D01*
Y2434699D01*
Y2429287D01*
X5543697Y2429359D01*
X5544906Y2429860D01*
X5545943Y2430656D01*
X5546740Y2431694D01*
X5547150Y2432684D01*
X5547650D01*
X5548060Y2431694D01*
X5548856Y2430656D01*
X5549894Y2429860D01*
X5551103Y2429359D01*
X5552400Y2429189D01*
X5553697Y2429359D01*
X5554906Y2429860D01*
X5555944Y2430656D01*
X5556740Y2431694D01*
X5557241Y2432903D01*
X5557412Y2434200D01*
Y2435200D01*
X5557241Y2436497D01*
X5556740Y2437706D01*
X5555944Y2438744D01*
X5554906Y2439540D01*
X5553697Y2440041D01*
X5552400Y2440211D01*
D02*
G37*
G36*
X5213400Y2387816D02*
X5211972Y2387628D01*
X5210642Y2387077D01*
X5210160Y2386707D01*
X5196900D01*
X5195734Y2386554D01*
X5195097Y2386290D01*
X5194646Y2386103D01*
X5193713Y2385387D01*
X5188133Y2379807D01*
X5186617D01*
X5186097Y2380234D01*
X5185071Y2380782D01*
X5183958Y2381120D01*
X5182800Y2381234D01*
X5181642Y2381120D01*
X5180529Y2380782D01*
X5179503Y2380234D01*
X5178604Y2379496D01*
X5177866Y2378597D01*
X5177317Y2377571D01*
X5176980Y2376458D01*
X5176866Y2375300D01*
X5176980Y2374142D01*
X5177317Y2373029D01*
X5177866Y2372003D01*
X5178604Y2371104D01*
X5179503Y2370366D01*
X5180529Y2369818D01*
X5181642Y2369480D01*
X5182800Y2369366D01*
X5183958Y2369480D01*
X5185071Y2369818D01*
X5186097Y2370366D01*
X5186617Y2370793D01*
X5190000D01*
X5191167Y2370947D01*
X5192253Y2371397D01*
X5193187Y2372113D01*
X5198767Y2377693D01*
X5210421D01*
X5210642Y2377523D01*
X5211972Y2376972D01*
X5213400Y2376784D01*
X5214828Y2376972D01*
X5216158Y2377523D01*
X5217300Y2378400D01*
X5218177Y2379542D01*
X5218728Y2380872D01*
X5218916Y2382300D01*
X5218728Y2383728D01*
X5218177Y2385058D01*
X5217300Y2386200D01*
X5216158Y2387077D01*
X5214828Y2387628D01*
X5213400Y2387816D01*
D02*
G37*
G36*
X5453368Y2380450D02*
X5449650D01*
Y2376731D01*
X5453368D01*
Y2380450D01*
D02*
G37*
G36*
Y2385669D02*
X5449650D01*
Y2381950D01*
X5453368D01*
Y2385669D01*
D02*
G37*
G36*
X5501650Y2414429D02*
X5497480D01*
Y2409450D01*
X5501650D01*
Y2414429D01*
D02*
G37*
G36*
X5561350Y2385850D02*
X5557632D01*
Y2382132D01*
X5561350D01*
Y2385850D01*
D02*
G37*
%LPD*%
D10*
X5499500Y2503000D02*
D03*
X5491100D02*
D03*
X5562100Y2386600D02*
D03*
X5570500D02*
D03*
X5448900Y2381200D02*
D03*
X5440500D02*
D03*
X5450300Y2409400D02*
D03*
X5441900D02*
D03*
X5343400Y2404500D02*
D03*
X5351800D02*
D03*
X5442700Y2309100D02*
D03*
X5451100D02*
D03*
X5410900Y2299200D02*
D03*
X5402500D02*
D03*
X5357600Y2377900D02*
D03*
X5349200D02*
D03*
X5349000Y2369200D02*
D03*
X5357400D02*
D03*
X5387400Y2351600D02*
D03*
X5379000D02*
D03*
X5358200Y2341900D02*
D03*
X5349800D02*
D03*
X5350100Y2333300D02*
D03*
X5358500D02*
D03*
X5283400Y2504500D02*
D03*
X5275000D02*
D03*
X5257800Y2504000D02*
D03*
X5249400D02*
D03*
X5221300Y2419500D02*
D03*
X5212900D02*
D03*
Y2427900D02*
D03*
X5221300D02*
D03*
Y2436200D02*
D03*
X5212900D02*
D03*
X5147700Y2413700D02*
D03*
X5139300D02*
D03*
X5127900Y2413600D02*
D03*
X5119500D02*
D03*
X5103500Y2397700D02*
D03*
X5111900D02*
D03*
X5112000Y2389100D02*
D03*
X5103600D02*
D03*
X5112000Y2380700D02*
D03*
X5103600D02*
D03*
X5112000Y2371900D02*
D03*
X5103600D02*
D03*
X5112100Y2363100D02*
D03*
X5103700D02*
D03*
X5035700Y2395000D02*
D03*
X5044100D02*
D03*
X5044300Y2386600D02*
D03*
X5035900D02*
D03*
X5044300Y2378200D02*
D03*
X5035900D02*
D03*
X5066700Y2360500D02*
D03*
X5058300D02*
D03*
X5027200Y2347300D02*
D03*
X5035600D02*
D03*
X5006900Y2359500D02*
D03*
X5015300D02*
D03*
X5026800Y2338500D02*
D03*
X5035200D02*
D03*
X5357900Y2352000D02*
D03*
X5349500D02*
D03*
X5349100Y2361200D02*
D03*
X5357500D02*
D03*
X5425700Y2309200D02*
D03*
X5434100D02*
D03*
X5343300Y2414200D02*
D03*
X5351700D02*
D03*
X5349400Y2389500D02*
D03*
X5357800D02*
D03*
X5414900Y2351700D02*
D03*
X5406500D02*
D03*
X5466400Y2353300D02*
D03*
X5458000D02*
D03*
X5466600Y2333100D02*
D03*
X5458200D02*
D03*
X5532400Y2502000D02*
D03*
X5524000D02*
D03*
X5222100Y2610900D02*
D03*
X5230500D02*
D03*
D11*
X5570600Y2395500D02*
D03*
X5557000D02*
D03*
X5414500Y2309200D02*
D03*
X5400900D02*
D03*
X5245700Y2494500D02*
D03*
X5259300D02*
D03*
X5036400Y2403600D02*
D03*
X5050000D02*
D03*
X5416900Y2341700D02*
D03*
X5403300D02*
D03*
X5391000Y2341600D02*
D03*
X5377400D02*
D03*
X5491400Y2483200D02*
D03*
X5505000D02*
D03*
X5245400Y2484500D02*
D03*
X5259000D02*
D03*
X5523400Y2483200D02*
D03*
X5537000D02*
D03*
X5523500Y2493000D02*
D03*
X5537100D02*
D03*
X5275000Y2494500D02*
D03*
X5288600D02*
D03*
X5275000Y2484500D02*
D03*
X5288600D02*
D03*
X5491700Y2492800D02*
D03*
X5505300D02*
D03*
D12*
X5570700Y2378300D02*
D03*
Y2373300D02*
D03*
Y2368300D02*
D03*
X5548700Y2363300D02*
D03*
Y2368300D02*
D03*
Y2373300D02*
D03*
Y2378300D02*
D03*
X5570700Y2363300D02*
D03*
X5202400Y2417300D02*
D03*
Y2422300D02*
D03*
Y2427300D02*
D03*
X5180400Y2432300D02*
D03*
Y2427300D02*
D03*
Y2422300D02*
D03*
Y2417300D02*
D03*
X5202400Y2432300D02*
D03*
X5049214Y2370281D02*
D03*
Y2365281D02*
D03*
Y2360281D02*
D03*
X5027214Y2355281D02*
D03*
Y2360281D02*
D03*
Y2365281D02*
D03*
Y2370281D02*
D03*
X5049214Y2355281D02*
D03*
D13*
X5582300Y2357500D02*
D03*
Y2365900D02*
D03*
X5547800Y2348000D02*
D03*
Y2339600D02*
D03*
X5388300Y2442400D02*
D03*
Y2450800D02*
D03*
X5359100Y2441300D02*
D03*
Y2449700D02*
D03*
X5367400Y2441300D02*
D03*
Y2449700D02*
D03*
X5348000Y2309900D02*
D03*
Y2301500D02*
D03*
X5285100Y2308500D02*
D03*
Y2300100D02*
D03*
X5253000Y2319000D02*
D03*
Y2310600D02*
D03*
X5234500Y2368900D02*
D03*
Y2360500D02*
D03*
X5263600Y2351400D02*
D03*
Y2359800D02*
D03*
X5168900Y2438100D02*
D03*
Y2429700D02*
D03*
X5159500Y2430400D02*
D03*
Y2438800D02*
D03*
X5159700Y2420900D02*
D03*
Y2412500D02*
D03*
X5168900Y2420800D02*
D03*
Y2412400D02*
D03*
X5066000Y2351700D02*
D03*
Y2343300D02*
D03*
X5099000Y2312600D02*
D03*
Y2304200D02*
D03*
X5090500Y2312500D02*
D03*
Y2304100D02*
D03*
X5082000Y2312600D02*
D03*
Y2304200D02*
D03*
X5073500Y2312500D02*
D03*
Y2304100D02*
D03*
X5015200Y2350800D02*
D03*
Y2342400D02*
D03*
X5015700Y2376200D02*
D03*
Y2367800D02*
D03*
X5007200Y2368000D02*
D03*
Y2376400D02*
D03*
X4998300Y2359200D02*
D03*
Y2367600D02*
D03*
X4998100Y2376300D02*
D03*
Y2384700D02*
D03*
X5051800Y2421700D02*
D03*
Y2413300D02*
D03*
X5043200Y2421600D02*
D03*
Y2413200D02*
D03*
X5582300Y2374500D02*
D03*
Y2382900D02*
D03*
X5414600Y2449500D02*
D03*
Y2441100D02*
D03*
X5424900Y2441200D02*
D03*
Y2449600D02*
D03*
X5513700Y2407400D02*
D03*
Y2415800D02*
D03*
X5367300Y2502000D02*
D03*
Y2510400D02*
D03*
X5492400Y2410700D02*
D03*
Y2419100D02*
D03*
X5237800Y2408100D02*
D03*
Y2416500D02*
D03*
X5553800Y2496200D02*
D03*
Y2487800D02*
D03*
X5465600Y2494000D02*
D03*
Y2485600D02*
D03*
X5230900Y2474700D02*
D03*
Y2483100D02*
D03*
X5300900Y2476100D02*
D03*
Y2484500D02*
D03*
X5310400Y2475800D02*
D03*
Y2484200D02*
D03*
X5222300Y2475000D02*
D03*
Y2483400D02*
D03*
X5475500Y2482900D02*
D03*
Y2474500D02*
D03*
X5563800Y2484100D02*
D03*
Y2475700D02*
D03*
D14*
X5371106Y2381272D02*
D03*
Y2383241D02*
D03*
Y2385209D02*
D03*
Y2387178D02*
D03*
Y2389146D02*
D03*
Y2391115D02*
D03*
Y2393083D02*
D03*
Y2395052D02*
D03*
Y2397020D02*
D03*
Y2398989D02*
D03*
Y2400957D02*
D03*
Y2402926D02*
D03*
Y2404894D02*
D03*
Y2406863D02*
D03*
Y2408831D02*
D03*
Y2410800D02*
D03*
Y2412768D02*
D03*
Y2414737D02*
D03*
Y2416705D02*
D03*
Y2418674D02*
D03*
X5424452D02*
D03*
Y2416705D02*
D03*
Y2414737D02*
D03*
Y2412768D02*
D03*
Y2410800D02*
D03*
Y2408831D02*
D03*
Y2406863D02*
D03*
Y2404894D02*
D03*
Y2402926D02*
D03*
Y2400957D02*
D03*
Y2398989D02*
D03*
Y2397020D02*
D03*
Y2395052D02*
D03*
Y2393083D02*
D03*
Y2391115D02*
D03*
Y2389146D02*
D03*
Y2387178D02*
D03*
Y2385209D02*
D03*
Y2383241D02*
D03*
Y2381272D02*
D03*
D15*
X5379078Y2426646D02*
D03*
X5381047D02*
D03*
X5383015D02*
D03*
X5384983D02*
D03*
X5386952D02*
D03*
X5388921D02*
D03*
X5390889D02*
D03*
X5392858D02*
D03*
X5394826D02*
D03*
X5396795D02*
D03*
X5398763D02*
D03*
X5400732D02*
D03*
X5402700D02*
D03*
X5404668D02*
D03*
X5406637D02*
D03*
X5408606D02*
D03*
X5410574D02*
D03*
X5412543D02*
D03*
X5414511D02*
D03*
X5416479D02*
D03*
Y2373300D02*
D03*
X5414511D02*
D03*
X5412543D02*
D03*
X5410574D02*
D03*
X5408606D02*
D03*
X5406637D02*
D03*
X5404668D02*
D03*
X5402700D02*
D03*
X5400732D02*
D03*
X5398763D02*
D03*
X5396795D02*
D03*
X5394826D02*
D03*
X5392858D02*
D03*
X5390889D02*
D03*
X5388921D02*
D03*
X5386952D02*
D03*
X5384983D02*
D03*
X5383015D02*
D03*
X5381047D02*
D03*
X5379078D02*
D03*
D16*
X5328100Y2352100D02*
D03*
X5341880D02*
D03*
X5328320Y2341700D02*
D03*
X5342100D02*
D03*
X5327520Y2377700D02*
D03*
X5341300D02*
D03*
D17*
X5338200Y2303100D02*
D03*
D18*
X5313800Y2294100D02*
D03*
Y2303100D02*
D03*
Y2312100D02*
D03*
D19*
X5303300Y2309900D02*
D03*
Y2296300D02*
D03*
X5294300Y2309700D02*
D03*
Y2296100D02*
D03*
X5356700Y2315500D02*
D03*
Y2301900D02*
D03*
X5563800Y2494900D02*
D03*
Y2508500D02*
D03*
X5474900Y2494200D02*
D03*
Y2507800D02*
D03*
X5222300Y2493800D02*
D03*
Y2507400D02*
D03*
X5310100Y2494600D02*
D03*
Y2508200D02*
D03*
X5502400Y2422300D02*
D03*
Y2408700D02*
D03*
X5247800Y2419700D02*
D03*
Y2406100D02*
D03*
D20*
X5379000Y2333380D02*
D03*
Y2319600D02*
D03*
X5404900Y2333479D02*
D03*
Y2319700D02*
D03*
X5414900Y2333479D02*
D03*
Y2319700D02*
D03*
X5389000Y2333380D02*
D03*
Y2319600D02*
D03*
D21*
X5376700Y2472800D02*
D03*
D22*
X5381700D02*
D03*
X5386700D02*
D03*
X5391700D02*
D03*
X5396700D02*
D03*
X5401700D02*
D03*
X5406700D02*
D03*
X5411700D02*
D03*
X5416700D02*
D03*
X5421700D02*
D03*
Y2510300D02*
D03*
X5416700D02*
D03*
X5411700D02*
D03*
X5406700D02*
D03*
X5401700D02*
D03*
X5396700D02*
D03*
X5391700D02*
D03*
X5386700D02*
D03*
X5381700D02*
D03*
X5376700D02*
D03*
D23*
X5250400Y2378900D02*
X5254000Y2382500D01*
X5526300Y2635100D02*
Y2665300D01*
X5481200Y2666000D02*
X5527000D01*
X5476200Y2623500D02*
X5479000Y2620700D01*
X5475900Y2617600D02*
X5499500Y2594000D01*
X5196900Y2382200D02*
X5214000D01*
X5313800Y2303100D02*
X5338200D01*
X5093700Y2355300D02*
X5132800D01*
X5080900Y2354900D02*
X5093300D01*
X5115400Y2375300D02*
X5132800D01*
X5112000Y2371900D02*
X5115400Y2375300D01*
X5112100Y2363100D02*
Y2371800D01*
X5112000Y2371900D02*
X5112100Y2371800D01*
X5112000Y2371900D02*
Y2380700D01*
Y2389100D01*
Y2397600D01*
X5111900Y2397700D02*
X5112000Y2397600D01*
X5119500Y2405300D02*
Y2413600D01*
X5111900Y2397700D02*
X5119500Y2405300D01*
X5075300Y2429700D02*
X5091400Y2413600D01*
X5119500D01*
X4996300Y2432200D02*
Y2481600D01*
X4990100Y2426000D02*
X4996300Y2432200D01*
X4990100Y2416200D02*
Y2426000D01*
X5126000Y2315300D02*
X5132800D01*
X5114900Y2304200D02*
X5126000Y2315300D01*
X5099000Y2304200D02*
X5114900D01*
X5090600D02*
X5099000D01*
X5082100Y2304100D02*
X5090500D01*
X5082000Y2304200D02*
X5082100Y2304100D01*
X5073600Y2304200D02*
X5082000D01*
X5073500Y2304100D02*
X5073600Y2304200D01*
X5098900Y2312500D02*
X5099000Y2312600D01*
X5090500Y2312500D02*
X5098900D01*
X5082100D02*
X5090500D01*
X5073600Y2312600D02*
X5082000D01*
Y2343800D01*
X5080900Y2344900D02*
X5082000Y2343800D01*
X5132800Y2315300D02*
X5182800D01*
X5208200Y2310000D02*
X5236000D01*
X5203600Y2314600D02*
X5208200Y2310000D01*
X5183500Y2314600D02*
X5203600D01*
X5182800Y2315300D02*
X5183500Y2314600D01*
X5182800Y2335300D02*
X5204100D01*
X5206900Y2332500D01*
X5216500D01*
X5182800Y2355300D02*
X5214700D01*
X5215000Y2355000D01*
X5182800Y2375300D02*
X5190000D01*
X5250400Y2371600D02*
Y2378900D01*
X5237200Y2371600D02*
X5250400D01*
X5234500Y2368900D02*
X5237200Y2371600D01*
X5218900Y2368900D02*
X5234500D01*
X5215000Y2365000D02*
X5218900Y2368900D01*
X5229000Y2355000D02*
X5234500Y2360500D01*
X5215000Y2355000D02*
X5229000D01*
X5234500Y2360500D02*
X5249300D01*
X5250400Y2361600D01*
X5261800D01*
X5263600Y2359800D01*
X5250400Y2351600D02*
X5263400D01*
X5263600Y2351400D01*
Y2359800D02*
X5272800D01*
X5275500Y2362500D01*
X5283500D01*
X5264700Y2352500D02*
X5283500D01*
X5263600Y2351400D02*
X5264700Y2352500D01*
X5256500Y2325900D02*
Y2332500D01*
X5253000Y2322400D02*
X5256500Y2325900D01*
X5253000Y2319000D02*
Y2322400D01*
X5236000Y2320000D02*
X5252000D01*
X5252400Y2310000D02*
X5253000Y2310600D01*
X5236000Y2310000D02*
X5252400D01*
X5253000Y2319000D02*
X5265100D01*
X5269000Y2315100D01*
Y2304100D02*
Y2315100D01*
Y2304100D02*
X5273600Y2299500D01*
X5284500D01*
X5285100Y2300100D01*
Y2296400D02*
Y2300100D01*
Y2296400D02*
X5285400Y2296100D01*
X5294300D01*
X5303100D01*
X5305500Y2294100D02*
X5313800D01*
X5303300Y2296300D02*
X5305500Y2294100D01*
X5348000Y2309900D02*
Y2313900D01*
X5285100Y2308500D02*
X5293100D01*
X5294300Y2309700D01*
X5303100D01*
X5303300Y2309900D01*
X5305500Y2312100D01*
X5313800D01*
X5253000Y2301100D02*
X5253100D01*
X5284800Y2308800D02*
Y2317600D01*
Y2308800D02*
X5285100Y2308500D01*
X5075300Y2483600D02*
X5076300Y2484600D01*
X4996300Y2481600D02*
X5075000D01*
X5075300Y2429700D02*
Y2481900D01*
Y2483600D01*
X5075000Y2481600D02*
X5075300Y2481900D01*
X4996300Y2481600D02*
X4997300Y2482600D01*
Y2599600D02*
X5074300D01*
X5076300Y2597600D01*
X5083000Y2625100D02*
X5161900D01*
X5076300Y2618400D02*
X5083000Y2625100D01*
X5076300Y2597600D02*
Y2618400D01*
X5147700Y2413700D02*
X5152600D01*
X5153800Y2412500D01*
X5159700D01*
X5221300Y2419500D02*
Y2427900D01*
Y2412900D02*
Y2419500D01*
Y2412900D02*
X5226100Y2408100D01*
X5237800D01*
X5239800Y2406100D02*
X5247800D01*
X5237800Y2408100D02*
X5239800Y2406100D01*
X5247800D02*
X5261400D01*
X5367300Y2510400D02*
X5367400Y2510300D01*
X5277000Y2463500D02*
Y2472500D01*
X5279000Y2474500D01*
X5275000Y2478900D02*
Y2484500D01*
X5279400Y2474500D02*
X5283000D01*
X5275000Y2478900D02*
X5279400Y2474500D01*
X5275000Y2484500D02*
Y2494500D01*
Y2504500D01*
X5283400D02*
X5287600D01*
X5288600Y2503500D01*
Y2494500D02*
Y2503500D01*
Y2484500D02*
Y2494500D01*
X5243000Y2482100D02*
X5245400Y2484500D01*
X5243000Y2474500D02*
Y2482100D01*
X5245400Y2484500D02*
Y2494200D01*
X5245700Y2494500D01*
X5259000Y2484500D02*
Y2494200D01*
X5259300Y2494500D01*
Y2502500D01*
X5257800Y2504000D02*
X5259300Y2502500D01*
X5245700Y2500300D02*
X5249400Y2504000D01*
X5245700Y2494500D02*
Y2500300D01*
X5247000Y2463500D02*
Y2470500D01*
X5243000Y2474500D02*
X5247000Y2470500D01*
X5257000Y2463500D02*
Y2473000D01*
X5259000Y2475000D01*
Y2484500D01*
X5235100Y2463500D02*
X5237000D01*
X5230900Y2467700D02*
X5235100Y2463500D01*
X5230900Y2467700D02*
Y2474700D01*
X5489400D02*
X5501200D01*
X5502400Y2473500D01*
Y2464700D02*
Y2473500D01*
X5489400Y2474700D02*
Y2481200D01*
X5491400Y2483200D01*
Y2492500D01*
X5491700Y2492800D01*
Y2502400D01*
X5491100Y2503000D02*
X5491700Y2502400D01*
X5499500Y2503000D02*
X5501900D01*
X5505300Y2499600D01*
Y2492800D02*
Y2499600D01*
Y2483500D02*
Y2492800D01*
X5505000Y2483200D02*
X5505300Y2483500D01*
X5505000Y2483200D02*
X5505600D01*
X5512400Y2476400D01*
Y2464700D02*
Y2476400D01*
X5524000Y2493500D02*
Y2502000D01*
X5523500Y2493000D02*
X5524000Y2493500D01*
X5523500Y2483300D02*
Y2493000D01*
X5523400Y2483200D02*
X5523500Y2483300D01*
X5537100D02*
Y2493000D01*
X5537000Y2483200D02*
X5537100Y2483300D01*
X5532400Y2502000D02*
X5536600D01*
Y2493500D02*
X5537100Y2493000D01*
X5532400Y2464700D02*
Y2471700D01*
X5529400Y2474700D02*
X5532400Y2471700D01*
X5523400Y2480700D02*
X5529400Y2474700D01*
X5523400Y2480700D02*
Y2483200D01*
X5293600Y2504500D02*
X5296500Y2507400D01*
X5287600Y2504500D02*
X5293600D01*
X5552400Y2486400D02*
X5553800Y2487800D01*
X5254000Y2382500D02*
Y2382700D01*
X5190000Y2375300D02*
X5196900Y2382200D01*
X5147700Y2413700D02*
Y2425400D01*
X5168900Y2444100D02*
X5170900Y2446100D01*
X5168900Y2438100D02*
Y2444100D01*
X5532400Y2502000D02*
Y2517500D01*
X5349600Y2315500D02*
X5350100Y2316000D01*
Y2317400D02*
X5354800D01*
X5350100Y2316000D02*
Y2317400D01*
Y2333300D01*
X5313800Y2312100D02*
Y2321800D01*
X5314000Y2322000D01*
X4997300Y2482600D02*
Y2599600D01*
X5076100Y2539300D02*
X5076300Y2539500D01*
Y2484600D02*
Y2539500D01*
Y2597600D01*
X5213600Y2683900D02*
X5235800Y2706100D01*
X5427400Y2568600D02*
X5438400Y2557600D01*
X5476200Y2623500D02*
Y2661000D01*
X5481200Y2666000D01*
X5526300Y2665300D02*
X5527000Y2666000D01*
X5499500Y2503000D02*
Y2594000D01*
X5542400Y2464700D02*
Y2477800D01*
X5537000Y2483200D02*
X5542400Y2477800D01*
X5288600Y2484500D02*
X5292300Y2480800D01*
Y2472000D02*
Y2480800D01*
X5287000Y2466700D02*
X5292300Y2472000D01*
X5287000Y2463500D02*
Y2466700D01*
X5038000Y2539300D02*
X5076100D01*
X5161900Y2625100D02*
Y2663400D01*
Y2625100D02*
X5198762Y2588238D01*
X5161900Y2663400D02*
X5182400Y2683900D01*
X5198762Y2556800D02*
Y2588238D01*
X5230200Y2636100D02*
Y2667300D01*
X5214900Y2682600D02*
X5230200Y2667300D01*
X5182400Y2683900D02*
X5213600D01*
X5427400Y2568600D02*
Y2673300D01*
X5394600Y2706100D02*
X5427400Y2673300D01*
X5235800Y2706100D02*
X5394600D01*
X5222600Y2474700D02*
X5230900D01*
X5222300Y2475000D02*
X5222600Y2474700D01*
X5222300Y2483400D02*
Y2493800D01*
X5536600Y2493500D02*
Y2502000D01*
X5475500Y2482900D02*
Y2493600D01*
X5474900Y2494200D02*
X5475500Y2493600D01*
X5465600Y2481000D02*
Y2485600D01*
Y2481000D02*
X5472100Y2474500D01*
X5475500D01*
X5485300Y2464700D02*
X5492400D01*
X5475500Y2474500D02*
X5485300Y2464700D01*
X5552600Y2475700D02*
X5563800D01*
X5552400Y2464700D02*
Y2475500D01*
Y2486400D01*
Y2475500D02*
X5552600Y2475700D01*
X5563800Y2484100D02*
Y2494900D01*
X5253000Y2301100D02*
Y2310600D01*
D24*
X5397100Y2393400D02*
X5401900D01*
X5367400Y2431500D02*
Y2441300D01*
X5539900Y2378300D02*
X5548700D01*
X5442200Y2308800D02*
X5442600Y2309200D01*
X5358253Y2389047D02*
Y2393047D01*
X5396795Y2352505D02*
Y2373300D01*
Y2352505D02*
X5397600Y2351700D01*
X5406500D01*
X5400732Y2358968D02*
Y2373300D01*
Y2358968D02*
X5402400Y2357300D01*
X5413600D01*
X5414900Y2356000D01*
Y2351700D02*
Y2356000D01*
X5404668Y2361931D02*
Y2373300D01*
Y2361931D02*
X5406600Y2360000D01*
X5422700D01*
X5424200Y2358500D01*
Y2317400D02*
Y2358500D01*
Y2317400D02*
X5425300Y2316300D01*
X5431300D01*
X5434100Y2313500D01*
Y2309200D02*
Y2313500D01*
X5394826Y2354726D02*
Y2373300D01*
X5391700Y2351600D02*
X5394826Y2354726D01*
X5387400Y2351600D02*
X5391700D01*
X5392858Y2359558D02*
Y2373300D01*
X5390600Y2357300D02*
X5392858Y2359558D01*
X5380000Y2357300D02*
X5390600D01*
X5379000Y2356300D02*
X5380000Y2357300D01*
X5379000Y2351600D02*
Y2356300D01*
Y2343200D02*
Y2351600D01*
X5377400Y2341600D02*
X5379000Y2343200D01*
X5357500Y2361200D02*
X5366800D01*
X5371106Y2365506D01*
Y2381272D01*
X5357400Y2369200D02*
Y2377700D01*
X5357600Y2377900D01*
X5363541Y2383241D02*
X5371106D01*
X5358200Y2377900D02*
X5363541Y2383241D01*
X5357600Y2377900D02*
X5358200D01*
X5361609Y2385209D02*
X5371106D01*
X5360700Y2384300D02*
X5361609Y2385209D01*
X5350800Y2384300D02*
X5360700D01*
X5349400Y2385700D02*
X5350800Y2384300D01*
X5349400Y2385700D02*
Y2389500D01*
X5360122Y2387178D02*
X5371106D01*
X5362463Y2406863D02*
X5371106D01*
X5359800Y2404200D02*
X5362463Y2406863D01*
X5351831Y2412768D02*
X5371106D01*
X5343300Y2404600D02*
X5343400Y2404500D01*
X5359100Y2441300D02*
X5367400D01*
Y2431500D02*
X5371106Y2427794D01*
Y2418674D02*
Y2427794D01*
X5414600Y2426735D02*
Y2441100D01*
X5414511Y2426646D02*
X5414600Y2426735D01*
X5424900Y2430800D02*
Y2441200D01*
X5420746Y2426646D02*
X5424900Y2430800D01*
X5416479Y2426646D02*
X5420746D01*
X5386900Y2426698D02*
X5386952Y2426646D01*
X5421400Y2449600D02*
X5424900D01*
X5419700Y2447900D02*
X5421400Y2449600D01*
X5419700Y2441400D02*
Y2447900D01*
X5419400Y2441100D02*
X5419700Y2441400D01*
X5414600Y2441100D02*
X5419400D01*
X5412543Y2426646D02*
Y2434257D01*
X5409500Y2437300D02*
X5412543Y2434257D01*
X5409500Y2437300D02*
Y2448900D01*
X5410100Y2449500D01*
X5414600D01*
X5351700Y2412900D02*
X5351831Y2412768D01*
X5352100Y2404200D02*
X5359800D01*
X5351800Y2404500D02*
X5352100Y2404200D01*
X5359223Y2414737D02*
X5371106D01*
X5344800Y2423382D02*
Y2470618D01*
X5416700Y2472800D02*
Y2479400D01*
X5396700Y2466900D02*
Y2472800D01*
X5391700Y2466526D02*
Y2472800D01*
X5386700Y2466152D02*
Y2472800D01*
X5381700Y2465778D02*
Y2472800D01*
X5431000Y2465800D02*
X5440900Y2455900D01*
X5396700Y2466900D02*
X5397800Y2465800D01*
X5431000D01*
X5391700Y2466526D02*
X5395026Y2463200D01*
X5429800D01*
X5438800Y2454200D01*
X5386700Y2466152D02*
X5392052Y2460800D01*
X5428400D01*
X5436700Y2452500D01*
X5381700Y2465778D02*
X5389178Y2458300D01*
X5427100D01*
X5434600Y2450800D01*
X5424452Y2381272D02*
X5440428D01*
X5440500Y2381200D01*
X5432900Y2410800D02*
X5434600Y2412500D01*
Y2450800D01*
X5424452Y2410800D02*
X5432900D01*
X5436700Y2412054D02*
Y2452500D01*
X5433477Y2408831D02*
X5436700Y2412054D01*
X5424452Y2408831D02*
X5433477D01*
X5456200Y2405561D02*
Y2416400D01*
X5454141Y2400957D02*
X5458000Y2404816D01*
X5424452Y2400957D02*
X5454141D01*
X5424452Y2402926D02*
X5453564D01*
X5456200Y2405561D01*
X5434863Y2406863D02*
X5437400Y2409400D01*
X5441900D01*
X5424452Y2406863D02*
X5434863D01*
X5424452Y2404894D02*
X5448895D01*
X5450300Y2406300D01*
Y2409400D01*
X5351800Y2399500D02*
X5358253Y2393047D01*
Y2389047D02*
X5360122Y2387178D01*
X5357800Y2389500D02*
X5358253Y2389047D01*
X5416479Y2373300D02*
X5434100D01*
X5440900Y2366500D01*
Y2353200D02*
Y2366500D01*
X5414511Y2364889D02*
Y2373300D01*
Y2364889D02*
X5415900Y2363500D01*
X5425500D01*
X5428300Y2360700D01*
Y2336500D02*
Y2360700D01*
Y2336500D02*
X5431600Y2333200D01*
X5440900D01*
X5341980Y2352000D02*
X5349500D01*
X5341880Y2352100D02*
X5341980Y2352000D01*
X5358200Y2341900D02*
X5364700D01*
X5367200Y2344400D01*
Y2354100D01*
X5373800Y2360700D01*
X5387100D01*
X5388921Y2362521D01*
Y2373300D01*
X5341500Y2377900D02*
X5349200D01*
X5341300Y2377700D02*
X5341500Y2377900D01*
X5390889Y2417211D02*
Y2426646D01*
Y2417211D02*
X5394000Y2414100D01*
X5398900D01*
X5381047Y2419753D02*
Y2426646D01*
X5548700Y2368300D02*
Y2373300D01*
X5543000Y2368300D02*
X5548700D01*
X5539300Y2364600D02*
X5543000Y2368300D01*
X5539300Y2363900D02*
Y2364600D01*
X5539900Y2378300D02*
X5540000Y2378200D01*
X5540200D01*
X5532600Y2360600D02*
Y2373400D01*
Y2360600D02*
X5535500Y2357700D01*
X5547500D01*
X5548700Y2358900D01*
Y2363300D01*
X5383015Y2373300D02*
Y2382815D01*
X5384983Y2373300D02*
Y2381284D01*
X5386952Y2373300D02*
Y2380052D01*
X5394500Y2387600D01*
X5406800D01*
X5384983Y2381284D02*
X5397100Y2393400D01*
X5383015Y2382815D02*
X5399200Y2399000D01*
X5379078Y2373300D02*
Y2380678D01*
X5380600Y2382200D01*
Y2383600D01*
X5401800Y2404800D01*
X5404900D01*
X5480000Y2318300D02*
Y2331300D01*
Y2318300D02*
X5486600Y2311700D01*
X5491700D01*
X5496300Y2307100D01*
Y2299500D02*
Y2307100D01*
X5493000Y2320600D02*
X5499300Y2314300D01*
X5530000D01*
X5536300Y2308000D01*
Y2299500D02*
Y2308000D01*
X5442200Y2300900D02*
Y2308800D01*
X5466300Y2299500D02*
Y2304400D01*
X5461600Y2309100D02*
X5466300Y2304400D01*
X5451100Y2309100D02*
X5461600D01*
X5570700Y2378300D02*
Y2386400D01*
X5570500Y2386600D02*
X5570700Y2386400D01*
X5570500Y2386600D02*
Y2395400D01*
X5570600Y2395500D01*
X5367300Y2431600D02*
X5367400Y2431500D01*
X5383015Y2426646D02*
Y2442985D01*
X5375500Y2436900D02*
X5377400D01*
X5379078Y2426646D02*
Y2433722D01*
X5376650Y2436150D02*
X5379078Y2433722D01*
X5376650Y2436150D02*
X5377400Y2436900D01*
X5367400Y2449700D02*
X5369800Y2452100D01*
X5379000Y2447000D02*
X5383015Y2442985D01*
X5378300Y2447000D02*
X5379000D01*
X5365300Y2471100D02*
Y2476600D01*
X5411700Y2472800D02*
Y2480300D01*
X5365300Y2476600D02*
X5369300Y2480600D01*
X5400000D01*
X5401700Y2478900D01*
Y2472800D02*
Y2478900D01*
X5344800Y2470618D02*
X5364782Y2490600D01*
X5405500D01*
X5416700Y2479400D01*
X5347500Y2469500D02*
X5365400Y2487400D01*
X5404600D01*
X5411700Y2480300D01*
X5406700Y2472800D02*
Y2479800D01*
X5402500Y2484000D02*
X5406700Y2479800D01*
X5368000Y2484000D02*
X5402500D01*
X5355400Y2430000D02*
Y2430100D01*
X5335500Y2426100D02*
Y2428800D01*
X5347500Y2426500D02*
Y2469500D01*
Y2426500D02*
X5349800Y2424200D01*
X5353300D01*
X5360794Y2416705D01*
X5371106D01*
X5344800Y2423382D02*
X5346582Y2421600D01*
X5352360D01*
X5359223Y2414737D01*
X5335500Y2426100D02*
X5342700Y2418900D01*
X5349300D01*
X5351700Y2416500D01*
X5384983Y2426646D02*
Y2442184D01*
X5385200Y2442400D01*
X5388300D01*
X5386952Y2426646D02*
Y2435052D01*
X5388100Y2436200D01*
X5369800Y2452100D02*
X5387000D01*
X5388300Y2450800D01*
X5396700D01*
X5400800Y2446700D01*
X5388100Y2436200D02*
X5397300D01*
X5400800Y2439700D01*
Y2446700D01*
X5027214Y2370281D02*
Y2373386D01*
X5024400Y2376200D02*
X5027214Y2373386D01*
X5015700Y2376200D02*
X5024400D01*
X5007400D02*
X5015700D01*
X5007200Y2376400D02*
X5007400Y2376200D01*
X4998300Y2367600D02*
Y2376100D01*
X4998100Y2376300D02*
X4998300Y2376100D01*
X4998700Y2368000D02*
X5007200D01*
X4998300Y2367600D02*
X4998700Y2368000D01*
X5007400Y2367800D02*
X5015700D01*
X5007200Y2368000D02*
X5007400Y2367800D01*
X5021119Y2365281D02*
X5027214D01*
X5018600Y2367800D02*
X5021119Y2365281D01*
X5015700Y2367800D02*
X5018600D01*
X5016081Y2360281D02*
X5027214D01*
X5015300Y2359500D02*
X5016081Y2360281D01*
X5015200Y2350800D02*
X5015300Y2350900D01*
Y2359500D01*
X5026800Y2338500D02*
Y2346900D01*
X5027200Y2347300D01*
Y2355267D01*
X5027214Y2355281D01*
X5049433Y2360500D02*
X5058300D01*
X5049214Y2360281D02*
X5049433Y2360500D01*
X5035600Y2347300D02*
Y2363900D01*
X5041981Y2370281D01*
X5049214D01*
Y2377014D01*
X5048028Y2378200D02*
X5049214Y2377014D01*
X5044300Y2378200D02*
X5048028D01*
X5044300D02*
Y2386600D01*
X5044100Y2395000D02*
X5057100Y2382000D01*
Y2367100D02*
Y2382000D01*
X5055281Y2365281D02*
X5057100Y2367100D01*
X5049214Y2365281D02*
X5055281D01*
X5048200Y2403600D02*
X5050000D01*
X5044100Y2399500D02*
X5048200Y2403600D01*
X5044100Y2395000D02*
Y2399500D01*
X5036400Y2395700D02*
Y2403600D01*
X5035700Y2395000D02*
X5036400Y2395700D01*
X5035700Y2386800D02*
Y2395000D01*
Y2386800D02*
X5035900Y2386600D01*
Y2378200D02*
Y2386600D01*
X4998600Y2359500D02*
X5006900D01*
X4998300Y2359200D02*
X4998600Y2359500D01*
X5035200Y2338500D02*
X5046700D01*
X5049214Y2341014D01*
X5090500Y2304100D02*
X5090600Y2304200D01*
X5081700Y2303900D02*
X5082000Y2304200D01*
X5073500Y2304100D02*
X5073700Y2303900D01*
X5058600Y2304100D02*
X5073500D01*
X5035200Y2327500D02*
X5058600Y2304100D01*
X5035200Y2327500D02*
Y2338500D01*
X5090500Y2312500D02*
X5090600Y2312600D01*
X5082000D02*
X5082100Y2312500D01*
X5073500D02*
X5073600Y2312600D01*
X5090400Y2304200D02*
X5090500Y2304100D01*
X5080300Y2314300D02*
X5082000Y2312600D01*
X5080300Y2344300D02*
X5080900Y2344900D01*
X5116700Y2335300D02*
X5132800D01*
X5108200Y2326800D02*
X5116700Y2335300D01*
X5099800Y2326800D02*
X5108200D01*
X5050000Y2403100D02*
X5057400Y2395700D01*
X5050000Y2403100D02*
Y2403600D01*
Y2409300D01*
X5051800Y2411100D01*
Y2413300D01*
X5043300D02*
X5051800D01*
X5043200Y2413200D02*
X5043300Y2413300D01*
Y2421700D02*
X5051800D01*
X5043200Y2421600D02*
X5043300Y2421700D01*
X5032800Y2421600D02*
X5043200D01*
X5030100Y2418900D02*
X5032800Y2421600D01*
X5030100Y2416200D02*
Y2418900D01*
X5074500Y2364900D02*
X5080900D01*
X5070100Y2360500D02*
X5074500Y2364900D01*
X5066700Y2360500D02*
X5070100D01*
X5066000Y2351700D02*
Y2359800D01*
X5066700Y2360500D01*
X5067600Y2344900D02*
X5080900D01*
X5066000Y2343300D02*
X5067600Y2344900D01*
X5015200Y2332700D02*
Y2342400D01*
Y2332700D02*
X5015700Y2332200D01*
X5066400Y2313700D02*
X5072300D01*
X5073500Y2312500D01*
X5093300Y2354900D02*
X5093700Y2355300D01*
X5408606Y2426646D02*
Y2434294D01*
X5193400Y2422600D02*
X5193700Y2422300D01*
X5202400D01*
Y2417300D02*
X5210700D01*
X5212900Y2419500D01*
X5221300Y2436200D02*
Y2443500D01*
X5212900Y2412900D02*
Y2419500D01*
X5192300Y2443700D02*
X5221100D01*
X5189600Y2441000D02*
X5192300Y2443700D01*
X5312200Y2452500D02*
X5321300Y2461600D01*
X5198600Y2452500D02*
X5312200D01*
X5404000Y2438900D02*
X5408606Y2434294D01*
X5404000Y2438900D02*
Y2448700D01*
X5396800Y2455900D02*
X5404000Y2448700D01*
X5382000Y2461000D02*
X5387100Y2455900D01*
X5396800D01*
X5350500Y2435000D02*
X5355400Y2430100D01*
X5350500Y2435000D02*
Y2466500D01*
X5368000Y2484000D01*
X5366200Y2461000D02*
X5382000D01*
X5334400Y2412900D02*
Y2414100D01*
X5356900Y2457200D02*
X5357100Y2457000D01*
X5342500Y2333300D02*
X5350100D01*
X5340900Y2332500D02*
X5341300Y2332100D01*
X5341800Y2361700D02*
X5348600D01*
X5349100Y2361200D01*
Y2369100D01*
X5349000Y2369200D02*
X5349100Y2369100D01*
X5342300Y2369200D02*
X5349000D01*
X5342000Y2369500D02*
X5342300Y2369200D01*
X5341600Y2388800D02*
X5342300Y2389500D01*
X5349400D01*
X5344231Y2408831D02*
X5371106D01*
X5343300Y2404600D02*
Y2407900D01*
Y2412900D01*
X5351700D02*
Y2414200D01*
Y2416500D01*
X5343300Y2407900D02*
X5344231Y2408831D01*
X5424452Y2387178D02*
X5446622D01*
X5448900Y2384900D01*
Y2381200D02*
Y2384900D01*
X5438800Y2433800D02*
Y2454200D01*
Y2433800D02*
X5456200Y2416400D01*
X5440900Y2435500D02*
Y2455900D01*
Y2435500D02*
X5458000Y2418400D01*
Y2404816D02*
Y2418400D01*
X5450300Y2409400D02*
Y2414000D01*
X5455000Y2381700D02*
Y2396200D01*
Y2381700D02*
X5455500Y2381200D01*
X5447200Y2417100D02*
X5450300Y2414000D01*
X5516200Y2360200D02*
X5516800Y2359600D01*
X5513700Y2407400D02*
X5520000Y2401100D01*
X5516200Y2360200D02*
Y2381200D01*
X5520000Y2385000D01*
Y2401100D01*
X5399200Y2399000D02*
X5407700D01*
X5416228Y2381272D02*
X5424452D01*
X5414000Y2383500D02*
X5416228Y2381272D01*
X5414000Y2383500D02*
Y2406200D01*
X5414663Y2406863D02*
X5424452D01*
X5414000Y2406200D02*
X5414511Y2406711D01*
X5384800Y2408200D02*
Y2416000D01*
X5381047Y2419753D02*
X5384800Y2416000D01*
X5371106Y2406863D02*
X5379137D01*
X5383000Y2403000D02*
X5389000D01*
X5390300Y2404300D01*
X5388400Y2414900D02*
X5390300Y2413000D01*
X5388400Y2414900D02*
Y2417200D01*
X5386952Y2418648D02*
X5388400Y2417200D01*
X5386952Y2418648D02*
Y2426646D01*
X5379137Y2406863D02*
X5383000Y2403000D01*
X5388300Y2442400D02*
X5394700D01*
X5395600Y2443300D01*
X5381700Y2503100D02*
Y2510300D01*
X5367300Y2502000D02*
X5380600D01*
X5381700Y2503100D01*
X5211500Y2410700D02*
Y2411500D01*
Y2410700D02*
X5224400Y2397800D01*
X5332100D01*
X5334600Y2395300D01*
X5049214Y2341014D02*
Y2346100D01*
Y2355281D01*
X5006400Y2348900D02*
Y2359000D01*
X5006900Y2359500D01*
X5031100Y2378200D02*
X5035900D01*
X5027000Y2382300D02*
X5031100Y2378200D01*
X5390300Y2404300D02*
Y2407100D01*
Y2413000D01*
X5399700Y2407100D02*
X5403700Y2411100D01*
X5390300Y2407100D02*
X5399700D01*
X5414511Y2406711D02*
Y2411100D01*
Y2426646D01*
X5403700Y2411100D02*
X5414511D01*
X5380600Y2502000D02*
X5397700D01*
X5421700Y2478000D01*
Y2472800D02*
Y2478000D01*
X5334400Y2412900D02*
X5343300D01*
X5341300Y2332100D02*
X5342500Y2333300D01*
D25*
X5564000Y2349200D02*
X5580000D01*
X5371500Y2319000D02*
X5379000D01*
X5379300D01*
X5356700Y2301900D02*
X5367800D01*
X5370600Y2304700D01*
X5379300Y2319000D02*
X5379400Y2319100D01*
X5370600Y2304700D02*
Y2318100D01*
X5371500Y2319000D01*
X5379000Y2311500D02*
X5381300Y2309200D01*
X5400900D01*
X5379000Y2311500D02*
Y2319000D01*
Y2319600D01*
X5401200Y2319700D02*
X5404900D01*
X5400900Y2319400D02*
X5401200Y2319700D01*
X5400900Y2309200D02*
Y2319400D01*
X5414900Y2309600D02*
Y2319700D01*
X5414500Y2309200D02*
X5414900Y2309600D01*
X5410900Y2299200D02*
X5414200D01*
X5414500Y2299500D01*
Y2309200D01*
X5400900Y2300800D02*
Y2309200D01*
Y2300800D02*
X5402500Y2299200D01*
X5414500Y2309200D02*
X5425700D01*
X5434100D02*
X5442600D01*
X5441000Y2333100D02*
X5458200D01*
X5440900Y2333200D02*
X5441000Y2333100D01*
X5466600D02*
Y2353100D01*
X5466400Y2353300D02*
X5466600Y2353100D01*
X5441000Y2353300D02*
X5458000D01*
X5440900Y2353200D02*
X5441000Y2353300D01*
X5414900Y2333479D02*
Y2339700D01*
X5416900Y2341700D01*
X5404900Y2333479D02*
Y2340100D01*
X5403300Y2341700D02*
X5404900Y2340100D01*
X5406500Y2347500D02*
Y2351700D01*
X5403300Y2344300D02*
X5406500Y2347500D01*
X5403300Y2341700D02*
Y2344300D01*
X5414900Y2347100D02*
Y2351700D01*
Y2347100D02*
X5416900Y2345100D01*
Y2341700D02*
Y2345100D01*
X5377400Y2337600D02*
Y2341600D01*
Y2337600D02*
X5379000Y2336000D01*
Y2333380D02*
Y2336000D01*
X5391000Y2339000D02*
Y2341600D01*
X5389000Y2337000D02*
X5391000Y2339000D01*
X5389000Y2333380D02*
Y2337000D01*
X5358200Y2333600D02*
Y2341900D01*
Y2333600D02*
X5358500Y2333300D01*
X5349600Y2341700D02*
X5349800Y2341900D01*
X5342100Y2341700D02*
X5349600D01*
X5323200D02*
X5328320D01*
X5321800Y2340300D02*
X5323200Y2341700D01*
X5311400Y2340300D02*
X5321800D01*
X5348400Y2301900D02*
X5356700D01*
X5348000Y2301500D02*
X5348400Y2301900D01*
X5339800Y2301500D02*
X5348000D01*
X5338200Y2303100D02*
X5339800Y2301500D01*
X5294300Y2309700D02*
X5294500Y2309900D01*
X5285100Y2300100D02*
X5285500Y2299700D01*
X5303100Y2296100D02*
X5303300Y2296300D01*
X5305700D01*
X5252000Y2320000D02*
X5253000Y2319000D01*
X5451100Y2299000D02*
Y2309100D01*
X5445200Y2293100D02*
X5451100Y2299000D01*
X5403500Y2293100D02*
X5445200D01*
X5402500Y2294100D02*
X5403500Y2293100D01*
X5402500Y2294100D02*
Y2299200D01*
X5389000Y2343600D02*
X5391000Y2341600D01*
X5389000Y2343600D02*
Y2350000D01*
X5387400Y2351600D02*
X5389000Y2350000D01*
X5357900Y2352000D02*
Y2360800D01*
X5357500Y2361200D02*
X5357900Y2360800D01*
X5466600Y2320400D02*
Y2333100D01*
Y2320400D02*
X5476300Y2310700D01*
Y2299500D02*
Y2310700D01*
X5466400Y2353300D02*
Y2370300D01*
X5455500Y2381200D02*
X5466400Y2370300D01*
X5448900Y2381200D02*
X5455500D01*
X5414900Y2319700D02*
Y2324100D01*
X5413300Y2325700D02*
X5414900Y2324100D01*
X5389000Y2324400D02*
X5390300Y2325700D01*
X5389000Y2319600D02*
Y2324400D01*
X5401700Y2522600D02*
X5405900Y2526800D01*
X5396700Y2522833D02*
X5404367Y2530500D01*
X5401700Y2510300D02*
Y2522600D01*
X5405900Y2526800D02*
X5438832D01*
X5396700Y2510300D02*
Y2522833D01*
X5404367Y2530500D02*
X5440365D01*
X5532400Y2434700D02*
Y2444800D01*
X5481500Y2450500D02*
X5526700D01*
X5532400Y2444800D01*
X5479967Y2446800D02*
X5509600D01*
X5512400Y2444000D01*
Y2434700D02*
Y2444000D01*
X5388100Y2527000D02*
X5391700Y2523400D01*
X5352909Y2527000D02*
X5388100D01*
X5337200Y2506200D02*
X5354400Y2523400D01*
X5391700Y2510300D02*
Y2523400D01*
X5333600Y2507691D02*
X5352909Y2527000D01*
X5548700Y2338700D02*
X5564500D01*
X5547800Y2339600D02*
X5548700Y2338700D01*
X5547800Y2348000D02*
Y2349500D01*
X5560700Y2362400D01*
Y2371400D01*
X5562600Y2373300D01*
X5570700D01*
X5565200Y2368300D02*
X5570700D01*
X5564000Y2367100D02*
X5565200Y2368300D01*
X5564000Y2349200D02*
Y2367100D01*
Y2349200D02*
X5564500Y2348700D01*
X5570700Y2363300D02*
X5575900D01*
X5578500Y2365900D01*
X5582300D01*
Y2374500D01*
X5570700Y2373300D02*
X5575600D01*
X5577100Y2374800D01*
Y2380000D01*
X5580000Y2382900D01*
X5582300D01*
X5596800D01*
X5599500Y2380200D01*
X5592700Y2370200D02*
X5599500D01*
X5588400Y2365900D02*
X5592700Y2370200D01*
X5582300Y2365900D02*
X5588400D01*
X5591700Y2360200D02*
X5599500D01*
X5589000Y2357500D02*
X5591700Y2360200D01*
X5582300Y2357500D02*
X5589000D01*
X5582300Y2351500D02*
Y2357500D01*
X5580000Y2349200D02*
X5582300Y2351500D01*
X5557900Y2386600D02*
X5562100D01*
X5557000Y2387500D02*
X5557900Y2386600D01*
X5557000Y2387500D02*
Y2395500D01*
X5502400Y2422300D02*
X5507200D01*
X5513700Y2415800D01*
X5492400Y2419100D02*
X5499200D01*
X5502400Y2422300D01*
Y2434700D01*
X5492400Y2410700D02*
X5494400Y2408700D01*
X5483900Y2344600D02*
X5486200Y2342300D01*
X5474100Y2425300D02*
X5474150D01*
X5468200Y2431250D02*
X5474150Y2425300D01*
X5474100D02*
X5477900Y2421500D01*
X5484300D01*
X5479900Y2429800D02*
Y2431600D01*
X5471700Y2432700D02*
X5472800Y2431600D01*
X5478100D01*
X5411700Y2510300D02*
Y2518400D01*
X5416600Y2523300D02*
X5437100D01*
X5139200Y2413600D02*
X5139300Y2413700D01*
X5127900Y2413600D02*
X5139200D01*
X5168900Y2412400D02*
X5178800D01*
X5180400Y2414000D01*
Y2417300D01*
X5174800Y2422300D02*
X5180400D01*
X5173300Y2420800D02*
X5174800Y2422300D01*
X5168900Y2420800D02*
X5173300D01*
X5159700Y2420900D02*
X5159800Y2420800D01*
X5168900D01*
X5160200Y2429700D02*
X5168900D01*
X5159500Y2430400D02*
X5160200Y2429700D01*
X5202400Y2427300D02*
X5212300D01*
X5212900Y2427900D01*
Y2436200D01*
X5190700Y2432300D02*
X5202400D01*
X5188300Y2429900D02*
X5190700Y2432300D01*
X5188300Y2419300D02*
Y2429900D01*
X5186300Y2417300D02*
X5188300Y2419300D01*
X5180400Y2417300D02*
X5186300D01*
X5386700Y2510300D02*
Y2517900D01*
X5381200Y2523400D02*
X5386700Y2517900D01*
X5354400Y2523400D02*
X5381200D01*
X5267000Y2424900D02*
Y2433500D01*
Y2424900D02*
X5269400Y2422500D01*
X5305800D01*
X5341200Y2447800D02*
Y2495800D01*
X5351500Y2506100D01*
Y2506300D01*
X5277000Y2433500D02*
Y2437400D01*
X5280200Y2440600D01*
X5257000Y2433500D02*
Y2438900D01*
X5262300Y2444200D01*
X5305800Y2422500D02*
X5318800Y2435500D01*
X5328900D01*
X5341200Y2447800D01*
X5411700Y2518400D02*
X5416600Y2523300D01*
X5280200Y2440600D02*
X5328900D01*
X5337200Y2448900D01*
Y2506200D01*
X5262300Y2444200D02*
X5326800D01*
X5333600Y2451000D01*
Y2507691D01*
X5139300Y2406200D02*
Y2413700D01*
X5276600Y2375700D02*
X5314300D01*
X5321000Y2369000D01*
Y2353600D02*
Y2369000D01*
Y2353600D02*
X5322500Y2352100D01*
X5328100D01*
X5324300Y2377700D02*
X5327520D01*
X5168900Y2406800D02*
X5173100Y2402600D01*
X5168900Y2406800D02*
Y2412400D01*
X5139300Y2406200D02*
X5146700Y2398800D01*
X5321700Y2380300D02*
X5324300Y2377700D01*
X5278000Y2380300D02*
X5321700D01*
X5174100Y2427300D02*
X5180400D01*
X5171700Y2429700D02*
X5174100Y2427300D01*
X5168900Y2429700D02*
X5171700D01*
X5390300Y2325700D02*
X5396400D01*
X5413300D01*
X5477900Y2396200D02*
X5492400Y2410700D01*
X5455000Y2396200D02*
X5477900D01*
X5461300Y2440500D02*
X5462000Y2441200D01*
X5461300Y2439200D02*
Y2440500D01*
X5505500Y2393900D02*
Y2395100D01*
X5502400Y2407300D02*
Y2408700D01*
X5494400D02*
X5502400D01*
Y2404900D02*
Y2408700D01*
Y2404900D02*
X5506700Y2400600D01*
X5509700D01*
X5514000Y2396300D01*
Y2395300D02*
Y2396300D01*
X5527100Y2407600D02*
X5542400Y2422900D01*
Y2434700D01*
X5545500Y2395500D02*
X5557000D01*
X5337200Y2397900D02*
X5349300D01*
X5334600Y2395300D02*
X5337200Y2397900D01*
X5334600Y2306700D02*
Y2395300D01*
Y2306700D02*
X5338200Y2303100D01*
X5263000Y2389300D02*
X5276600Y2375700D01*
X5264600Y2393700D02*
X5278000Y2380300D01*
X5146700Y2398800D02*
X5210500D01*
X5220000Y2389300D01*
X5263000D01*
X5173100Y2402600D02*
X5211700D01*
X5220600Y2393700D01*
X5264600D01*
X5421700Y2510300D02*
X5431900D01*
X5416700Y2503200D02*
Y2510300D01*
Y2503200D02*
X5421100Y2498800D01*
X5437300D01*
X5406700Y2497500D02*
Y2510300D01*
Y2497500D02*
X5421200Y2483000D01*
X5433200D01*
X5411700Y2500900D02*
Y2510300D01*
Y2500900D02*
X5412900Y2499700D01*
X5436200Y2467000D02*
X5462000Y2441200D01*
X5436200Y2467000D02*
Y2480000D01*
X5433200Y2483000D02*
X5436200Y2480000D01*
X5479500Y2369100D02*
X5505500Y2395100D01*
X5437300Y2498800D02*
X5439800Y2496300D01*
X5431900Y2510300D02*
X5443200Y2499000D01*
X5437100Y2523300D02*
X5446600Y2513800D01*
X5449800Y2476967D02*
X5479967Y2446800D01*
X5449800Y2476967D02*
Y2515833D01*
X5438832Y2526800D02*
X5449800Y2515833D01*
X5453000Y2479000D02*
X5481500Y2450500D01*
X5453000Y2479000D02*
Y2517865D01*
X5440365Y2530500D02*
X5453000Y2517865D01*
X5439800Y2468800D02*
Y2496300D01*
Y2468800D02*
X5468200Y2440400D01*
Y2431250D02*
Y2440400D01*
X5443200Y2470100D02*
Y2499000D01*
Y2470100D02*
X5471700Y2441600D01*
Y2432700D02*
Y2441600D01*
X5478100Y2431600D02*
X5479000Y2430700D01*
X5446600Y2474935D02*
X5480235Y2441300D01*
X5446600Y2474935D02*
Y2513800D01*
D26*
X4992000Y2352600D02*
X5008800Y2335800D01*
Y2311900D02*
Y2335800D01*
Y2311900D02*
X5026900Y2293800D01*
X4992000Y2352600D02*
Y2383500D01*
X4993200Y2384700D01*
X4998100D01*
X5103700Y2363100D02*
Y2371800D01*
X5103600Y2371900D02*
X5103700Y2371800D01*
X5103600Y2371900D02*
Y2380700D01*
Y2389100D01*
Y2397600D01*
X5103500Y2397700D02*
X5103600Y2397600D01*
X5096100Y2397700D02*
X5103500D01*
X5093300Y2394900D02*
X5096100Y2397700D01*
X5367400Y2510300D02*
X5376700D01*
X5358400Y2507300D02*
X5361500Y2510400D01*
X5358400Y2501000D02*
Y2507300D01*
X5347700Y2490300D02*
X5358400Y2501000D01*
X5247000Y2433500D02*
Y2438700D01*
X5256300Y2448000D01*
X5323900D01*
X5326900Y2451000D01*
Y2490400D01*
X5247000Y2420500D02*
Y2433500D01*
Y2420500D02*
X5247800Y2419700D01*
X5241000D02*
X5247800D01*
X5237800Y2416500D02*
X5241000Y2419700D01*
X5026900Y2293800D02*
X5235200D01*
X5238300Y2290700D01*
X5264800D01*
X5273600Y2299500D01*
X5159500Y2438800D02*
Y2445000D01*
X5166800Y2452300D01*
Y2466100D01*
X5180400Y2432300D02*
Y2436000D01*
X5178300Y2438100D02*
X5180400Y2436000D01*
X5168900Y2438100D02*
X5178300D01*
X5421700Y2472800D02*
X5429600D01*
X5408700Y2454500D02*
X5411900D01*
X5414600Y2451800D01*
Y2449500D02*
Y2451800D01*
X5359100Y2449700D02*
Y2454800D01*
X5356200Y2457700D02*
Y2464400D01*
X5358600Y2466800D01*
X5300700Y2360300D02*
X5311400D01*
X5296000Y2338800D02*
Y2355600D01*
X5287900Y2330700D02*
X5296000Y2338800D01*
X5258300Y2330700D02*
X5287900D01*
X5256500Y2332500D02*
X5258300Y2330700D01*
X5296000Y2355600D02*
X5300700Y2360300D01*
X5570600Y2395500D02*
Y2403300D01*
X5567800Y2406100D02*
X5570600Y2403300D01*
X5534800Y2406100D02*
X5567800D01*
X5522500Y2352200D02*
X5524600Y2354300D01*
X5486700Y2352200D02*
X5522500D01*
X5471800Y2367100D02*
X5486700Y2352200D01*
X5471800Y2367100D02*
Y2375500D01*
X5440500Y2376100D02*
X5445200Y2371400D01*
X5440500Y2376100D02*
Y2381200D01*
X5524600Y2354300D02*
Y2395900D01*
X5534800Y2406100D01*
X5361500Y2510400D02*
X5364400D01*
X5351800Y2400400D02*
Y2404500D01*
X5349300Y2397900D02*
X5351800Y2400400D01*
D27*
X5257800Y2504000D02*
Y2551800D01*
X5252100Y2557500D02*
X5257800Y2551800D01*
X5428000Y2539000D02*
X5448600D01*
X5465600Y2522000D01*
X5553800Y2496200D02*
X5554500Y2496900D01*
X5208300Y2624900D02*
Y2636100D01*
Y2624900D02*
X5221233Y2611967D01*
X5364400Y2510400D02*
X5364500Y2510300D01*
X5361000Y2513800D02*
X5364400Y2510400D01*
X5252100Y2636100D02*
X5264200D01*
X5230500Y2610900D02*
X5251900D01*
X5252100Y2611100D01*
Y2636100D01*
X5264200D02*
Y2640100D01*
X5328600Y2640200D02*
Y2654800D01*
X5264200Y2640100D02*
X5282800Y2658700D01*
X5328600Y2654800D02*
X5332500Y2658700D01*
X5404900Y2562100D02*
X5428000Y2539000D01*
X5404900Y2562100D02*
Y2635100D01*
X5504800Y2611400D02*
X5554500Y2561700D01*
X5504800Y2611400D02*
Y2635100D01*
X5297000Y2463500D02*
X5300300Y2466800D01*
X5310000Y2484600D02*
X5310400Y2484200D01*
X5300900Y2503200D02*
X5305900Y2508200D01*
X5300900Y2484500D02*
Y2503200D01*
Y2476100D02*
X5310100D01*
X5310400Y2475800D01*
X5300300Y2466800D02*
Y2475500D01*
X5300900Y2476100D01*
X5310000Y2484600D02*
Y2494600D01*
X5305900Y2508200D02*
X5310100D01*
X5311200D01*
X5306800Y2626800D02*
Y2636100D01*
Y2626800D02*
X5311200Y2622400D01*
Y2508200D02*
Y2622400D01*
X5230900Y2483100D02*
Y2505800D01*
X5229300Y2507400D02*
X5230900Y2505800D01*
X5222300Y2507400D02*
X5229300D01*
X5221233D02*
Y2611967D01*
X5252100Y2557500D02*
Y2611100D01*
X5332700Y2635600D02*
Y2636100D01*
X5328600Y2640200D02*
X5332700Y2636100D01*
X5282800Y2658700D02*
X5332500D01*
X5364500Y2510300D02*
X5367400D01*
X5465800Y2507800D02*
X5474900D01*
X5465600Y2494000D02*
Y2507600D01*
Y2522000D01*
Y2507600D02*
X5465800Y2507800D01*
X5554600Y2508500D02*
X5563800D01*
X5554500Y2496900D02*
Y2508400D01*
Y2561700D01*
Y2508400D02*
X5554600Y2508500D01*
D28*
X5166000Y2564200D02*
D03*
X5153000Y2570200D02*
D03*
X5116000Y2577200D02*
D03*
X5136500Y2568200D02*
D03*
X5150500Y2551200D02*
D03*
X5168000Y2531700D02*
D03*
X5150500Y2526700D02*
D03*
X5137500Y2538700D02*
D03*
X5125500Y2550700D02*
D03*
X5114500Y2563200D02*
D03*
X5113500Y2543700D02*
D03*
X5131000Y2523200D02*
D03*
X5113500D02*
D03*
X5132000Y2494200D02*
D03*
X5129000Y2507200D02*
D03*
X5112500Y2506200D02*
D03*
X5128500Y2464200D02*
D03*
X5114500Y2461100D02*
D03*
X5360300Y2545800D02*
D03*
X5368500Y2555000D02*
D03*
X5372200Y2571000D02*
D03*
X5355700Y2573300D02*
D03*
X5338300D02*
D03*
X5343800Y2586500D02*
D03*
X5355300Y2590700D02*
D03*
X5371300Y2586500D02*
D03*
X5367200Y2604800D02*
D03*
X5353000Y2610800D02*
D03*
X5361200Y2619500D02*
D03*
X5374900D02*
D03*
X5376300Y2637300D02*
D03*
X5363900Y2636400D02*
D03*
X5011900Y2528900D02*
D03*
X5010900Y2546100D02*
D03*
X5014400Y2563700D02*
D03*
X5034400Y2565600D02*
D03*
X5054500Y2566100D02*
D03*
X5065200Y2552400D02*
D03*
Y2538200D02*
D03*
Y2523100D02*
D03*
X5058900Y2512800D02*
D03*
X5039800Y2511800D02*
D03*
X5022200D02*
D03*
X5007500Y2512300D02*
D03*
X5190300Y2483200D02*
D03*
X5180800Y2464100D02*
D03*
X5187000Y2472600D02*
D03*
X5199300Y2479300D02*
D03*
X5195400Y2491100D02*
D03*
X5182500Y2490000D02*
D03*
X5174000Y2481600D02*
D03*
X5160000D02*
D03*
X4971500Y2370700D02*
D03*
X4967600Y2394400D02*
D03*
X4924300Y2386500D02*
D03*
X4930500Y2430900D02*
D03*
X4954100D02*
D03*
X4971000Y2419700D02*
D03*
X4962000Y2382600D02*
D03*
X4938900Y2377500D02*
D03*
X4929900Y2365100D02*
D03*
X4947900Y2361200D02*
D03*
X4963700Y2358900D02*
D03*
X4963100Y2344300D02*
D03*
X4949000Y2346000D02*
D03*
X4929900Y2345400D02*
D03*
X5292100Y2598000D02*
D03*
X5255600Y2597400D02*
D03*
X5281500Y2646400D02*
D03*
X5259500Y2650900D02*
D03*
X5271300Y2659300D02*
D03*
X5297200Y2662100D02*
D03*
X5322000Y2663200D02*
D03*
X5308500Y2679500D02*
D03*
X5286500D02*
D03*
X5262300D02*
D03*
X5525600Y2671700D02*
D03*
X5492900Y2659300D02*
D03*
X5516600Y2657600D02*
D03*
X5501400Y2669400D02*
D03*
X5513200Y2684000D02*
D03*
X5482800Y2680700D02*
D03*
X5484500Y2643500D02*
D03*
X5493500Y2599100D02*
D03*
X5454100Y2601400D02*
D03*
X5471600Y2666000D02*
D03*
X5455300Y2684000D02*
D03*
X5454700Y2660400D02*
D03*
X5462000Y2646400D02*
D03*
X5575800Y2629200D02*
D03*
X5587500Y2619000D02*
D03*
X5573700Y2603100D02*
D03*
X5563000Y2620000D02*
D03*
X5554300Y2598500D02*
D03*
X5565600Y2583200D02*
D03*
X5580400Y2578600D02*
D03*
X5603400Y2542300D02*
D03*
X5603900Y2563800D02*
D03*
X5602400Y2583700D02*
D03*
X5599300Y2604700D02*
D03*
Y2623100D02*
D03*
Y2643500D02*
D03*
X5584500D02*
D03*
X5562000Y2643000D02*
D03*
X5411200Y2697400D02*
D03*
X5398300Y2707100D02*
D03*
X5397900Y2725800D02*
D03*
X5365800Y2726600D02*
D03*
X5287800Y2727100D02*
D03*
X5322400Y2724500D02*
D03*
X5346900Y2723100D02*
D03*
X5367700Y2710700D02*
D03*
X5387500Y2695900D02*
D03*
X5402000Y2686900D02*
D03*
X5411600Y2676100D02*
D03*
X5426300Y2653500D02*
D03*
X5426700Y2673000D02*
D03*
X5425400Y2694300D02*
D03*
X5422100Y2709600D02*
D03*
X5411000Y2718100D02*
D03*
X5382400Y2721900D02*
D03*
X5379200Y2743100D02*
D03*
X5362400Y2743500D02*
D03*
X5343700Y2743100D02*
D03*
X5322000Y2744000D02*
D03*
X5300200Y2743700D02*
D03*
X5280900Y2743300D02*
D03*
X5266700Y2727700D02*
D03*
X5265900Y2744100D02*
D03*
X5251700Y2732800D02*
D03*
X5249900Y2745200D02*
D03*
X5237200Y2727700D02*
D03*
X5234600Y2747300D02*
D03*
X5217800Y2719300D02*
D03*
X5217100Y2735000D02*
D03*
X5218200Y2747700D02*
D03*
X5197100Y2748400D02*
D03*
X5205100Y2696000D02*
D03*
X5197100Y2711300D02*
D03*
X5196000Y2733500D02*
D03*
X5177400Y2739300D02*
D03*
X5173800Y2720000D02*
D03*
X5174500Y2701400D02*
D03*
X5170100Y2684000D02*
D03*
X5184700Y2680300D02*
D03*
X5200400Y2680000D02*
D03*
X5215700D02*
D03*
X5228800Y2676000D02*
D03*
Y2653400D02*
D03*
X5225500Y2664700D02*
D03*
X5211300D02*
D03*
X5192000Y2664300D02*
D03*
X5174100Y2662100D02*
D03*
X5157000Y2658100D02*
D03*
X5154100Y2674100D02*
D03*
X5155200Y2691600D02*
D03*
Y2710600D02*
D03*
X5156700Y2730200D02*
D03*
X5160700Y2745500D02*
D03*
X5143900Y2744400D02*
D03*
X5136300Y2731300D02*
D03*
Y2709800D02*
D03*
X5135500Y2689800D02*
D03*
X5134800Y2671900D02*
D03*
X5135500Y2654500D02*
D03*
X5135200Y2639900D02*
D03*
X5151200Y2638800D02*
D03*
X5168700Y2639500D02*
D03*
X5181100Y2638100D02*
D03*
X5171200Y2624600D02*
D03*
X5184300Y2622800D02*
D03*
X5192900Y2613700D02*
D03*
X5198700Y2601700D02*
D03*
X5188900Y2604600D02*
D03*
X5193300Y2589700D02*
D03*
X5204000Y2591100D02*
D03*
X5204400Y2578300D02*
D03*
X5193300D02*
D03*
X5182800Y2375300D02*
D03*
Y2355300D02*
D03*
Y2335300D02*
D03*
Y2315300D02*
D03*
X5132800D02*
D03*
Y2335300D02*
D03*
Y2355300D02*
D03*
Y2375300D02*
D03*
D29*
X5075300Y2483600D02*
D03*
X5076300Y2597600D02*
D03*
X4997300Y2599600D02*
D03*
X4996300Y2481600D02*
D03*
D30*
X5115300Y2483600D02*
D03*
X5438400Y2557600D02*
D03*
X5586038D02*
D03*
X5116300Y2597600D02*
D03*
X4957300Y2599600D02*
D03*
X4956300Y2481600D02*
D03*
X5198762Y2556800D02*
D03*
X5346400D02*
D03*
D31*
X5475900Y2617600D02*
D03*
X5275400Y2619700D02*
D03*
X5038000Y2539300D02*
D03*
X4947100Y2407900D02*
D03*
D32*
X5599100Y2427900D02*
D03*
X5599200Y2401100D02*
D03*
X5599500Y2370200D02*
D03*
Y2360200D02*
D03*
Y2341600D02*
D03*
X5311400Y2350300D02*
D03*
Y2360300D02*
D03*
X5564500Y2348700D02*
D03*
D33*
X5599100Y2437900D02*
D03*
X5599200Y2411100D02*
D03*
X5599500Y2380200D02*
D03*
Y2331600D02*
D03*
X5311400Y2340300D02*
D03*
X5564500Y2338700D02*
D03*
D34*
X5440900Y2353200D02*
D03*
Y2333200D02*
D03*
X5216500Y2332500D02*
D03*
X5256500D02*
D03*
X5213400Y2382300D02*
D03*
X5253400D02*
D03*
X5030100Y2416200D02*
D03*
X4990100D02*
D03*
X5093300Y2354900D02*
D03*
Y2394900D02*
D03*
X5099800Y2326800D02*
D03*
X5059800D02*
D03*
X5243000Y2474500D02*
D03*
X5283000D02*
D03*
X5489400Y2474700D02*
D03*
X5529400D02*
D03*
D35*
X5236000Y2320000D02*
D03*
X5215000Y2365000D02*
D03*
X5283500Y2352500D02*
D03*
D36*
X5236000Y2310000D02*
D03*
X5215000Y2355000D02*
D03*
X5283500Y2362500D02*
D03*
D37*
X5250400Y2351600D02*
D03*
Y2361600D02*
D03*
X5080900Y2344900D02*
D03*
Y2354900D02*
D03*
D38*
X5250400Y2371600D02*
D03*
X5080900Y2364900D02*
D03*
D39*
X4934800Y2752500D02*
D03*
X5598900Y2750600D02*
D03*
X5600500Y2297600D02*
D03*
X4933900Y2299200D02*
D03*
X5598600Y2481800D02*
D03*
D40*
X5466300Y2299500D02*
D03*
X5476300D02*
D03*
X5486300D02*
D03*
X5496300D02*
D03*
X5506300D02*
D03*
X5516300D02*
D03*
X5526300D02*
D03*
D41*
X5536300D02*
D03*
D42*
X5516200Y2342300D02*
D03*
D43*
X5486200D02*
D03*
D44*
X5166800Y2546100D02*
D03*
Y2516100D02*
D03*
Y2496100D02*
D03*
Y2466100D02*
D03*
D45*
X5552400Y2434700D02*
D03*
X5542400D02*
D03*
X5532400D02*
D03*
X5522400D02*
D03*
X5512400D02*
D03*
X5502400D02*
D03*
X5492400D02*
D03*
Y2464700D02*
D03*
X5502400D02*
D03*
X5512400D02*
D03*
X5522400D02*
D03*
X5532400D02*
D03*
X5542400D02*
D03*
X5297000Y2433500D02*
D03*
X5287000D02*
D03*
X5277000D02*
D03*
X5267000D02*
D03*
X5257000D02*
D03*
X5247000D02*
D03*
X5237000D02*
D03*
Y2463500D02*
D03*
X5247000D02*
D03*
X5257000D02*
D03*
X5267000D02*
D03*
X5277000D02*
D03*
X5287000D02*
D03*
D46*
X5552400Y2464700D02*
D03*
X5297000Y2463500D02*
D03*
D47*
X5449200Y2635900D02*
D03*
X5427300D02*
D03*
X5252100Y2636100D02*
D03*
X5230200D02*
D03*
X5547600D02*
D03*
X5525700D02*
D03*
X5350600D02*
D03*
X5328700D02*
D03*
D48*
X5405400Y2635900D02*
D03*
X5208300Y2636100D02*
D03*
X5503800D02*
D03*
X5306800D02*
D03*
D49*
X5398900Y2414100D02*
D03*
X5539300Y2363900D02*
D03*
X5540200Y2378200D02*
D03*
X5532600Y2373400D02*
D03*
X5406800Y2387600D02*
D03*
X5401900Y2393500D02*
D03*
X5404900Y2404800D02*
D03*
X5480000Y2331300D02*
D03*
X5493000Y2320600D02*
D03*
X5442200Y2300900D02*
D03*
X5480235Y2441300D02*
D03*
X5367300Y2431600D02*
D03*
X5484300Y2421500D02*
D03*
X5479900Y2431600D02*
D03*
X5375500Y2436900D02*
D03*
X5378300Y2447000D02*
D03*
X5365300Y2471100D02*
D03*
X5355400Y2430000D02*
D03*
X5335500Y2428800D02*
D03*
X5057400Y2395700D02*
D03*
X5015700Y2332200D02*
D03*
X5066400Y2313700D02*
D03*
X5253100Y2301100D02*
D03*
X5284800Y2317600D02*
D03*
X5193400Y2422600D02*
D03*
X5188000Y2441000D02*
D03*
X5211500Y2411500D02*
D03*
X5261400Y2406100D02*
D03*
X5351500Y2506300D02*
D03*
X5346800Y2490300D02*
D03*
X5326900Y2490400D02*
D03*
X5321300Y2461600D02*
D03*
X5198600Y2452500D02*
D03*
X5296500Y2507400D02*
D03*
X5147700Y2425400D02*
D03*
X5170900Y2446100D02*
D03*
X5532400Y2517500D02*
D03*
X5430300Y2473500D02*
D03*
X5407100Y2452900D02*
D03*
X5366200Y2461000D02*
D03*
X5358600Y2466800D02*
D03*
X5334400Y2414100D02*
D03*
X5357100Y2457000D02*
D03*
X5340900Y2332500D02*
D03*
X5341800Y2361700D02*
D03*
X5342000Y2369500D02*
D03*
X5341600Y2388800D02*
D03*
X5396400Y2325700D02*
D03*
X5447200Y2417100D02*
D03*
X5455000Y2396200D02*
D03*
X5461300Y2439200D02*
D03*
X5505500Y2393900D02*
D03*
X5516800Y2359600D02*
D03*
X5479500Y2369100D02*
D03*
X5471800Y2375500D02*
D03*
X5445200Y2371400D02*
D03*
X5514000Y2395300D02*
D03*
X5527100Y2407600D02*
D03*
X5545500Y2395500D02*
D03*
X5407700Y2399000D02*
D03*
X5384800Y2408200D02*
D03*
X5395600Y2443300D02*
D03*
X5361000Y2513800D02*
D03*
X5314000Y2322000D02*
D03*
X5049214Y2346100D02*
D03*
X5006400Y2348900D02*
D03*
X5027000Y2382300D02*
D03*
X5412900Y2499700D02*
D03*
M02*
