M48
;Layer_Color=9474304
;FILE_FORMAT=2:5
INCH,LZ
;TYPE=PLATED
T1F00S00C0.02800
T2F00S00C0.03200
T3F00S00C0.03500
T4F00S00C0.03543
T5F00S00C0.04000
T6F00S00C0.04330
T7F00S00C0.04724
T8F00S00C0.05400
T9F00S00C0.07100
T10F00S00C0.07874
T13F00S00C0.11811
T14F00S00C0.19685
%
T01
X50664Y23137
X50157Y23322
X52531Y23011
X52848Y23176
X5314Y2322
X53409Y23325
X53964Y23257
X54422Y23009
X548Y23313
X5493Y23206
X54795Y23691
X54718Y23755
X55055Y23939
X5514Y23953
X55271Y24076
X55455Y23955
X55402Y23782
X55326Y23734
X55393Y23639
X55168Y23596
X54843Y24215
X54799Y24316
X5480235Y24413
X54613Y24392
X54472Y24171
X5455Y23962
X54452Y23714
X54068Y23876
X54019Y23935
X54077Y2399
X54049Y24048
X53989Y24141
X53848Y24082
X53755Y24369
X53783Y2447
X53956Y24433
X54071Y24529
X54303Y24735
X54129Y24997
X53468Y24903
X53269Y24904
X53213Y24616
X53571Y2457
X53586Y24668
X53653Y24711
X53662Y2461
X53673Y24316
X53554Y243
X53355Y24288
X53344Y24141
X53416Y23888
X5342Y23695
X53418Y23617
X52614Y24061
X52115Y24115
X51934Y24226
X5188Y2441
X51986Y24525
X51709Y24461
X51477Y24254
X50574Y23957
X5027Y23823
X50064Y23489
X5049214Y23461
X52965Y25074
X53515Y25063
X5361Y25138
X55324Y25175
T02
X5236Y232
Y231
X54924Y24347
X55024
X55124
X55224
X55324
X55424
X55524
Y24647
X55424
X55324
X55224
X55124
X55024
X54924
X5297Y24635
X5287
X5277
X5267
X5257
X5247
X5237
Y24335
X5247
X5257
X5267
X5277
X5287
X5297
X52835Y23625
Y23525
X5215Y2355
Y2365
T03
X54409Y23332
Y23532
T04
X54663Y22995
X54763
X54863
X54963
X55063
X55163
X55263
X55363
T05
X50998Y23268
X50598
X52165Y23325
X52565
X53114Y23403
X55645Y23387
X55995Y23416
Y23316
Y23602
Y23702
Y23802
X55992Y24011
Y24111
X55991Y24279
Y24379
X55294Y24747
X54894
X55645Y23487
X53114Y23503
Y23603
X52534Y23823
X52134
X5243Y24745
X5283
X50933Y23949
Y23549
X50301Y24162
X49901
T06
X55162Y23423
X54862
T07
X51328Y23353
Y23153
X51828
Y23353
Y23553
Y23753
X51808Y24641
X5187Y24726
X51903Y24832
X51993Y24793
X51954Y24911
X51825Y249
X5174Y24816
X516
X5132Y24942
X51285Y24642
X51145Y24611
X51328Y23753
Y23553
X49637Y23589
X49631Y23443
X4949Y2346
X49479Y23612
X49299Y23651
Y23454
X49389Y23775
X49243Y23865
X4962Y23826
X49676Y23944
X49715Y23707
X4971Y24197
X49541Y24309
X49305
X50075Y25123
X50222Y25118
X50398
X50589Y25128
X50652Y25231
Y25382
Y25524
X50545Y25661
X50344Y25656
X50144Y25637
X50109Y25461
X50119Y25289
X51135Y25232
X5131
X5129Y25072
X51125Y25062
X51135Y25437
X51255Y25507
X51145Y25632
X5116Y25772
X51365Y25682
X5153Y25702
X51505Y25512
Y25267
X51375Y25387
X51352Y26399
X51355Y26545
X51512Y26388
X51687Y26395
X51811Y26381
X51843Y26228
X51712Y26246
X51929Y26137
X51889Y26046
X51987Y26017
X5204Y25911
X51933Y25897
Y25783
X52044
X5166Y25642
X5168Y25317
X52556Y25974
X52921Y2598
X52815Y26464
X52595Y26509
X52288Y26534
X53639Y26364
X53763Y26373
X53749Y26195
X53612
X5353Y26108
X53672Y26048
X53713Y25865
X53722Y2571
X53557Y25733
X53383
X53438Y25865
X53553Y25907
X53685Y2555
X53603Y25458
X54541Y26014
X5462Y26464
X54263Y26535
X54845Y26435
X54935Y25991
X55543Y25985
X55737Y26031
X55993Y26047
Y26231
X55875Y2619
X55758Y26292
X5563Y262
X5562Y2643
X55845Y26435
X55993
X56024Y25837
X56039Y25638
X56034Y25423
X55804Y25786
X55656Y25832
X55166Y26576
X55256Y26717
X55132Y2684
X55014Y26694
X54929Y26593
X54716Y2666
X54828Y26807
X54553Y2684
X54547Y26604
X54267Y2673
X54116Y26761
X5402Y26869
X54112Y26974
X54254Y26943
X54221Y27096
X5411Y27181
X53979Y27258
X53983Y27071
X53875Y26959
X53824Y27219
X53658Y27266
X53677Y27107
X53469Y27231
X53437Y27431
X53624Y27435
X53792Y27431
X5322Y2744
X53224Y27245
X5322Y26632
X52972Y26621
X52865Y26795
X53085
X52623
X52713Y26593
X52255Y26647
X52113
X52157Y268
X52004
X51847Y26803
X51701Y2684
X51745Y27014
X51738Y272
X51774Y27393
X51607Y27455
X51567Y27302
X5196Y27335
X51971Y27484
X52182Y27477
X52171Y2735
X52178Y27193
X52372Y27277
X52517Y27328
X52499Y27452
X52659Y27441
X52809Y27433
X53002Y27437
X52878Y27271
X52667Y27277
X52346Y27473
X51971Y27113
X52051Y2696
X52288Y2676
X5192Y26643
X51741Y26621
X5157Y26581
X51541Y26741
X51552Y26916
Y27106
X51363Y27098
X51355Y26898
X51348Y26719
X51363Y27313
X51439Y27444
T08
X52504Y23716
Y23616
Y23516
X50809Y23549
Y23449
Y23649
T09
X53068Y26361
X52521
X52302
X52083
X53287
X53506
X54054Y26359
X54273
X54492
X55038Y26361
X55257
X55476
T10
X51153Y24836
X49563Y24816
X49573Y25996
X51163Y25976
X5198762Y25568
X53464
X54384Y25576
X5586038
T13
X49339Y22992
X56005Y22976
X55986Y24818
X55989Y27506
X49348Y27525
T14
X49471Y24079
X5038Y25393
X52754Y26197
X54759Y26176
M30
