%FSLAX25Y25*%
%MOIN*%
G70*
G01*
G75*
%ADD10R,0.05000X0.05000*%
%ADD11R,0.07520X0.05903*%
%ADD12O,0.08000X0.02400*%
%ADD13R,0.05000X0.05000*%
%ADD14O,0.10039X0.01000*%
%ADD15O,0.01000X0.10039*%
%ADD16R,0.05000X0.06000*%
%ADD17R,0.08800X0.14200*%
%ADD18R,0.08800X0.04800*%
%ADD19R,0.05903X0.07520*%
%ADD20R,0.06000X0.05000*%
%ADD21R,0.02400X0.08600*%
%ADD22O,0.02400X0.08600*%
%ADD23C,0.05000*%
%ADD24C,0.01000*%
%ADD25C,0.01500*%
%ADD26C,0.02000*%
%ADD27C,0.03000*%
%ADD28C,0.07874*%
%ADD29R,0.23622X0.23622*%
%ADD30C,0.23622*%
%ADD31C,0.39370*%
%ADD32O,0.10000X0.07000*%
%ADD33R,0.10000X0.07000*%
%ADD34C,0.07000*%
%ADD35R,0.06500X0.06500*%
%ADD36C,0.06500*%
%ADD37C,0.07500*%
%ADD38R,0.07500X0.07500*%
%ADD39C,0.15748*%
%ADD40C,0.05906*%
%ADD41R,0.05906X0.05906*%
%ADD42C,0.07873*%
%ADD43R,0.07873X0.07873*%
%ADD44R,0.13780X0.13780*%
%ADD45O,0.06000X0.07000*%
%ADD46R,0.06000X0.07000*%
%ADD47C,0.09200*%
%ADD48R,0.09200X0.09200*%
%ADD49C,0.05000*%
D10*
X5499500Y2503000D02*
D03*
X5491100D02*
D03*
X5562100Y2386600D02*
D03*
X5570500D02*
D03*
X5448900Y2381200D02*
D03*
X5440500D02*
D03*
X5450300Y2409400D02*
D03*
X5441900D02*
D03*
X5343400Y2404500D02*
D03*
X5351800D02*
D03*
X5442700Y2309100D02*
D03*
X5451100D02*
D03*
X5410900Y2299200D02*
D03*
X5402500D02*
D03*
X5357600Y2377900D02*
D03*
X5349200D02*
D03*
X5349000Y2369200D02*
D03*
X5357400D02*
D03*
X5387400Y2351600D02*
D03*
X5379000D02*
D03*
X5358200Y2341900D02*
D03*
X5349800D02*
D03*
X5350100Y2333300D02*
D03*
X5358500D02*
D03*
X5283400Y2504500D02*
D03*
X5275000D02*
D03*
X5257800Y2504000D02*
D03*
X5249400D02*
D03*
X5221300Y2419500D02*
D03*
X5212900D02*
D03*
Y2427900D02*
D03*
X5221300D02*
D03*
Y2436200D02*
D03*
X5212900D02*
D03*
X5147700Y2413700D02*
D03*
X5139300D02*
D03*
X5127900Y2413600D02*
D03*
X5119500D02*
D03*
X5103500Y2397700D02*
D03*
X5111900D02*
D03*
X5112000Y2389100D02*
D03*
X5103600D02*
D03*
X5112000Y2380700D02*
D03*
X5103600D02*
D03*
X5112000Y2371900D02*
D03*
X5103600D02*
D03*
X5112100Y2363100D02*
D03*
X5103700D02*
D03*
X5035700Y2395000D02*
D03*
X5044100D02*
D03*
X5044300Y2386600D02*
D03*
X5035900D02*
D03*
X5044300Y2378200D02*
D03*
X5035900D02*
D03*
X5066700Y2360500D02*
D03*
X5058300D02*
D03*
X5027200Y2347300D02*
D03*
X5035600D02*
D03*
X5006900Y2359500D02*
D03*
X5015300D02*
D03*
X5026800Y2338500D02*
D03*
X5035200D02*
D03*
X5357900Y2352000D02*
D03*
X5349500D02*
D03*
X5349100Y2361200D02*
D03*
X5357500D02*
D03*
X5425700Y2309200D02*
D03*
X5434100D02*
D03*
X5343300Y2414200D02*
D03*
X5351700D02*
D03*
X5349400Y2389500D02*
D03*
X5357800D02*
D03*
X5414900Y2351700D02*
D03*
X5406500D02*
D03*
X5466400Y2353300D02*
D03*
X5458000D02*
D03*
X5466600Y2333100D02*
D03*
X5458200D02*
D03*
X5532400Y2502000D02*
D03*
X5524000D02*
D03*
X5222100Y2610900D02*
D03*
X5230500D02*
D03*
D11*
X5570600Y2395500D02*
D03*
X5557000D02*
D03*
X5414500Y2309200D02*
D03*
X5400900D02*
D03*
X5245700Y2494500D02*
D03*
X5259300D02*
D03*
X5036400Y2403600D02*
D03*
X5050000D02*
D03*
X5416900Y2341700D02*
D03*
X5403300D02*
D03*
X5391000Y2341600D02*
D03*
X5377400D02*
D03*
X5491400Y2483200D02*
D03*
X5505000D02*
D03*
X5245400Y2484500D02*
D03*
X5259000D02*
D03*
X5523400Y2483200D02*
D03*
X5537000D02*
D03*
X5523500Y2493000D02*
D03*
X5537100D02*
D03*
X5275000Y2494500D02*
D03*
X5288600D02*
D03*
X5275000Y2484500D02*
D03*
X5288600D02*
D03*
X5491700Y2492800D02*
D03*
X5505300D02*
D03*
D12*
X5570700Y2378300D02*
D03*
Y2373300D02*
D03*
Y2368300D02*
D03*
X5548700Y2363300D02*
D03*
Y2368300D02*
D03*
Y2373300D02*
D03*
Y2378300D02*
D03*
X5570700Y2363300D02*
D03*
X5202400Y2417300D02*
D03*
Y2422300D02*
D03*
Y2427300D02*
D03*
X5180400Y2432300D02*
D03*
Y2427300D02*
D03*
Y2422300D02*
D03*
Y2417300D02*
D03*
X5202400Y2432300D02*
D03*
X5049214Y2370281D02*
D03*
Y2365281D02*
D03*
Y2360281D02*
D03*
X5027214Y2355281D02*
D03*
Y2360281D02*
D03*
Y2365281D02*
D03*
Y2370281D02*
D03*
X5049214Y2355281D02*
D03*
D13*
X5582300Y2357500D02*
D03*
Y2365900D02*
D03*
X5547800Y2348000D02*
D03*
Y2339600D02*
D03*
X5388300Y2442400D02*
D03*
Y2450800D02*
D03*
X5359100Y2441300D02*
D03*
Y2449700D02*
D03*
X5367400Y2441300D02*
D03*
Y2449700D02*
D03*
X5348000Y2309900D02*
D03*
Y2301500D02*
D03*
X5285100Y2308500D02*
D03*
Y2300100D02*
D03*
X5253000Y2319000D02*
D03*
Y2310600D02*
D03*
X5234500Y2368900D02*
D03*
Y2360500D02*
D03*
X5263600Y2351400D02*
D03*
Y2359800D02*
D03*
X5168900Y2438100D02*
D03*
Y2429700D02*
D03*
X5159500Y2430400D02*
D03*
Y2438800D02*
D03*
X5159700Y2420900D02*
D03*
Y2412500D02*
D03*
X5168900Y2420800D02*
D03*
Y2412400D02*
D03*
X5066000Y2351700D02*
D03*
Y2343300D02*
D03*
X5099000Y2312600D02*
D03*
Y2304200D02*
D03*
X5090500Y2312500D02*
D03*
Y2304100D02*
D03*
X5082000Y2312600D02*
D03*
Y2304200D02*
D03*
X5073500Y2312500D02*
D03*
Y2304100D02*
D03*
X5015200Y2350800D02*
D03*
Y2342400D02*
D03*
X5015700Y2376200D02*
D03*
Y2367800D02*
D03*
X5007200Y2368000D02*
D03*
Y2376400D02*
D03*
X4998300Y2359200D02*
D03*
Y2367600D02*
D03*
X4998100Y2376300D02*
D03*
Y2384700D02*
D03*
X5051800Y2421700D02*
D03*
Y2413300D02*
D03*
X5043200Y2421600D02*
D03*
Y2413200D02*
D03*
X5582300Y2374500D02*
D03*
Y2382900D02*
D03*
X5414600Y2449500D02*
D03*
Y2441100D02*
D03*
X5424900Y2441200D02*
D03*
Y2449600D02*
D03*
X5513700Y2407400D02*
D03*
Y2415800D02*
D03*
X5367300Y2502000D02*
D03*
Y2510400D02*
D03*
X5492400Y2410700D02*
D03*
Y2419100D02*
D03*
X5237800Y2408100D02*
D03*
Y2416500D02*
D03*
X5553800Y2496200D02*
D03*
Y2487800D02*
D03*
X5465600Y2494000D02*
D03*
Y2485600D02*
D03*
X5230900Y2474700D02*
D03*
Y2483100D02*
D03*
X5300900Y2476100D02*
D03*
Y2484500D02*
D03*
X5310400Y2475800D02*
D03*
Y2484200D02*
D03*
X5222300Y2475000D02*
D03*
Y2483400D02*
D03*
X5475500Y2482900D02*
D03*
Y2474500D02*
D03*
X5563800Y2484100D02*
D03*
Y2475700D02*
D03*
D14*
X5371106Y2381272D02*
D03*
Y2383241D02*
D03*
Y2385209D02*
D03*
Y2387178D02*
D03*
Y2389146D02*
D03*
Y2391115D02*
D03*
Y2393083D02*
D03*
Y2395052D02*
D03*
Y2397020D02*
D03*
Y2398989D02*
D03*
Y2400957D02*
D03*
Y2402926D02*
D03*
Y2404894D02*
D03*
Y2406863D02*
D03*
Y2408831D02*
D03*
Y2410800D02*
D03*
Y2412768D02*
D03*
Y2414737D02*
D03*
Y2416705D02*
D03*
Y2418674D02*
D03*
X5424452D02*
D03*
Y2416705D02*
D03*
Y2414737D02*
D03*
Y2412768D02*
D03*
Y2410800D02*
D03*
Y2408831D02*
D03*
Y2406863D02*
D03*
Y2404894D02*
D03*
Y2402926D02*
D03*
Y2400957D02*
D03*
Y2398989D02*
D03*
Y2397020D02*
D03*
Y2395052D02*
D03*
Y2393083D02*
D03*
Y2391115D02*
D03*
Y2389146D02*
D03*
Y2387178D02*
D03*
Y2385209D02*
D03*
Y2383241D02*
D03*
Y2381272D02*
D03*
D15*
X5379078Y2426646D02*
D03*
X5381047D02*
D03*
X5383015D02*
D03*
X5384983D02*
D03*
X5386952D02*
D03*
X5388921D02*
D03*
X5390889D02*
D03*
X5392858D02*
D03*
X5394826D02*
D03*
X5396795D02*
D03*
X5398763D02*
D03*
X5400732D02*
D03*
X5402700D02*
D03*
X5404668D02*
D03*
X5406637D02*
D03*
X5408606D02*
D03*
X5410574D02*
D03*
X5412543D02*
D03*
X5414511D02*
D03*
X5416479D02*
D03*
Y2373300D02*
D03*
X5414511D02*
D03*
X5412543D02*
D03*
X5410574D02*
D03*
X5408606D02*
D03*
X5406637D02*
D03*
X5404668D02*
D03*
X5402700D02*
D03*
X5400732D02*
D03*
X5398763D02*
D03*
X5396795D02*
D03*
X5394826D02*
D03*
X5392858D02*
D03*
X5390889D02*
D03*
X5388921D02*
D03*
X5386952D02*
D03*
X5384983D02*
D03*
X5383015D02*
D03*
X5381047D02*
D03*
X5379078D02*
D03*
D16*
X5328100Y2352100D02*
D03*
X5341880D02*
D03*
X5328320Y2341700D02*
D03*
X5342100D02*
D03*
X5327520Y2377700D02*
D03*
X5341300D02*
D03*
D17*
X5338200Y2303100D02*
D03*
D18*
X5313800Y2294100D02*
D03*
Y2303100D02*
D03*
Y2312100D02*
D03*
D19*
X5303300Y2309900D02*
D03*
Y2296300D02*
D03*
X5294300Y2309700D02*
D03*
Y2296100D02*
D03*
X5356700Y2315500D02*
D03*
Y2301900D02*
D03*
X5563800Y2494900D02*
D03*
Y2508500D02*
D03*
X5474900Y2494200D02*
D03*
Y2507800D02*
D03*
X5222300Y2493800D02*
D03*
Y2507400D02*
D03*
X5310100Y2494600D02*
D03*
Y2508200D02*
D03*
X5502400Y2422300D02*
D03*
Y2408700D02*
D03*
X5247800Y2419700D02*
D03*
Y2406100D02*
D03*
D20*
X5379000Y2333380D02*
D03*
Y2319600D02*
D03*
X5404900Y2333479D02*
D03*
Y2319700D02*
D03*
X5414900Y2333479D02*
D03*
Y2319700D02*
D03*
X5389000Y2333380D02*
D03*
Y2319600D02*
D03*
D21*
X5376700Y2472800D02*
D03*
D22*
X5381700D02*
D03*
X5386700D02*
D03*
X5391700D02*
D03*
X5396700D02*
D03*
X5401700D02*
D03*
X5406700D02*
D03*
X5411700D02*
D03*
X5416700D02*
D03*
X5421700D02*
D03*
Y2510300D02*
D03*
X5416700D02*
D03*
X5411700D02*
D03*
X5406700D02*
D03*
X5401700D02*
D03*
X5396700D02*
D03*
X5391700D02*
D03*
X5386700D02*
D03*
X5381700D02*
D03*
X5376700D02*
D03*
D28*
X5166000Y2564200D02*
D03*
X5153000Y2570200D02*
D03*
X5116000Y2577200D02*
D03*
X5136500Y2568200D02*
D03*
X5150500Y2551200D02*
D03*
X5168000Y2531700D02*
D03*
X5150500Y2526700D02*
D03*
X5137500Y2538700D02*
D03*
X5125500Y2550700D02*
D03*
X5114500Y2563200D02*
D03*
X5113500Y2543700D02*
D03*
X5131000Y2523200D02*
D03*
X5113500D02*
D03*
X5132000Y2494200D02*
D03*
X5129000Y2507200D02*
D03*
X5112500Y2506200D02*
D03*
X5128500Y2464200D02*
D03*
X5114500Y2461100D02*
D03*
X5360300Y2545800D02*
D03*
X5368500Y2555000D02*
D03*
X5372200Y2571000D02*
D03*
X5355700Y2573300D02*
D03*
X5338300D02*
D03*
X5343800Y2586500D02*
D03*
X5355300Y2590700D02*
D03*
X5371300Y2586500D02*
D03*
X5367200Y2604800D02*
D03*
X5353000Y2610800D02*
D03*
X5361200Y2619500D02*
D03*
X5374900D02*
D03*
X5376300Y2637300D02*
D03*
X5363900Y2636400D02*
D03*
X5011900Y2528900D02*
D03*
X5010900Y2546100D02*
D03*
X5014400Y2563700D02*
D03*
X5034400Y2565600D02*
D03*
X5054500Y2566100D02*
D03*
X5065200Y2552400D02*
D03*
Y2538200D02*
D03*
Y2523100D02*
D03*
X5058900Y2512800D02*
D03*
X5039800Y2511800D02*
D03*
X5022200D02*
D03*
X5007500Y2512300D02*
D03*
X5190300Y2483200D02*
D03*
X5180800Y2464100D02*
D03*
X5187000Y2472600D02*
D03*
X5199300Y2479300D02*
D03*
X5195400Y2491100D02*
D03*
X5182500Y2490000D02*
D03*
X5174000Y2481600D02*
D03*
X5160000D02*
D03*
X4971500Y2370700D02*
D03*
X4967600Y2394400D02*
D03*
X4924300Y2386500D02*
D03*
X4930500Y2430900D02*
D03*
X4954100D02*
D03*
X4971000Y2419700D02*
D03*
X4962000Y2382600D02*
D03*
X4938900Y2377500D02*
D03*
X4929900Y2365100D02*
D03*
X4947900Y2361200D02*
D03*
X4963700Y2358900D02*
D03*
X4963100Y2344300D02*
D03*
X4949000Y2346000D02*
D03*
X4929900Y2345400D02*
D03*
X5292100Y2598000D02*
D03*
X5255600Y2597400D02*
D03*
X5281500Y2646400D02*
D03*
X5259500Y2650900D02*
D03*
X5271300Y2659300D02*
D03*
X5297200Y2662100D02*
D03*
X5322000Y2663200D02*
D03*
X5308500Y2679500D02*
D03*
X5286500D02*
D03*
X5262300D02*
D03*
X5525600Y2671700D02*
D03*
X5492900Y2659300D02*
D03*
X5516600Y2657600D02*
D03*
X5501400Y2669400D02*
D03*
X5513200Y2684000D02*
D03*
X5482800Y2680700D02*
D03*
X5484500Y2643500D02*
D03*
X5493500Y2599100D02*
D03*
X5454100Y2601400D02*
D03*
X5471600Y2666000D02*
D03*
X5455300Y2684000D02*
D03*
X5454700Y2660400D02*
D03*
X5462000Y2646400D02*
D03*
X5575800Y2629200D02*
D03*
X5587500Y2619000D02*
D03*
X5573700Y2603100D02*
D03*
X5563000Y2620000D02*
D03*
X5554300Y2598500D02*
D03*
X5565600Y2583200D02*
D03*
X5580400Y2578600D02*
D03*
X5603400Y2542300D02*
D03*
X5603900Y2563800D02*
D03*
X5602400Y2583700D02*
D03*
X5599300Y2604700D02*
D03*
Y2623100D02*
D03*
Y2643500D02*
D03*
X5584500D02*
D03*
X5562000Y2643000D02*
D03*
X5411200Y2697400D02*
D03*
X5398300Y2707100D02*
D03*
X5397900Y2725800D02*
D03*
X5365800Y2726600D02*
D03*
X5287800Y2727100D02*
D03*
X5322400Y2724500D02*
D03*
X5346900Y2723100D02*
D03*
X5367700Y2710700D02*
D03*
X5387500Y2695900D02*
D03*
X5402000Y2686900D02*
D03*
X5411600Y2676100D02*
D03*
X5426300Y2653500D02*
D03*
X5426700Y2673000D02*
D03*
X5425400Y2694300D02*
D03*
X5422100Y2709600D02*
D03*
X5411000Y2718100D02*
D03*
X5382400Y2721900D02*
D03*
X5379200Y2743100D02*
D03*
X5362400Y2743500D02*
D03*
X5343700Y2743100D02*
D03*
X5322000Y2744000D02*
D03*
X5300200Y2743700D02*
D03*
X5280900Y2743300D02*
D03*
X5266700Y2727700D02*
D03*
X5265900Y2744100D02*
D03*
X5251700Y2732800D02*
D03*
X5249900Y2745200D02*
D03*
X5237200Y2727700D02*
D03*
X5234600Y2747300D02*
D03*
X5217800Y2719300D02*
D03*
X5217100Y2735000D02*
D03*
X5218200Y2747700D02*
D03*
X5197100Y2748400D02*
D03*
X5205100Y2696000D02*
D03*
X5197100Y2711300D02*
D03*
X5196000Y2733500D02*
D03*
X5177400Y2739300D02*
D03*
X5173800Y2720000D02*
D03*
X5174500Y2701400D02*
D03*
X5170100Y2684000D02*
D03*
X5184700Y2680300D02*
D03*
X5200400Y2680000D02*
D03*
X5215700D02*
D03*
X5228800Y2676000D02*
D03*
Y2653400D02*
D03*
X5225500Y2664700D02*
D03*
X5211300D02*
D03*
X5192000Y2664300D02*
D03*
X5174100Y2662100D02*
D03*
X5157000Y2658100D02*
D03*
X5154100Y2674100D02*
D03*
X5155200Y2691600D02*
D03*
Y2710600D02*
D03*
X5156700Y2730200D02*
D03*
X5160700Y2745500D02*
D03*
X5143900Y2744400D02*
D03*
X5136300Y2731300D02*
D03*
Y2709800D02*
D03*
X5135500Y2689800D02*
D03*
X5134800Y2671900D02*
D03*
X5135500Y2654500D02*
D03*
X5135200Y2639900D02*
D03*
X5151200Y2638800D02*
D03*
X5168700Y2639500D02*
D03*
X5181100Y2638100D02*
D03*
X5171200Y2624600D02*
D03*
X5184300Y2622800D02*
D03*
X5192900Y2613700D02*
D03*
X5198700Y2601700D02*
D03*
X5188900Y2604600D02*
D03*
X5193300Y2589700D02*
D03*
X5204000Y2591100D02*
D03*
X5204400Y2578300D02*
D03*
X5193300D02*
D03*
X5182800Y2375300D02*
D03*
Y2355300D02*
D03*
Y2335300D02*
D03*
Y2315300D02*
D03*
X5132800D02*
D03*
Y2335300D02*
D03*
Y2355300D02*
D03*
Y2375300D02*
D03*
D29*
X5075300Y2483600D02*
D03*
X5076300Y2597600D02*
D03*
X4997300Y2599600D02*
D03*
X4996300Y2481600D02*
D03*
D30*
X5115300Y2483600D02*
D03*
X5438400Y2557600D02*
D03*
X5586038D02*
D03*
X5116300Y2597600D02*
D03*
X4957300Y2599600D02*
D03*
X4956300Y2481600D02*
D03*
X5198762Y2556800D02*
D03*
X5346400D02*
D03*
D31*
X5475900Y2617600D02*
D03*
X5275400Y2619700D02*
D03*
X5038000Y2539300D02*
D03*
X4947100Y2407900D02*
D03*
D32*
X5599100Y2427900D02*
D03*
X5599200Y2401100D02*
D03*
X5599500Y2370200D02*
D03*
Y2360200D02*
D03*
Y2341600D02*
D03*
X5311400Y2350300D02*
D03*
Y2360300D02*
D03*
X5564500Y2348700D02*
D03*
D33*
X5599100Y2437900D02*
D03*
X5599200Y2411100D02*
D03*
X5599500Y2380200D02*
D03*
Y2331600D02*
D03*
X5311400Y2340300D02*
D03*
X5564500Y2338700D02*
D03*
D34*
X5440900Y2353200D02*
D03*
Y2333200D02*
D03*
X5216500Y2332500D02*
D03*
X5256500D02*
D03*
X5213400Y2382300D02*
D03*
X5253400D02*
D03*
X5030100Y2416200D02*
D03*
X4990100D02*
D03*
X5093300Y2354900D02*
D03*
Y2394900D02*
D03*
X5099800Y2326800D02*
D03*
X5059800D02*
D03*
X5243000Y2474500D02*
D03*
X5283000D02*
D03*
X5489400Y2474700D02*
D03*
X5529400D02*
D03*
D35*
X5236000Y2320000D02*
D03*
X5215000Y2365000D02*
D03*
X5283500Y2352500D02*
D03*
D36*
X5236000Y2310000D02*
D03*
X5215000Y2355000D02*
D03*
X5283500Y2362500D02*
D03*
D37*
X5250400Y2351600D02*
D03*
Y2361600D02*
D03*
X5080900Y2344900D02*
D03*
Y2354900D02*
D03*
D38*
X5250400Y2371600D02*
D03*
X5080900Y2364900D02*
D03*
D39*
X4934800Y2752500D02*
D03*
X5598900Y2750600D02*
D03*
X5600500Y2297600D02*
D03*
X4933900Y2299200D02*
D03*
X5598600Y2481800D02*
D03*
D40*
X5466300Y2299500D02*
D03*
X5476300D02*
D03*
X5486300D02*
D03*
X5496300D02*
D03*
X5506300D02*
D03*
X5516300D02*
D03*
X5526300D02*
D03*
D41*
X5536300D02*
D03*
D42*
X5516200Y2342300D02*
D03*
D43*
X5486200D02*
D03*
D44*
X5166800Y2546100D02*
D03*
Y2516100D02*
D03*
Y2496100D02*
D03*
Y2466100D02*
D03*
D45*
X5552400Y2434700D02*
D03*
X5542400D02*
D03*
X5532400D02*
D03*
X5522400D02*
D03*
X5512400D02*
D03*
X5502400D02*
D03*
X5492400D02*
D03*
Y2464700D02*
D03*
X5502400D02*
D03*
X5512400D02*
D03*
X5522400D02*
D03*
X5532400D02*
D03*
X5542400D02*
D03*
X5297000Y2433500D02*
D03*
X5287000D02*
D03*
X5277000D02*
D03*
X5267000D02*
D03*
X5257000D02*
D03*
X5247000D02*
D03*
X5237000D02*
D03*
Y2463500D02*
D03*
X5247000D02*
D03*
X5257000D02*
D03*
X5267000D02*
D03*
X5277000D02*
D03*
X5287000D02*
D03*
D46*
X5552400Y2464700D02*
D03*
X5297000Y2463500D02*
D03*
D47*
X5449200Y2635900D02*
D03*
X5427300D02*
D03*
X5252100Y2636100D02*
D03*
X5230200D02*
D03*
X5547600D02*
D03*
X5525700D02*
D03*
X5350600D02*
D03*
X5328700D02*
D03*
D48*
X5405400Y2635900D02*
D03*
X5208300Y2636100D02*
D03*
X5503800D02*
D03*
X5306800D02*
D03*
M02*
